<?xml version="1.0" encoding="UTF-8" standalone="no"?>
<svg
   xmlns:dc="http://purl.org/dc/elements/1.1/"
   xmlns:cc="http://creativecommons.org/ns#"
   xmlns:rdf="http://www.w3.org/1999/02/22-rdf-syntax-ns#"
   xmlns:svg="http://www.w3.org/2000/svg"
   xmlns="http://www.w3.org/2000/svg"
   xmlns:xlink="http://www.w3.org/1999/xlink"
   xmlns:sodipodi="http://sodipodi.sourceforge.net/DTD/sodipodi-0.dtd"
   xmlns:inkscape="http://www.inkscape.org/namespaces/inkscape"
   width="900" height="600"
   id="svg3032"
   version="1.1"
   inkscape:version="0.92.1 r15371"
   sodipodi:docname="US36.svg">
  <metadata
     id="metadata3077">
    <rdf:RDF>
      <cc:Work
         rdf:about="">
        <dc:format>image/svg+xml</dc:format>
        <dc:type
           rdf:resource="http://purl.org/dc/dcmitype/StillImage" />
        <dc:title></dc:title>
      </cc:Work>
    </rdf:RDF>
  </metadata>
  <sodipodi:namedview
     pagecolor="#ffffff"
     bordercolor="#666666"
     borderopacity="1"
     objecttolerance="10"
     gridtolerance="10"
     guidetolerance="10"
     inkscape:pageopacity="0"
     inkscape:pageshadow="2"
     inkscape:window-width="1304"
     inkscape:window-height="746"
     id="namedview3075"
     showgrid="false"
     inkscape:zoom="0.86"
     inkscape:cx="147.1923"
     inkscape:cy="404.39053"
     inkscape:window-x="54"
     inkscape:window-y="-8"
     inkscape:window-maximized="1"
     inkscape:current-layer="svg3032" />
  <defs
     id="defs3034">
    <path
       id="s"
       transform="scale(0.0308)"
       fill="#fff"
       d="M0,-1 L0.58779,0.80902 L-0.95106,-0.30902 L0.95106,-0.30902 L-0.58779,0.80902z" />
    <g
       id="s17">
      <g
         id="s8">
        <use
           xlink:href="#s"
           x="0.0844"
           y="0.1345"
           id="use3039" />
        <use
           xlink:href="#s"
           x="0.1688"
           y="0.1345"
           id="use3041" />
        <use
           xlink:href="#s"
           x="0.2532"
           y="0.1345"
           id="use3043" />
        <use
           xlink:href="#s"
           x="0.3376"
           y="0.1345"
           id="use3045" />
        <use
           xlink:href="#s"
           x="0.422"
           y="0.1345"
           id="use3047" />
        <use
           xlink:href="#s"
           x="0.5064"
           y="0.1345"
           id="use3049" />
        <use
           xlink:href="#s"
           x="0.5908"
           y="0.1345"
           id="use3051" />
        <use
           xlink:href="#s"
           x="0.6752"
           y="0.1345"
           id="use3053" />
      </g>
      <g
         id="s9">
        <use
           xlink:href="#s8"
           x="0.0422"
           y="-0.0897"
           id="use3056" />
        <use
           xlink:href="#s"
           x="0.0422"
           y="0.0448"
           id="use3058" />
      </g>
    </g>
    <g
       id="u">
      <use
         xlink:href="#s17"
         id="use3061" />
      <use
         xlink:href="#s17"
         y="0.1794"
         id="use3063" />
      <use
         xlink:href="#s17"
         y="0.3588"
         id="use3065" />
    </g>
    <style
       id="style3064"
       type="text/css">

    .fil2 {fill:#002868}
    .fil0 {fill:#BF0A30}
    .fil1 {fill:white}

  </style>
  </defs>
  <rect
     style="fill:#b22234"
     y="0"
     x="0"
     width="1235"
     height="650"
     id="rect3067" />
  <path
     style="stroke:#ffffff;stroke-width:50"
     inkscape:connector-curvature="0"
     d="M 0,75 H 1235 M 0,175 H 1235 M 0,275 H 1235 M 0,375 H 1235 M 0,475 H 1235 M 0,575 h 1235"
     id="path3069" />
  <rect
     style="fill:#3c3b6e"
     y="0"
     x="0"
     width="494"
     height="350"
     id="rect3071" />
  <polygon
     style="fill:#ffffff"
     points="138.11133,16.852539 134.46729,19.500977 135.85889,15.21582 132.21484,12.568359 136.71924,12.568359 138.11133,8.2841797 139.50342,12.568359 144.00781,12.568359 140.36377,15.21582 141.75537,19.500977 "
     id="polygon5955"
     transform="matrix(3.25,0,0,3.25,4.0624998e-6,0)" />
  <polygon
     style="fill:#ffffff"
     points="120.36523,16.852539 116.72119,19.500977 118.11279,15.21582 114.46875,12.568359 118.97314,12.568359 120.36523,8.2841797 121.75732,12.568359 126.26172,12.568359 122.61768,15.21582 124.00928,19.500977 "
     id="polygon5957"
     transform="matrix(3.25,0,0,3.25,4.0624998e-6,0)" />
  <polygon
     style="fill:#ffffff"
     points="102.61914,16.852539 98.975098,19.500977 100.3667,15.21582 96.722656,12.568359 101.22705,12.568359 102.61914,8.2841797 104.01123,12.568359 108.51562,12.568359 104.87158,15.21582 106.26318,19.500977 "
     id="polygon5959"
     transform="matrix(3.25,0,0,3.25,4.0624998e-6,0)" />
  <polygon
     style="fill:#ffffff"
     points="84.873047,16.852539 81.229004,19.500977 82.620605,15.21582 78.976562,12.568359 83.480957,12.568359 84.873047,8.2841797 86.265137,12.568359 90.769531,12.568359 87.125488,15.21582 88.51709,19.500977 "
     id="polygon5961"
     transform="matrix(3.25,0,0,3.25,4.0624998e-6,0)" />
  <polygon
     style="fill:#ffffff"
     points="67.126953,16.852539 63.48291,19.500977 64.874512,15.21582 61.230469,12.568359 65.734863,12.568359 67.126953,8.2841797 68.519043,12.568359 73.023438,12.568359 69.379395,15.21582 70.770996,19.500977 "
     id="polygon5963"
     transform="matrix(3.25,0,0,3.25,4.0624998e-6,0)" />
  <polygon
     style="fill:#ffffff"
     points="49.380859,16.852539 45.736816,19.500977 47.128418,15.21582 43.484375,12.568359 47.988769,12.568359 49.380859,8.2841797 50.772949,12.568359 55.277344,12.568359 51.633301,15.21582 53.024902,19.500977 "
     id="polygon5965"
     transform="matrix(3.25,0,0,3.25,4.0624998e-6,0)" />
  <polygon
     style="fill:#ffffff"
     points="31.634766,16.852539 27.990723,19.500977 29.382324,15.21582 25.738281,12.568359 30.242676,12.568359 31.634766,8.2841797 33.026856,12.568359 37.53125,12.568359 33.887207,15.21582 35.278809,19.500977 "
     id="polygon5967"
     transform="matrix(3.25,0,0,3.25,4.0624998e-6,0)" />
  <polygon
     style="fill:#ffffff"
     points="13.888672,16.852539 10.244629,19.500977 11.63623,15.21582 7.9921875,12.568359 12.496582,12.568359 13.888672,8.2841797 15.280762,12.568359 19.785156,12.568359 16.141113,15.21582 17.532715,19.500977 "
     id="polygon5969"
     transform="matrix(3.25,0,0,3.25,4.0624998e-6,0)" />
  <polygon
     style="fill:#ffffff"
     points="120.36523,36.583008 116.72119,39.231445 118.11279,34.946289 114.46875,32.298828 118.97314,32.298828 120.36523,28.014648 121.75732,32.298828 126.26172,32.298828 122.61768,34.946289 124.00928,39.231445 "
     id="polygon5973"
     transform="matrix(3.25,0,0,3.25,4.0624998e-6,0)" />
  <polygon
     style="fill:#ffffff"
     points="102.61914,36.583008 98.975098,39.231445 100.3667,34.946289 96.722656,32.298828 101.22705,32.298828 102.61914,28.014648 104.01123,32.298828 108.51562,32.298828 104.87158,34.946289 106.26318,39.231445 "
     id="polygon5975"
     transform="matrix(3.25,0,0,3.25,4.0624998e-6,0)" />
  <polygon
     style="fill:#ffffff"
     points="84.873047,36.583008 81.229004,39.231445 82.620605,34.946289 78.976562,32.298828 83.480957,32.298828 84.873047,28.014648 86.265137,32.298828 90.769531,32.298828 87.125488,34.946289 88.51709,39.231445 "
     id="polygon5977"
     transform="matrix(3.25,0,0,3.25,4.0624998e-6,0)" />
  <polygon
     style="fill:#ffffff"
     points="67.126953,36.583008 63.48291,39.231445 64.874512,34.946289 61.230469,32.298828 65.734863,32.298828 67.126953,28.014648 68.519043,32.298828 73.023438,32.298828 69.379395,34.946289 70.770996,39.231445 "
     id="polygon5979"
     transform="matrix(3.25,0,0,3.25,4.0624998e-6,0)" />
  <polygon
     style="fill:#ffffff"
     points="49.380859,36.583008 45.736816,39.231445 47.128418,34.946289 43.484375,32.298828 47.988769,32.298828 49.380859,28.014648 50.772949,32.298828 55.277344,32.298828 51.633301,34.946289 53.024902,39.231445 "
     id="polygon5981"
     transform="matrix(3.25,0,0,3.25,4.0624998e-6,0)" />
  <polygon
     style="fill:#ffffff"
     points="31.634766,36.583008 27.990723,39.231445 29.382324,34.946289 25.738281,32.298828 30.242676,32.298828 31.634766,28.014648 33.026856,32.298828 37.53125,32.298828 33.887207,34.946289 35.278809,39.231445 "
     id="polygon5983"
     transform="matrix(3.25,0,0,3.25,4.0624998e-6,0)" />
  <polygon
     style="fill:#ffffff"
     points="138.11133,56.313965 134.46729,58.962402 135.85889,54.677246 132.21484,52.029785 136.71924,52.029785 138.11133,47.745606 139.50342,52.029785 144.00781,52.029785 140.36377,54.677246 141.75537,58.962402 "
     id="polygon5989"
     transform="matrix(3.25,0,0,3.25,4.0624998e-6,0)" />
  <polygon
     style="fill:#ffffff"
     points="120.36523,56.313965 116.72119,58.962402 118.11279,54.677246 114.46875,52.029785 118.97314,52.029785 120.36523,47.745606 121.75732,52.029785 126.26172,52.029785 122.61768,54.677246 124.00928,58.962402 "
     id="polygon5991"
     transform="matrix(3.25,0,0,3.25,4.0624998e-6,0)" />
  <polygon
     style="fill:#ffffff"
     points="102.61914,56.313965 98.975098,58.962402 100.3667,54.677246 96.722656,52.029785 101.22705,52.029785 102.61914,47.745606 104.01123,52.029785 108.51562,52.029785 104.87158,54.677246 106.26318,58.962402 "
     id="polygon5993"
     transform="matrix(3.25,0,0,3.25,4.0624998e-6,0)" />
  <polygon
     style="fill:#ffffff"
     points="84.873047,56.313965 81.229004,58.962402 82.620605,54.677246 78.976562,52.029785 83.480957,52.029785 84.873047,47.745606 86.265137,52.029785 90.769531,52.029785 87.125488,54.677246 88.51709,58.962402 "
     id="polygon5995"
     transform="matrix(3.25,0,0,3.25,4.0624998e-6,0)" />
  <polygon
     style="fill:#ffffff"
     points="67.126953,56.313965 63.48291,58.962402 64.874512,54.677246 61.230469,52.029785 65.734863,52.029785 67.126953,47.745606 68.519043,52.029785 73.023438,52.029785 69.379395,54.677246 70.770996,58.962402 "
     id="polygon5997"
     transform="matrix(3.25,0,0,3.25,4.0624998e-6,0)" />
  <polygon
     style="fill:#ffffff"
     points="49.380859,56.313965 45.736816,58.962402 47.128418,54.677246 43.484375,52.029785 47.988769,52.029785 49.380859,47.745606 50.772949,52.029785 55.277344,52.029785 51.633301,54.677246 53.024902,58.962402 "
     id="polygon5999"
     transform="matrix(3.25,0,0,3.25,4.0624998e-6,0)" />
  <polygon
     style="fill:#ffffff"
     points="31.634766,56.313965 27.990723,58.962402 29.382324,54.677246 25.738281,52.029785 30.242676,52.029785 31.634766,47.745606 33.026856,52.029785 37.53125,52.029785 33.887207,54.677246 35.278809,58.962402 "
     id="polygon6001"
     transform="matrix(3.25,0,0,3.25,4.0624998e-6,0)" />
  <polygon
     style="fill:#ffffff"
     points="13.888672,56.313965 10.244629,58.962402 11.63623,54.677246 7.9921875,52.029785 12.496582,52.029785 13.888672,47.745606 15.280762,52.029785 19.785156,52.029785 16.141113,54.677246 17.532715,58.962402 "
     id="polygon6003"
     transform="matrix(3.25,0,0,3.25,4.0624998e-6,0)" />
  <polygon
     style="fill:#ffffff"
     points="120.36523,76.044922 116.72119,78.693359 118.11279,74.408203 114.46875,71.761719 118.97314,71.761719 120.36523,67.476562 121.75732,71.761719 126.26172,71.761719 122.61768,74.408203 124.00928,78.693359 "
     id="polygon6007"
     transform="matrix(3.25,0,0,3.25,4.0624998e-6,0)" />
  <polygon
     style="fill:#ffffff"
     points="102.61914,76.044922 98.975098,78.693359 100.3667,74.408203 96.722656,71.761719 101.22705,71.761719 102.61914,67.476562 104.01123,71.761719 108.51562,71.761719 104.87158,74.408203 106.26318,78.693359 "
     id="polygon6009"
     transform="matrix(3.25,0,0,3.25,4.0624998e-6,0)" />
  <polygon
     style="fill:#ffffff"
     points="84.873047,76.044922 81.229004,78.693359 82.620605,74.408203 78.976562,71.761719 83.480957,71.761719 84.873047,67.476562 86.265137,71.761719 90.769531,71.761719 87.125488,74.408203 88.51709,78.693359 "
     id="polygon6011"
     transform="matrix(3.25,0,0,3.25,4.0624998e-6,0)" />
  <polygon
     style="fill:#ffffff"
     points="67.126953,76.044922 63.48291,78.693359 64.874512,74.408203 61.230469,71.761719 65.734863,71.761719 67.126953,67.476562 68.519043,71.761719 73.023438,71.761719 69.379395,74.408203 70.770996,78.693359 "
     id="polygon6013"
     transform="matrix(3.25,0,0,3.25,4.0624998e-6,0)" />
  <polygon
     style="fill:#ffffff"
     points="49.380859,76.044922 45.736816,78.693359 47.128418,74.408203 43.484375,71.761719 47.988769,71.761719 49.380859,67.476562 50.772949,71.761719 55.277344,71.761719 51.633301,74.408203 53.024902,78.693359 "
     id="polygon6015"
     transform="matrix(3.25,0,0,3.25,4.0624998e-6,0)" />
  <polygon
     style="fill:#ffffff"
     points="31.634766,76.044922 27.990723,78.693359 29.382324,74.408203 25.738281,71.761719 30.242676,71.761719 31.634766,67.476562 33.026856,71.761719 37.53125,71.761719 33.887207,74.408203 35.278809,78.693359 "
     id="polygon6017"
     transform="matrix(3.25,0,0,3.25,4.0624998e-6,0)" />
  <polygon
     style="fill:#ffffff"
     points="138.11133,95.775391 134.46729,98.423828 135.85889,94.138672 132.21484,91.491211 136.71924,91.491211 138.11133,87.207031 139.50342,91.491211 144.00781,91.491211 140.36377,94.138672 141.75537,98.423828 "
     id="polygon6023"
     transform="matrix(3.25,0,0,3.25,4.0624998e-6,0)" />
  <polygon
     style="fill:#ffffff"
     points="120.36523,95.775391 116.72119,98.423828 118.11279,94.138672 114.46875,91.491211 118.97314,91.491211 120.36523,87.207031 121.75732,91.491211 126.26172,91.491211 122.61768,94.138672 124.00928,98.423828 "
     id="polygon6025"
     transform="matrix(3.25,0,0,3.25,4.0624998e-6,0)" />
  <polygon
     style="fill:#ffffff"
     points="102.61914,95.775391 98.975098,98.423828 100.3667,94.138672 96.722656,91.491211 101.22705,91.491211 102.61914,87.207031 104.01123,91.491211 108.51562,91.491211 104.87158,94.138672 106.26318,98.423828 "
     id="polygon6027"
     transform="matrix(3.25,0,0,3.25,4.0624998e-6,0)" />
  <polygon
     style="fill:#ffffff"
     points="84.873047,95.775391 81.229004,98.423828 82.620605,94.138672 78.976562,91.491211 83.480957,91.491211 84.873047,87.207031 86.265137,91.491211 90.769531,91.491211 87.125488,94.138672 88.51709,98.423828 "
     id="polygon6029"
     transform="matrix(3.25,0,0,3.25,4.0624998e-6,0)" />
  <polygon
     style="fill:#ffffff"
     points="67.126953,95.775391 63.48291,98.423828 64.874512,94.138672 61.230469,91.491211 65.734863,91.491211 67.126953,87.207031 68.519043,91.491211 73.023438,91.491211 69.379395,94.138672 70.770996,98.423828 "
     id="polygon6031"
     transform="matrix(3.25,0,0,3.25,4.0624998e-6,0)" />
  <polygon
     style="fill:#ffffff"
     points="49.380859,95.775391 45.736816,98.423828 47.128418,94.138672 43.484375,91.491211 47.988769,91.491211 49.380859,87.207031 50.772949,91.491211 55.277344,91.491211 51.633301,94.138672 53.024902,98.423828 "
     id="polygon6033"
     transform="matrix(3.25,0,0,3.25,4.0624998e-6,0)" />
  <polygon
     style="fill:#ffffff"
     points="31.634766,95.775391 27.990723,98.423828 29.382324,94.138672 25.738281,91.491211 30.242676,91.491211 31.634766,87.207031 33.026856,91.491211 37.53125,91.491211 33.887207,94.138672 35.278809,98.423828 "
     id="polygon6035"
     transform="matrix(3.25,0,0,3.25,4.0624998e-6,0)" />
  <polygon
     style="fill:#ffffff"
     points="13.888672,95.775391 10.244629,98.423828 11.63623,94.138672 7.9921875,91.491211 12.496582,91.491211 13.888672,87.207031 15.280762,91.491211 19.785156,91.491211 16.141113,94.138672 17.532715,98.423828 "
     id="polygon6037"
     transform="matrix(3.25,0,0,3.25,4.0624998e-6,0)" />
</svg>
