<svg width="436" height="426" viewBox="0 0 436 426" fill="none" xmlns="http://www.w3.org/2000/svg">
  <rect width="436" height="426" fill="url(#paint0_linear_0_1)"/>
  <path d="M110 0H326V309C326 342.137 299.137 369 266 369H170C136.863 369 110 342.137 110 309V0Z" fill="#DDE9FF"/>
  <path d="M220.528 385.592C263.999 385.592 299.239 380.552 299.239 374.336C299.239 368.119 263.999 363.08 220.528 363.08C177.057 363.08 141.817 368.119 141.817 374.336C141.817 380.552 177.057 385.592 220.528 385.592Z" fill="#588FF4"/>
  <path d="M147.575 287.244C151.244 295.601 155.364 300.863 165.524 302.186C178.76 303.903 177.885 316.228 185.11 323.488C191.573 330.016 196.54 330.917 199.024 344.789C179.607 321.208 161.912 314.202 157.735 311.866C146.87 305.844 136.032 290.17 147.575 287.244V287.244Z" fill="url(#paint1_linear_0_1)"/>
  <path d="M147.575 287.244C151.244 295.601 155.364 300.863 165.524 302.186C178.76 303.903 177.885 316.228 185.11 323.488C191.573 330.016 196.54 330.917 199.024 344.789C179.607 321.208 161.912 314.202 157.735 311.866C146.87 305.844 136.032 290.17 147.575 287.244V287.244Z" fill="url(#paint2_linear_0_1)"/>
  <path d="M158.751 287.413C159.88 287.6 160.971 287.826 162.025 288.088C163.944 292.197 165.496 295.32 165.722 295.179C165.919 295.039 165.355 292.393 164.537 288.82C168.318 290.03 171.592 291.718 174.499 293.857C174.894 298.556 175.289 302.242 175.571 302.158C175.797 302.102 176.22 299.344 176.672 295.601C189.287 306.576 195.016 326.949 209.607 352.809L206.164 354.132C203.765 350.755 201.394 347.66 199.024 344.789C196.54 330.917 191.573 330.016 185.11 323.488C177.885 316.228 178.76 303.903 165.524 302.186C155.364 300.863 151.244 295.601 147.575 287.244C150.115 286.597 153.756 286.569 158.751 287.413V287.413Z" fill="url(#paint3_linear_0_1)"/>
  <path d="M226.766 329.538L222.758 328.271C222.222 312.738 202.833 290.986 201.874 276.776C201.281 268.109 207.377 267.04 214.574 271.626C214.602 275.2 214.687 277.761 214.912 277.845C215.11 277.93 215.618 275.847 216.267 272.808C217.96 274.075 219.654 275.65 221.347 277.451C220.416 282.46 219.767 286.569 220.021 286.709C220.246 286.85 221.573 283.755 223.21 279.646C224.959 281.757 226.624 284.177 228.148 286.878C235.016 299.016 234.555 313.235 226.766 329.538Z" fill="#4E7DCB"/>
  <path d="M240.453 350.586C237.687 331.189 239.136 317.822 244.799 310.487C253.322 299.485 250.98 300.948 254.874 292.281C258.741 283.614 265.401 282.376 263.228 291.071C261.027 299.738 265.74 301.314 262.692 309.981C259.644 318.62 259.87 325.373 244.715 346.027L240.453 350.586Z" fill="url(#paint4_linear_0_1)"/>
  <path d="M246.436 349.46C246.567 337.492 248.373 326.536 251.854 316.593C255.335 306.651 257.235 299.785 257.555 295.995" stroke="white" stroke-width="1.1"/>
  <path d="M288.599 308.32C284.761 311.191 268.195 320.505 252.108 346.478C252.701 332.38 257.499 330.832 263.03 323.488C269.211 315.327 266.699 303.255 279.596 299.766C289.446 297.093 292.833 291.324 295.372 282.545C307.169 283.923 298.562 300.892 288.599 308.32V308.32Z" fill="url(#paint5_linear_0_1)"/>
  <g style="mix-blend-mode:multiply" opacity="0.6">
    <path d="M288.599 308.32C284.761 311.191 268.195 320.505 252.108 346.478C252.701 332.38 257.499 330.832 263.03 323.488C269.211 315.327 266.699 303.255 279.596 299.766C289.446 297.093 292.833 291.324 295.372 282.545C307.169 283.923 298.562 300.892 288.599 308.32V308.32Z" fill="#588FF4"/>
  </g>
  <path d="M295.373 282.545C292.833 291.324 289.446 297.093 279.597 299.766C266.7 303.255 269.211 315.327 263.031 323.488C257.499 330.832 252.701 332.38 252.109 346.478C250.162 349.629 248.214 353.006 246.295 356.692L242.711 355.848C253.689 328.243 256.624 307.307 267.659 294.729C268.619 298.387 269.381 301.06 269.606 301.089C269.889 301.117 269.804 297.43 269.578 292.703C272.146 290.199 275.166 288.088 278.778 286.372C278.412 290.03 278.242 292.731 278.44 292.844C278.694 292.956 279.823 289.664 281.149 285.33C282.165 284.937 283.219 284.571 284.31 284.233C289.136 282.713 292.748 282.263 295.373 282.545V282.545Z" fill="url(#paint6_linear_0_1)"/>
  <path d="M191.15 349.967C177.208 357.79 164.791 352.922 155.026 337.276C150.247 329.641 145.242 325.289 140.012 324.219C155.985 325.101 173.031 333.684 191.15 349.967Z" fill="#4E7DCB"/>
  <path d="M191.15 349.967C173.031 333.684 155.985 325.101 140.012 324.219C149.344 320.43 159.372 319.97 170.096 322.84C185.788 327.043 192.805 336.085 191.15 349.967Z" fill="url(#paint7_linear_0_1)"/>
  <path d="M167.895 312.344C169.023 315.609 172.354 317.982 177.885 319.464C186.041 321.659 193.492 329.622 188.581 342.116C176.164 333.693 169.268 323.769 167.895 312.344V312.344Z" fill="url(#paint8_linear_0_1)"/>
  <path d="M167.669 330.748C165.129 323.75 165.204 317.616 167.894 312.344C169.268 323.769 176.163 333.693 188.581 342.116C178.346 344.742 171.375 340.953 167.669 330.748V330.748Z" fill="url(#paint9_linear_0_1)"/>
  <path d="M253.153 347.181C251.149 331.367 260.35 321.743 278.553 318.591C287.452 317.034 293.379 314.042 296.333 309.615C289.503 324.06 275.11 336.582 253.153 347.181V347.181Z" fill="url(#paint10_linear_0_1)"/>
  <path d="M253.152 347.181C275.109 336.582 289.502 324.06 296.332 309.615C296.351 319.67 293.002 329.116 286.285 337.951C276.501 350.858 265.457 353.935 253.152 347.181V347.181Z" fill="url(#paint11_linear_0_1)"/>
  <path d="M221.939 327.568C221.742 325.429 221.742 322.559 222.278 319.295C223.351 312.795 226.906 303.312 237.8 295.095C262.635 276.326 263.877 266.73 263.821 252.66H264.47C264.498 266.927 263.256 276.635 238.195 295.601C227.471 303.677 223.971 312.992 222.899 319.379C221.77 326.302 223.181 331.367 223.181 331.423L222.56 331.592C222.56 331.564 222.137 330.044 221.939 327.568V327.568Z" fill="url(#paint12_linear_0_1)"/>
  <path d="M261.252 270.585C268.872 263.475 273.387 261.975 274.798 266.083C275.984 269.497 271.468 270.998 261.252 270.585Z" fill="url(#paint13_linear_0_1)"/>
  <path d="M254.677 280.181C264.253 276.091 269.004 276.223 268.929 280.575C268.872 284.195 264.122 284.064 254.677 280.181Z" fill="url(#paint14_linear_0_1)"/>
  <path d="M246.295 288.735C256.511 286.766 261.13 287.891 260.152 292.112C259.324 295.639 254.705 294.513 246.295 288.735Z" fill="url(#paint15_linear_0_1)"/>
  <path d="M238.139 294.982C248.562 294.607 252.955 296.436 251.318 300.47C249.945 303.827 245.552 301.998 238.139 294.982Z" fill="url(#paint16_linear_0_1)"/>
  <path d="M229.588 303.537C239.748 301.154 244.414 302.102 243.586 306.379C242.909 309.924 238.243 308.977 229.588 303.537Z" fill="url(#paint17_linear_0_1)"/>
  <path d="M223.802 314.736C233.247 310.346 238.007 310.328 238.082 314.68C238.138 318.301 233.378 318.319 223.802 314.736Z" fill="url(#paint18_linear_0_1)"/>
  <path d="M263.792 260.343C269.606 251.713 273.67 249.246 275.984 252.942C277.903 256.018 273.839 258.485 263.792 260.343Z" fill="url(#paint19_linear_0_1)"/>
  <path d="M263.454 264.451C254.047 259.967 251.008 256.319 254.338 253.505C257.104 251.16 260.143 254.808 263.454 264.451Z" fill="url(#paint20_linear_0_1)"/>
  <path d="M258.458 275.763C250.575 268.953 248.609 264.629 252.56 262.791C255.852 261.271 257.818 265.595 258.458 275.763Z" fill="url(#paint21_linear_0_1)"/>
  <path d="M250.5 284.852C244.611 276.279 243.812 271.598 248.101 270.81C251.676 270.173 252.476 274.853 250.5 284.852Z" fill="url(#paint22_linear_0_1)"/>
  <path d="M241.384 292.647C235.947 283.792 235.392 279.083 239.719 278.521C243.313 278.052 243.868 282.76 241.384 292.647Z" fill="url(#paint23_linear_0_1)"/>
  <path d="M233.595 299.175C228.138 290.321 227.574 285.612 231.901 285.049C235.495 284.58 236.059 289.289 233.595 299.175Z" fill="url(#paint24_linear_0_1)"/>
  <path d="M225.947 309.221C218.026 302.467 216.031 298.153 219.964 296.277C223.237 294.738 225.232 299.053 225.947 309.221Z" fill="url(#paint25_linear_0_1)"/>
  <path d="M222.504 321.011C212.814 317.147 209.54 313.705 212.682 310.684C215.279 308.17 218.553 311.613 222.504 321.011Z" fill="url(#paint26_linear_0_1)"/>
  <path d="M264.131 253.87C259.71 244.453 259.682 239.707 264.047 239.632C267.659 239.576 267.687 244.322 264.131 253.87Z" fill="url(#paint27_linear_0_1)"/>
  <path d="M235.289 344.536C233.2 343.973 230.491 343.017 227.612 341.413C221.855 338.205 214.122 331.648 210.058 318.62C200.773 288.932 192.166 284.543 178.873 279.787L179.071 279.196C192.561 284.008 201.281 288.482 210.651 318.423C214.658 331.226 222.25 337.67 227.894 340.85C234.047 344.255 239.296 344.649 239.353 344.677L239.296 345.296C239.268 345.296 237.716 345.183 235.289 344.536V344.536Z" fill="url(#paint28_linear_0_1)"/>
  <path d="M194.903 288.285C190.764 278.736 190.877 273.99 195.242 274.047C198.873 274.103 198.76 278.849 194.903 288.285Z" fill="url(#paint29_linear_0_1)"/>
  <path d="M201.705 297.74C201.121 287.366 202.862 282.948 206.926 284.486C210.312 285.781 208.572 290.199 201.705 297.74V297.74Z" fill="url(#paint30_linear_0_1)"/>
  <path d="M206.953 308.517C208.552 298.237 211.177 294.279 214.827 296.643C217.875 298.612 215.25 302.571 206.953 308.517Z" fill="url(#paint31_linear_0_1)"/>
  <path d="M210.058 318.254C213.256 308.367 216.473 304.878 219.709 307.786C222.419 310.187 219.201 313.676 210.058 318.254Z" fill="url(#paint32_linear_0_1)"/>
  <path d="M215.223 329.172C216.427 318.854 218.91 314.811 222.673 317.044C225.778 318.882 223.294 322.925 215.223 329.172Z" fill="url(#paint33_linear_0_1)"/>
  <path d="M223.83 338.43C222.908 328.074 224.507 323.6 228.628 325.007C232.052 326.189 230.453 330.663 223.83 338.43Z" fill="url(#paint34_linear_0_1)"/>
  <path d="M186.098 282.432C179.945 274.047 179.004 269.403 183.275 268.503C186.813 267.753 187.753 272.396 186.098 282.432Z" fill="url(#paint35_linear_0_1)"/>
  <path d="M189.851 284.149C182.438 291.446 177.97 293.059 176.446 288.989C175.167 285.593 179.635 283.98 189.851 284.149Z" fill="url(#paint36_linear_0_1)"/>
  <path d="M198.826 292.675C189.72 297.759 184.978 298.134 184.602 293.8C184.282 290.199 189.023 289.823 198.826 292.675Z" fill="url(#paint37_linear_0_1)"/>
  <path d="M204.696 303.227C194.611 305.835 189.936 304.991 190.669 300.695C191.253 297.13 195.928 297.975 204.696 303.227Z" fill="url(#paint38_linear_0_1)"/>
  <path d="M208.957 314.427C198.76 316.528 194.132 315.449 195.072 311.191C195.844 307.664 200.472 308.743 208.957 314.427Z" fill="url(#paint39_linear_0_1)"/>
  <path d="M212.485 323.966C202.269 326.067 197.631 324.988 198.572 320.73C199.362 317.203 204 318.282 212.485 323.966Z" fill="url(#paint40_linear_0_1)"/>
  <path d="M219.343 334.547C210.275 339.687 205.533 340.09 205.119 335.757C204.781 332.155 209.522 331.751 219.343 334.547Z" fill="url(#paint41_linear_0_1)"/>
  <path d="M229.305 341.778C222.381 349.545 218.016 351.449 216.21 347.491C214.724 344.189 219.089 342.285 229.305 341.778Z" fill="url(#paint42_linear_0_1)"/>
  <path d="M180.114 279.928C169.729 280.884 165.242 279.299 166.653 275.172C167.819 271.758 172.306 273.343 180.114 279.928Z" fill="url(#paint43_linear_0_1)"/>
  <path d="M297.376 338.964C293.914 339.677 290.603 342.566 287.442 347.631C280.979 357.987 272.738 361.195 263.51 356.045C275.513 345.24 286.802 339.546 297.376 338.964V338.964Z" fill="url(#paint44_linear_0_1)"/>
  <path d="M277.452 338.064C284.564 336.169 291.205 336.469 297.376 338.964C286.803 339.546 275.514 345.24 263.51 356.045C262.419 346.834 267.066 340.84 277.452 338.064V338.064Z" fill="#4E7DCB"/>
  <path d="M193.351 335.25H148.308C147.202 335.25 146.305 336.144 146.305 337.248V362.686C146.305 363.789 147.202 364.684 148.308 364.684H193.351C194.457 364.684 195.354 363.789 195.354 362.686V337.248C195.354 336.144 194.457 335.25 193.351 335.25Z" fill="#E1F5FE"/>
  <g opacity="0.4">
    <path opacity="0.4" d="M157.65 335.25L187.17 364.684H148.308C147.208 364.684 146.305 363.812 146.305 362.714V337.248C146.305 336.15 147.208 335.25 148.308 335.25H157.65Z" fill="white"/>
  </g>
  <path d="M194.987 363.84C194.621 364.346 194.028 364.684 193.351 364.684H148.308C147.208 364.684 146.305 363.812 146.305 362.714V337.248C146.305 336.573 146.643 335.982 147.151 335.616C146.954 335.925 146.813 336.319 146.813 336.741V362.208C146.813 363.305 147.716 364.177 148.788 364.177H193.859C194.282 364.177 194.677 364.065 194.987 363.84V363.84Z" fill="#E1F5FE"/>
  <g style="mix-blend-mode:multiply">
    <path d="M191.544 349.967C191.544 350.305 191.262 350.586 190.923 350.586H150.707C150.368 350.586 150.114 350.305 150.114 349.967C150.114 349.657 150.368 349.376 150.707 349.376H190.923C191.262 349.376 191.544 349.657 191.544 349.967Z" fill="#E1F5FE"/>
  </g>
  <path d="M155.11 346.984L152.908 344.789L150.707 342.566C149.917 341.807 149.917 340.54 150.707 339.752C151.497 338.964 152.739 338.964 153.529 339.752L155.759 341.947L157.96 344.142C158.75 344.93 158.75 346.196 157.96 346.984C157.17 347.772 155.9 347.772 155.11 346.984V346.984Z" fill="#B3E5FC"/>
  <path d="M155.251 341.947L157.452 344.142C158.242 344.93 158.242 346.196 157.452 346.984C156.662 347.772 155.392 347.772 154.602 346.984L152.4 344.789L155.251 341.947Z" fill="url(#paint45_linear_0_1)"/>
  <path d="M150.199 342.566C149.409 341.807 149.409 340.54 150.199 339.752C150.989 338.964 152.259 338.964 153.021 339.752L155.251 341.947L152.4 344.789L150.199 342.566Z" fill="#E1F5FE"/>
  <g style="mix-blend-mode:screen" opacity="0.5">
    <path d="M155.787 345.465L151.356 341.047C151.074 340.765 151.074 340.287 151.356 339.977C151.638 339.696 152.118 339.696 152.4 339.977L156.859 344.423C157.142 344.705 157.142 345.183 156.859 345.465C156.549 345.774 156.097 345.774 155.787 345.465Z" fill="white"/>
  </g>
  <path d="M152.034 341.356L151.554 340.878C151.357 340.681 151.357 340.371 151.554 340.174C151.724 339.977 152.034 339.977 152.232 340.174L152.712 340.653C152.909 340.85 152.909 341.159 152.712 341.356C152.542 341.553 152.232 341.553 152.034 341.356Z" fill="white"/>
  <path d="M163.491 346.984L161.29 344.789L159.089 342.566C158.299 341.807 158.299 340.54 159.089 339.752C159.851 338.964 161.121 338.964 161.911 339.752L164.112 341.947L166.342 344.142C167.104 344.93 167.104 346.196 166.342 346.984C165.552 347.772 164.282 347.772 163.491 346.984V346.984Z" fill="#B3E5FC"/>
  <path d="M163.604 341.947L165.834 344.142C166.596 344.93 166.596 346.196 165.834 346.984C165.044 347.772 163.774 347.772 162.984 346.984L160.782 344.789L163.604 341.947Z" fill="url(#paint46_linear_0_1)"/>
  <path d="M158.581 342.566C157.791 341.807 157.791 340.54 158.581 339.752C159.343 338.964 160.613 338.964 161.403 339.752L163.604 341.947L160.782 344.789L158.581 342.566Z" fill="#E1F5FE"/>
  <g style="mix-blend-mode:screen" opacity="0.5">
    <path d="M164.17 345.465L159.739 341.047C159.428 340.765 159.428 340.287 159.739 339.977C160.021 339.696 160.501 339.696 160.783 339.977L165.242 344.423C165.524 344.705 165.524 345.183 165.242 345.465C164.932 345.774 164.452 345.774 164.17 345.465Z" fill="white"/>
  </g>
  <path d="M160.415 341.356L159.907 340.878C159.738 340.681 159.738 340.371 159.907 340.174C160.105 339.977 160.415 339.977 160.613 340.174L161.093 340.653C161.29 340.85 161.29 341.159 161.093 341.356C160.895 341.553 160.585 341.553 160.415 341.356Z" fill="white"/>
  <path d="M171.873 346.984L169.672 344.789L167.443 342.566C166.681 341.807 166.681 340.54 167.443 339.752C168.233 338.964 169.503 338.964 170.293 339.752L172.494 341.947L174.696 344.142C175.486 344.93 175.486 346.196 174.696 346.984C173.934 347.772 172.664 347.772 171.873 346.984V346.984Z" fill="#B3E5FC"/>
  <path d="M171.986 341.947L174.188 344.142C174.978 344.93 174.978 346.196 174.188 346.984C173.426 347.772 172.156 347.772 171.365 346.984L169.164 344.789L171.986 341.947Z" fill="url(#paint47_linear_0_1)"/>
  <path d="M166.935 342.566C166.173 341.807 166.173 340.54 166.935 339.752C167.725 338.964 168.995 338.964 169.785 339.752L171.986 341.947L169.164 344.789L166.935 342.566Z" fill="#E1F5FE"/>
  <g style="mix-blend-mode:screen" opacity="0.5">
    <path d="M172.551 345.465L168.121 341.047C167.81 340.765 167.81 340.287 168.121 339.977C168.403 339.696 168.883 339.696 169.165 339.977L173.596 344.423C173.906 344.705 173.906 345.183 173.596 345.465C173.313 345.774 172.834 345.774 172.551 345.465Z" fill="white"/>
  </g>
  <path d="M168.77 341.356L168.29 340.878C168.092 340.681 168.092 340.371 168.29 340.174C168.487 339.977 168.798 339.977 168.995 340.174L169.475 340.653C169.673 340.85 169.673 341.159 169.475 341.356C169.278 341.553 168.967 341.553 168.77 341.356Z" fill="white"/>
  <path d="M180.256 346.984L178.026 344.789L175.825 342.566C175.035 341.807 175.035 340.54 175.825 339.752C176.615 338.964 177.885 338.964 178.675 339.752L180.877 341.947L183.078 344.142C183.868 344.93 183.868 346.196 183.078 346.984C182.288 347.772 181.018 347.772 180.256 346.984Z" fill="#B3E5FC"/>
  <path d="M180.369 341.947L182.57 344.142C183.36 344.93 183.36 346.196 182.57 346.984C181.78 347.772 180.51 347.772 179.748 346.984L177.519 344.789L180.369 341.947Z" fill="url(#paint48_linear_0_1)"/>
  <path d="M175.317 342.566C174.527 341.807 174.527 340.54 175.317 339.752C176.107 338.964 177.377 338.964 178.168 339.752L180.369 341.947L177.519 344.789L175.317 342.566Z" fill="#E1F5FE"/>
  <g style="mix-blend-mode:screen" opacity="0.5">
    <path d="M180.933 345.465L176.474 341.047C176.192 340.765 176.192 340.287 176.474 339.977C176.785 339.696 177.236 339.696 177.547 339.977L181.978 344.423C182.26 344.705 182.26 345.183 181.978 345.465C181.695 345.774 181.216 345.774 180.933 345.465Z" fill="white"/>
  </g>
  <path d="M177.151 341.356L176.672 340.878C176.474 340.681 176.474 340.371 176.672 340.174C176.869 339.977 177.18 339.977 177.349 340.174L177.857 340.653C178.026 340.85 178.026 341.159 177.857 341.356C177.659 341.553 177.349 341.553 177.151 341.356V341.356Z" fill="white"/>
  <path d="M188.61 346.984L186.408 344.789L184.207 342.566C183.417 341.807 183.417 340.54 184.207 339.752C184.997 338.964 186.267 338.964 187.029 339.752L189.259 341.947L191.46 344.142C192.25 344.93 192.25 346.196 191.46 346.984C190.67 347.772 189.4 347.772 188.61 346.984Z" fill="#B3E5FC"/>
  <path d="M188.751 341.947L190.952 344.142C191.742 344.93 191.742 346.196 190.952 346.984C190.162 347.772 188.892 347.772 188.102 346.984L185.9 344.789L188.751 341.947Z" fill="url(#paint49_linear_0_1)"/>
  <path d="M183.699 342.566C182.909 341.807 182.909 340.54 183.699 339.752C184.489 338.964 185.759 338.964 186.521 339.752L188.751 341.947L185.9 344.789L183.699 342.566Z" fill="#E1F5FE"/>
  <g style="mix-blend-mode:screen" opacity="0.5">
    <path d="M189.287 345.465L184.856 341.047C184.574 340.765 184.574 340.287 184.856 339.977C185.138 339.696 185.618 339.696 185.9 339.977L190.359 344.423C190.642 344.705 190.642 345.183 190.359 345.465C190.049 345.774 189.597 345.774 189.287 345.465Z" fill="white"/>
  </g>
  <path d="M185.533 341.356L185.053 340.878C184.856 340.681 184.856 340.371 185.053 340.174C185.223 339.977 185.533 339.977 185.731 340.174L186.211 340.653C186.408 340.85 186.408 341.159 186.211 341.356C186.041 341.553 185.731 341.553 185.533 341.356Z" fill="white"/>
  <path d="M155.11 360.21L152.908 358.015L150.707 355.82C149.917 355.032 149.917 353.766 150.707 352.978C151.497 352.19 152.739 352.19 153.529 352.978L155.759 355.173L157.96 357.396C158.75 358.156 158.75 359.422 157.96 360.21C157.17 360.998 155.9 360.998 155.11 360.21V360.21Z" fill="#B3E5FC"/>
  <path d="M163.491 360.21L161.29 358.015L159.089 355.82C158.299 355.032 158.299 353.766 159.089 352.978C159.851 352.19 161.121 352.19 161.911 352.978L164.112 355.173L166.342 357.396C167.104 358.156 167.104 359.422 166.342 360.21C165.552 360.998 164.282 360.998 163.491 360.21V360.21Z" fill="#B3E5FC"/>
  <path d="M163.604 355.173L165.834 357.396C166.596 358.156 166.596 359.422 165.834 360.21C165.044 360.998 163.774 360.998 162.984 360.21L160.782 358.015L163.604 355.173Z" fill="url(#paint50_linear_0_1)"/>
  <path d="M158.581 355.82C157.791 355.032 157.791 353.766 158.581 352.978C159.343 352.19 160.613 352.19 161.403 352.978L163.604 355.173L160.782 358.015L158.581 355.82Z" fill="#E1F5FE"/>
  <g style="mix-blend-mode:screen" opacity="0.5">
    <path d="M164.17 358.69L159.739 354.272C159.428 353.991 159.428 353.513 159.739 353.231C160.021 352.922 160.501 352.922 160.783 353.231L165.242 357.649C165.524 357.93 165.524 358.409 165.242 358.69C164.932 359 164.452 359 164.17 358.69Z" fill="white"/>
  </g>
  <path d="M160.415 354.582L159.907 354.103C159.738 353.907 159.738 353.597 159.907 353.4C160.105 353.231 160.415 353.231 160.613 353.4L161.093 353.878C161.29 354.075 161.29 354.385 161.093 354.582C160.895 354.779 160.585 354.779 160.415 354.582Z" fill="white"/>
  <path d="M171.873 360.21L169.672 358.015L167.443 355.82C166.681 355.032 166.681 353.766 167.443 352.978C168.233 352.19 169.503 352.19 170.293 352.978L172.494 355.173L174.696 357.396C175.486 358.156 175.486 359.422 174.696 360.21C173.934 360.998 172.664 360.998 171.873 360.21V360.21Z" fill="#B3E5FC"/>
  <path d="M171.986 355.173L174.188 357.396C174.978 358.156 174.978 359.422 174.188 360.21C173.426 360.998 172.156 360.998 171.365 360.21L169.164 358.015L171.986 355.173Z" fill="url(#paint51_linear_0_1)"/>
  <path d="M166.935 355.82C166.173 355.032 166.173 353.766 166.935 352.978C167.725 352.19 168.995 352.19 169.785 352.978L171.986 355.173L169.164 358.015L166.935 355.82Z" fill="#E1F5FE"/>
  <g style="mix-blend-mode:screen" opacity="0.5">
    <path d="M172.551 358.69L168.121 354.272C167.81 353.991 167.81 353.513 168.121 353.231C168.403 352.922 168.883 352.922 169.165 353.231L173.596 357.649C173.906 357.93 173.906 358.409 173.596 358.69C173.313 359 172.834 359 172.551 358.69Z" fill="white"/>
  </g>
  <path d="M168.77 354.582L168.29 354.103C168.092 353.907 168.092 353.597 168.29 353.4C168.487 353.231 168.798 353.231 168.995 353.4L169.475 353.878C169.673 354.075 169.673 354.385 169.475 354.582C169.278 354.779 168.967 354.779 168.77 354.582Z" fill="white"/>
  <path d="M180.256 360.21L178.026 358.015L175.825 355.82C175.035 355.032 175.035 353.766 175.825 352.978C176.615 352.19 177.885 352.19 178.675 352.978L180.877 355.173L183.078 357.396C183.868 358.156 183.868 359.422 183.078 360.21C182.288 360.998 181.018 360.998 180.256 360.21Z" fill="#B3E5FC"/>
  <path d="M180.369 355.173L182.57 357.396C183.36 358.156 183.36 359.422 182.57 360.21C181.78 360.998 180.51 360.998 179.748 360.21L177.519 358.015L180.369 355.173Z" fill="url(#paint52_linear_0_1)"/>
  <path d="M175.317 355.82C174.527 355.032 174.527 353.766 175.317 352.978C176.107 352.19 177.377 352.19 178.168 352.978L180.369 355.173L177.519 358.015L175.317 355.82Z" fill="#E1F5FE"/>
  <g style="mix-blend-mode:screen" opacity="0.5">
    <path d="M180.933 358.69L176.474 354.272C176.192 353.991 176.192 353.513 176.474 353.231C176.785 352.922 177.236 352.922 177.547 353.231L181.978 357.649C182.26 357.93 182.26 358.409 181.978 358.69C181.695 359 181.216 359 180.933 358.69Z" fill="white"/>
  </g>
  <path d="M177.151 354.582L176.672 354.103C176.474 353.907 176.474 353.597 176.672 353.4C176.869 353.231 177.18 353.231 177.349 353.4L177.857 353.878C178.026 354.075 178.026 354.385 177.857 354.582C177.659 354.779 177.349 354.779 177.151 354.582V354.582Z" fill="white"/>
  <path d="M188.61 360.21L186.408 358.015L184.207 355.82C183.417 355.032 183.417 353.766 184.207 352.978C184.997 352.19 186.267 352.19 187.029 352.978L189.259 355.173L191.46 357.396C192.25 358.156 192.25 359.422 191.46 360.21C190.67 360.998 189.4 360.998 188.61 360.21Z" fill="#B3E5FC"/>
  <path d="M188.751 355.173L190.952 357.396C191.742 358.156 191.742 359.422 190.952 360.21C190.162 360.998 188.892 360.998 188.102 360.21L185.9 358.015L188.751 355.173Z" fill="url(#paint53_linear_0_1)"/>
  <path d="M183.699 355.82C182.909 355.032 182.909 353.766 183.699 352.978C184.489 352.19 185.759 352.19 186.521 352.978L188.751 355.173L185.9 358.015L183.699 355.82Z" fill="#E1F5FE"/>
  <g style="mix-blend-mode:screen" opacity="0.5">
    <path d="M189.287 358.69L184.856 354.272C184.574 353.991 184.574 353.513 184.856 353.231C185.138 352.922 185.618 352.922 185.9 353.231L190.359 357.649C190.642 357.93 190.642 358.409 190.359 358.69C190.049 359 189.597 359 189.287 358.69Z" fill="white"/>
  </g>
  <path d="M185.533 354.582L185.053 354.103C184.856 353.907 184.856 353.597 185.053 353.4C185.223 353.231 185.533 353.231 185.731 353.4L186.211 353.878C186.408 354.075 186.408 354.385 186.211 354.582C186.041 354.779 185.731 354.779 185.533 354.582Z" fill="white"/>
  <path d="M235.401 297.712H246.267V306.66H235.401V297.712Z" fill="#E1F5FE"/>
  <path d="M233.454 290.79C233.454 289.383 234.583 288.229 236.022 288.229H245.646C247.085 288.229 248.214 289.383 248.214 290.79V299.091H233.454V290.79Z" fill="url(#paint54_linear_0_1)"/>
  <path style="mix-blend-mode:screen" opacity="0.6" d="M237.546 290.79V299.091H233.454V290.79C233.454 289.383 234.583 288.229 236.022 288.229H240.114C238.675 288.229 237.546 289.383 237.546 290.79Z" fill="url(#paint55_linear_0_1)"/>
  <path d="M237.32 299.091H244.348V306.66H237.32V299.091Z" fill="white"/>
  <path d="M249.71 308.349H231.958V304.015C231.958 302.693 233.03 301.623 234.357 301.623H247.311C248.637 301.623 249.71 302.693 249.71 304.015V308.349Z" fill="#E1F5FE"/>
  <path opacity="0.6" d="M243.077 301.623H247.31C248.637 301.623 249.709 302.693 249.709 304.015V308.349H245.476V304.015C245.476 302.693 244.404 301.623 243.077 301.623Z" fill="#81D4FA"/>
  <path d="M255.467 315.552C257.216 317.719 258.148 320.392 258.148 323.15V368.145C258.148 370.03 256.652 371.522 254.761 371.522H226.906C225.015 371.522 223.52 370.03 223.52 368.145V323.15C223.52 320.392 224.451 317.719 226.201 315.552L231.958 308.349H249.709L255.467 315.552Z" fill="#E1F5FE"/>
  <path d="M223.52 325.345H258.148V359.028H223.52V325.345Z" fill="url(#paint56_linear_0_1)"/>
  <g style="mix-blend-mode:screen" opacity="0.4">
    <path d="M234.159 371.522H226.906C225.015 371.522 223.52 370.03 223.52 368.145V323.15C223.52 320.392 224.451 317.719 226.201 315.552L231.958 308.349H233.962L233.369 309.08C231.45 311.5 230.377 314.483 230.377 317.578V367.779C230.377 369.833 232.071 371.522 234.159 371.522V371.522Z" fill="white"/>
  </g>
  <path style="mix-blend-mode:multiply" opacity="0.5" d="M250.98 327.343H250.951C249.439 327.343 248.214 328.565 248.214 330.072V353.456C248.214 354.964 249.439 356.186 250.951 356.186H250.98C252.492 356.186 253.717 354.964 253.717 353.456V330.072C253.717 328.565 252.492 327.343 250.98 327.343Z" fill="url(#paint57_linear_0_1)"/>
  <path d="M267.349 378.219H245.872C244.263 378.219 242.965 376.925 242.965 375.321V345.155H270.255V375.321C270.255 376.925 268.957 378.219 267.349 378.219V378.219Z" fill="#E1F5FE"/>
  <g style="mix-blend-mode:multiply" opacity="0.4">
    <path d="M270.255 349.067H242.965V345.155H270.255V349.067Z" fill="#4FC3F7"/>
  </g>
  <path style="mix-blend-mode:multiply" opacity="0.5" d="M267.8 371.044H242.965V356.833H267.8V371.044Z" fill="url(#paint58_linear_0_1)"/>
  <path d="M264.724 371.044H242.965V356.833H264.724V371.044Z" fill="white"/>
  <g style="mix-blend-mode:screen" opacity="0.4">
    <path d="M249.992 378.219H245.872C244.263 378.219 242.965 376.925 242.965 375.321V345.155H247.057V375.321C247.057 376.925 248.355 378.219 249.992 378.219V378.219Z" fill="white"/>
  </g>
  <path d="M270.198 335.447H243.021C242.288 335.447 241.694 336.039 241.694 336.77V344.817C241.694 345.548 242.288 346.14 243.021 346.14H270.198C270.931 346.14 271.525 345.548 271.525 344.817V336.77C271.525 336.039 270.931 335.447 270.198 335.447Z" fill="url(#paint59_linear_0_1)"/>
  <g style="mix-blend-mode:screen" opacity="0.2">
    <path d="M247.508 346.14H242.993C242.287 346.14 241.694 345.549 241.694 344.817V336.77C241.694 336.038 242.287 335.447 242.993 335.447H247.508C246.802 335.447 246.21 336.038 246.21 336.77V344.817C246.21 345.549 246.802 346.14 247.508 346.14Z" fill="white"/>
  </g>
  <g style="mix-blend-mode:multiply" opacity="0.5">
    <g style="mix-blend-mode:multiply" opacity="0.5">
      <path d="M245.505 346.14H244.319V338.739H245.505V346.14Z" fill="#C62828"/>
    </g>
    <g style="mix-blend-mode:multiply" opacity="0.5">
      <path d="M248.412 346.14H247.255V338.739H248.412V346.14Z" fill="#C62828"/>
    </g>
    <g style="mix-blend-mode:multiply" opacity="0.5">
      <path d="M251.346 346.14H250.161V338.739H251.346V346.14Z" fill="#C62828"/>
    </g>
    <g style="mix-blend-mode:multiply" opacity="0.5">
      <path d="M254.282 346.14H253.097V338.739H254.282V346.14Z" fill="#C62828"/>
    </g>
    <g style="mix-blend-mode:multiply" opacity="0.5">
      <path d="M257.188 346.14H256.031V338.739H257.188V346.14Z" fill="#C62828"/>
    </g>
    <g style="mix-blend-mode:multiply" opacity="0.5">
      <path d="M260.124 346.14H258.938V338.739H260.124V346.14Z" fill="#C62828"/>
    </g>
    <g style="mix-blend-mode:multiply" opacity="0.5">
      <path d="M263.058 346.14H261.873V338.739H263.058V346.14Z" fill="#C62828"/>
    </g>
    <g style="mix-blend-mode:multiply" opacity="0.5">
      <path d="M265.966 346.14H264.809V338.739H265.966V346.14Z" fill="#C62828"/>
    </g>
    <g style="mix-blend-mode:multiply" opacity="0.5">
      <path d="M268.9 346.14H267.715V338.739H268.9V346.14Z" fill="#C62828"/>
    </g>
  </g>
  <path d="M200.491 329.706H187.283V324.444H200.491V329.706Z" fill="#81D4FA"/>
  <path d="M200.999 318.817H186.804C186.165 318.817 185.646 319.333 185.646 319.97V323.797C185.646 324.434 186.165 324.951 186.804 324.951H200.999C201.638 324.951 202.156 324.434 202.156 323.797V319.97C202.156 319.333 201.638 318.817 200.999 318.817Z" fill="url(#paint60_linear_0_1)"/>
  <g style="mix-blend-mode:screen" opacity="0.4">
    <path d="M190.444 324.951H186.804C186.154 324.951 185.646 324.444 185.646 323.797V319.942C185.646 319.323 186.154 318.817 186.804 318.817H190.444C189.795 318.817 189.287 319.323 189.287 319.942V323.797C189.287 324.444 189.795 324.951 190.444 324.951Z" fill="white"/>
  </g>
  <path d="M199.615 324.951H197.979V318.817H199.615V324.951Z" fill="#8C9EFF"/>
  <path d="M205.994 371.522H181.808C179.973 371.522 178.506 370.059 178.506 368.23V335.982C178.506 330.973 182.57 326.893 187.622 326.893H200.18C205.204 326.893 209.296 330.973 209.296 335.982V368.23C209.296 370.059 207.828 371.522 205.994 371.522V371.522Z" fill="#E1F5FE"/>
  <path d="M209.296 359.028H178.506V339.387H209.296V359.028Z" fill="url(#paint61_linear_0_1)"/>
  <g style="mix-blend-mode:screen" opacity="0.4">
    <path d="M188.948 371.522H181.808C179.973 371.522 178.506 370.059 178.506 368.23V335.982C178.506 331.142 182.316 327.174 187.114 326.893C186.182 328.328 185.646 330.016 185.646 331.845V368.23C185.646 370.059 187.114 371.522 188.948 371.522V371.522Z" fill="white"/>
  </g>
  <path style="mix-blend-mode:multiply" opacity="0.6" d="M200.603 344.93C200.603 343.687 199.593 342.679 198.346 342.679C197.099 342.679 196.088 343.687 196.088 344.93V362.799C196.088 364.042 197.099 365.05 198.346 365.05C199.593 365.05 200.603 364.042 200.603 362.799V344.93Z" fill="url(#paint62_linear_0_1)"/>
  <path d="M214.094 306.097H224.705V314.849H214.094V306.097Z" fill="#E1F5FE"/>
  <path d="M215.956 307.448H222.842V314.849H215.956V307.448Z" fill="white"/>
  <path d="M228.064 316.481H210.735V312.232C210.735 310.966 211.78 309.896 213.078 309.896H225.721C227.019 309.896 228.064 310.966 228.064 312.232V316.481Z" fill="#E1F5FE"/>
  <path opacity="0.6" d="M221.601 309.896H225.721C227.019 309.896 228.063 310.966 228.063 312.232V316.481H223.943V312.232C223.943 310.966 222.899 309.896 221.601 309.896Z" fill="#81D4FA"/>
  <path d="M233.708 323.516C235.401 325.626 236.304 328.243 236.304 330.945V374.899C236.304 376.7 234.836 378.191 233.002 378.191H205.796C203.962 378.191 202.494 376.7 202.494 374.899V330.945C202.494 328.243 203.397 325.626 205.091 323.516L210.735 316.481H228.063L233.708 323.516Z" fill="url(#paint63_linear_0_1)"/>
  <path d="M202.494 333.083H236.304V358.831H202.494V333.083Z" fill="url(#paint64_linear_0_1)"/>
  <g style="mix-blend-mode:screen" opacity="0.4">
    <path d="M212.88 378.191H205.796C203.962 378.191 202.494 376.7 202.494 374.899V330.945C202.494 328.243 203.397 325.626 205.091 323.516L210.735 316.481H212.682L212.118 317.184C210.227 319.548 209.183 322.475 209.183 325.486V374.505C209.183 376.531 210.848 378.191 212.88 378.191Z" fill="white"/>
  </g>
  <path style="mix-blend-mode:multiply" opacity="0.5" d="M230.998 372.366C229.503 372.366 228.317 371.156 228.317 369.693V346.872C228.317 345.408 229.503 344.198 230.998 344.198C232.466 344.198 233.68 345.408 233.68 346.872V369.693C233.68 371.156 232.466 372.366 230.998 372.366Z" fill="url(#paint65_linear_0_1)"/>
  <path d="M222.645 309.671H216.154V295.236C216.154 293.435 217.594 291.971 219.4 291.971C221.206 291.971 222.645 293.435 222.645 295.236V309.671Z" fill="white"/>
  <path d="M216.154 299.288H222.645V304.578C222.645 305.732 221.714 306.66 220.557 306.66H218.243C217.086 306.66 216.154 305.732 216.154 304.578V299.288Z" fill="#E1F5FE"/>
  <path d="M227.415 300.835H211.385C210.122 300.835 209.099 301.856 209.099 303.115V309.39C209.099 310.649 210.122 311.669 211.385 311.669H227.415C228.677 311.669 229.701 310.649 229.701 309.39V303.115C229.701 301.856 228.677 300.835 227.415 300.835Z" fill="white"/>
  <path d="M229.7 303.115V309.39C229.7 310.656 228.684 311.669 227.414 311.669H224.846C226.116 311.669 227.132 310.656 227.132 309.39V303.115C227.132 301.848 226.116 300.835 224.846 300.835H227.414C228.684 300.835 229.7 301.848 229.7 303.115Z" fill="#E1F5FE"/>
  <path fill-rule="evenodd" clip-rule="evenodd" d="M225.41 345.971C225.41 349.263 222.701 351.937 219.399 351.937C216.097 351.937 213.388 349.263 213.388 345.971C213.388 342.651 216.097 339.977 219.399 339.977C222.701 339.977 225.41 342.651 225.41 345.971ZM222.616 344.733H220.612V342.735H218.185V344.733H216.182V347.181H218.185V349.179H220.612V347.181H222.616V344.733Z" fill="white"/>
  <path d="M234.216 380.47C234.141 380.395 234.075 380.33 234.019 380.273C232.89 379.148 232.89 377.347 234.019 376.221C235.063 375.18 236.728 375.124 237.857 376.024C237.932 376.08 237.998 376.146 238.054 376.221C238.13 376.296 238.195 376.371 238.252 376.446C239.183 377.572 239.127 379.204 238.054 380.273C237.01 381.314 235.345 381.371 234.216 380.47Z" fill="#B3E5FC"/>
  <path d="M233.736 375.94C234.837 374.814 236.671 374.814 237.772 375.94C238.901 377.065 238.901 378.866 237.772 379.992C236.671 381.089 234.837 381.089 233.736 379.992C232.607 378.866 232.607 377.065 233.736 375.94Z" fill="#DEF6FF"/>
  <path d="M237.771 375.94C237.847 376.015 237.912 376.08 237.969 376.137L233.933 380.161C233.858 380.104 233.792 380.048 233.736 379.992C233.66 379.917 233.595 379.842 233.538 379.767L237.574 375.743C237.649 375.799 237.715 375.865 237.771 375.94V375.94Z" fill="#81D4FA"/>
  <path d="M225.636 380.47C225.561 380.395 225.495 380.33 225.438 380.273C224.31 379.148 224.31 377.347 225.438 376.221C226.483 375.18 228.148 375.124 229.277 376.024C229.352 376.08 229.418 376.146 229.474 376.221C229.549 376.296 229.615 376.371 229.672 376.446C230.603 377.572 230.547 379.204 229.474 380.273C228.43 381.314 226.765 381.371 225.636 380.47Z" fill="#B3E5FC"/>
  <path d="M225.156 375.94C226.257 374.814 228.091 374.814 229.192 375.94C230.321 377.065 230.321 378.866 229.192 379.992C228.091 381.089 226.257 381.089 225.156 379.992C224.027 378.866 224.027 377.065 225.156 375.94Z" fill="#DEF6FF"/>
  <path d="M229.192 375.94C229.268 376.015 229.333 376.08 229.39 376.137L225.354 380.161C225.279 380.104 225.213 380.048 225.157 379.992C225.081 379.917 225.015 379.842 224.959 379.767L228.995 375.743C229.07 375.799 229.136 375.865 229.192 375.94V375.94Z" fill="#81D4FA"/>
  <path d="M165.693 369.777H168.798C169.927 369.777 170.83 370.678 170.83 371.775C170.83 372.873 169.927 373.773 168.798 373.773H165.693V369.777Z" fill="url(#paint66_linear_0_1)"/>
  <path d="M162.56 373.773C161.46 373.773 160.557 372.873 160.557 371.775C160.557 370.678 161.46 369.777 162.56 369.777H165.693V373.773H162.56Z" fill="#E1F5FE"/>
  <g style="mix-blend-mode:screen" opacity="0.5">
    <path d="M168.572 371.86H162.307C161.884 371.86 161.545 371.55 161.545 371.128C161.545 370.706 161.884 370.396 162.307 370.396H168.572C168.995 370.396 169.334 370.706 169.334 371.128C169.334 371.55 168.995 371.86 168.572 371.86Z" fill="white"/>
  </g>
  <path d="M162.984 371.606H162.307C162.025 371.606 161.827 371.409 161.827 371.128C161.827 370.847 162.025 370.65 162.307 370.65H162.984C163.266 370.65 163.492 370.847 163.492 371.128C163.492 371.409 163.266 371.606 162.984 371.606Z" fill="white"/>
  <path d="M160.218 371.184L158.017 373.379C157.226 374.167 155.956 374.167 155.166 373.379C154.404 372.619 154.404 371.353 155.166 370.565L157.396 368.37L160.218 371.184Z" fill="url(#paint67_linear_0_1)"/>
  <path d="M160.218 371.184L157.396 368.37L159.597 366.147C160.387 365.387 161.657 365.387 162.419 366.147C163.209 366.935 163.209 368.201 162.419 368.989L160.218 371.184Z" fill="#E1F5FE"/>
  <g style="mix-blend-mode:screen" opacity="0.5">
    <path d="M155.788 371.888C155.477 371.578 155.477 371.128 155.788 370.818L160.218 366.4C160.501 366.119 160.98 366.119 161.263 366.4C161.573 366.682 161.573 367.16 161.263 367.442L156.832 371.888C156.55 372.169 156.07 372.169 155.788 371.888Z" fill="white"/>
  </g>
  <path d="M159.908 367.751C159.71 367.582 159.71 367.273 159.908 367.076L160.388 366.597C160.585 366.4 160.896 366.4 161.093 366.597C161.263 366.766 161.263 367.076 161.093 367.273L160.613 367.751C160.416 367.948 160.105 367.948 159.908 367.751Z" fill="white"/>
  <circle cx="110" cy="314" r="9" fill="url(#paint68_linear_0_1)"/>
  <path fill-rule="evenodd" clip-rule="evenodd" d="M106.704 314.845C107.324 315.769 108.373 316.788 110 317.857C111.627 316.788 112.676 315.769 113.296 314.845H112.02C111.97 314.845 111.921 314.83 111.879 314.802C111.837 314.774 111.805 314.734 111.786 314.687L111.05 312.859L110.243 315.667C110.228 315.717 110.199 315.762 110.157 315.794C110.116 315.827 110.066 315.846 110.013 315.849C109.96 315.851 109.908 315.838 109.864 315.809C109.82 315.781 109.785 315.74 109.766 315.691L108.934 313.624L108.19 314.734C108.166 314.768 108.135 314.796 108.099 314.815C108.062 314.835 108.021 314.845 107.979 314.845H106.704ZM106.403 314.343C104.734 311.17 108.187 309.323 109.911 310.901C109.941 310.928 109.971 310.957 110 310.986C110.028 310.957 110.058 310.928 110.089 310.901C111.813 309.323 115.266 311.17 113.596 314.343H112.191L111.244 311.99C111.224 311.942 111.19 311.901 111.146 311.872C111.101 311.844 111.049 311.83 110.997 311.833C110.944 311.836 110.893 311.855 110.852 311.887C110.811 311.92 110.781 311.965 110.767 312.015L109.96 314.823L109.224 312.994C109.207 312.952 109.178 312.915 109.142 312.888C109.105 312.86 109.061 312.843 109.016 312.838C108.97 312.834 108.924 312.841 108.882 312.861C108.841 312.88 108.805 312.911 108.78 312.949L107.844 314.343H106.403H106.403Z" fill="#F7F9FE"/>
  <circle cx="300" cy="268" r="7" fill="url(#paint69_linear_0_1)"/>
  <path fill-rule="evenodd" clip-rule="evenodd" d="M297.437 268.657C297.919 269.376 298.735 270.169 300 271C301.266 270.169 302.082 269.376 302.564 268.657H301.572C301.533 268.657 301.494 268.645 301.462 268.624C301.429 268.602 301.404 268.571 301.39 268.535L300.817 267.112L300.189 269.296C300.178 269.336 300.155 269.37 300.123 269.396C300.091 269.421 300.052 269.436 300.011 269.438C299.97 269.44 299.929 269.429 299.895 269.407C299.86 269.385 299.833 269.353 299.818 269.316L299.171 267.708L298.592 268.571C298.574 268.597 298.55 268.619 298.522 268.634C298.493 268.649 298.461 268.657 298.429 268.657H297.437ZM297.203 268.267C295.904 265.799 298.59 264.362 299.931 265.589C299.955 265.611 299.978 265.633 300 265.656C300.023 265.633 300.046 265.611 300.07 265.59C301.411 264.362 304.096 265.799 302.798 268.267H301.704L300.968 266.437C300.953 266.399 300.926 266.367 300.892 266.345C300.857 266.323 300.816 266.313 300.776 266.315C300.735 266.317 300.695 266.332 300.663 266.357C300.631 266.382 300.608 266.417 300.597 266.456L299.969 268.64L299.397 267.218C299.384 267.185 299.361 267.156 299.333 267.135C299.304 267.113 299.27 267.1 299.235 267.096C299.199 267.093 299.163 267.099 299.131 267.114C299.099 267.129 299.071 267.153 299.051 267.182L298.324 268.267H297.203H297.203Z" fill="#F7F9FE"/>
  <path d="M312.168 222V229.526H305V235.474H312.168V243H317.832V235.474H325V229.526H317.832V222H312.168Z" fill="#F7F9FE"/>
  <path d="M99.6943 40.0527H100.694V39.0527V25H110.306V39.0527V40.0527H111.306H125V49.9473H111.306H110.306V50.9473V65H100.694V50.9473V49.9473H99.6943H86V40.0527H99.6943Z" stroke="white" stroke-width="2"/>
  <path d="M356.168 66V73.168H349V78.832H356.168V86H361.832V78.832H369V73.168H361.832V66H356.168Z" fill="#C5D9FE"/>
  <defs>
    <linearGradient id="paint0_linear_0_1" x1="218" y1="-46.7226" x2="218" y2="426" gradientUnits="userSpaceOnUse">
      <stop stop-color="#DFEAFF"/>
      <stop offset="1" stop-color="white" stop-opacity="0.31"/>
    </linearGradient>
    <linearGradient id="paint1_linear_0_1" x1="1890.98" y1="23995.9" x2="14117.4" y2="35190.4" gradientUnits="userSpaceOnUse">
      <stop stop-color="#5BD4F4"/>
      <stop offset="1" stop-color="#DCF5FC"/>
    </linearGradient>
    <linearGradient id="paint2_linear_0_1" x1="3041.51" y1="21285.5" x2="13136.9" y2="21285.5" gradientUnits="userSpaceOnUse">
      <stop stop-color="#5BD4F4"/>
      <stop offset="1" stop-color="#DCF5FC"/>
    </linearGradient>
    <linearGradient id="paint3_linear_0_1" x1="3131.3" y1="24753.3" x2="16765.9" y2="24753.3" gradientUnits="userSpaceOnUse">
      <stop stop-color="#9FE5F7"/>
      <stop offset="1" stop-color="#5BD4F4"/>
    </linearGradient>
    <linearGradient id="paint4_linear_0_1" x1="8727.58" y1="38535.9" x2="16475.9" y2="28108.8" gradientUnits="userSpaceOnUse">
      <stop stop-color="#5BD4F4"/>
      <stop offset="1" stop-color="#9FE5F7"/>
    </linearGradient>
    <linearGradient id="paint5_linear_0_1" x1="29497" y1="25120.5" x2="17210.7" y2="36640.9" gradientUnits="userSpaceOnUse">
      <stop stop-color="#80A1D4"/>
      <stop offset="1" stop-color="#426BB8"/>
    </linearGradient>
    <linearGradient id="paint6_linear_0_1" x1="31855.7" y1="27701.8" x2="16718.7" y2="40851.9" gradientUnits="userSpaceOnUse">
      <stop stop-color="#80A1D4"/>
      <stop offset="1" stop-color="#426BB8"/>
    </linearGradient>
    <linearGradient id="paint7_linear_0_1" x1="165.699" y1="13870.1" x2="9798.44" y2="18126.8" gradientUnits="userSpaceOnUse">
      <stop stop-color="#80A1D4"/>
      <stop offset="1" stop-color="#426BB8"/>
    </linearGradient>
    <linearGradient id="paint8_linear_0_1" x1="3844.75" y1="17401.3" x2="1847.23" y2="15386.9" gradientUnits="userSpaceOnUse">
      <stop stop-color="#00A4E0"/>
      <stop offset="1" stop-color="#5BD4F4"/>
    </linearGradient>
    <linearGradient id="paint9_linear_0_1" x1="3923.92" y1="18368.6" x2="1556.05" y2="16517.5" gradientUnits="userSpaceOnUse">
      <stop stop-color="#5BD4F4"/>
      <stop offset="1" stop-color="#00A4E0"/>
    </linearGradient>
    <linearGradient id="paint10_linear_0_1" x1="25223.5" y1="19235.5" x2="20985.5" y2="22439.4" gradientUnits="userSpaceOnUse">
      <stop stop-color="#5BD4F4"/>
      <stop offset="1" stop-color="#DCF5FC"/>
    </linearGradient>
    <linearGradient id="paint11_linear_0_1" x1="25970.9" y1="20496.1" x2="21816" y2="24991.9" gradientUnits="userSpaceOnUse">
      <stop stop-color="#DCF5FC"/>
      <stop offset="1" stop-color="#5BD4F4"/>
    </linearGradient>
    <linearGradient id="paint12_linear_0_1" x1="12816.9" y1="42165.2" x2="24597" y2="18166.8" gradientUnits="userSpaceOnUse">
      <stop stop-color="#426BB8"/>
      <stop offset="1" stop-color="#80A1D4"/>
    </linearGradient>
    <linearGradient id="paint13_linear_0_1" x1="5810.08" y1="3373.73" x2="6011.79" y2="1844.75" gradientUnits="userSpaceOnUse">
      <stop stop-color="#426BB8"/>
      <stop offset="1" stop-color="#80A1D4"/>
    </linearGradient>
    <linearGradient id="paint14_linear_0_1" x1="5863.2" y1="2951.83" x2="5987.6" y2="1835.4" gradientUnits="userSpaceOnUse">
      <stop stop-color="#426BB8"/>
      <stop offset="1" stop-color="#80A1D4"/>
    </linearGradient>
    <linearGradient id="paint15_linear_0_1" x1="5439" y1="3252.2" x2="5592.17" y2="1973.51" gradientUnits="userSpaceOnUse">
      <stop stop-color="#426BB8"/>
      <stop offset="1" stop-color="#80A1D4"/>
    </linearGradient>
    <linearGradient id="paint16_linear_0_1" x1="4887.91" y1="3802.44" x2="5128.78" y2="2089.26" gradientUnits="userSpaceOnUse">
      <stop stop-color="#426BB8"/>
      <stop offset="1" stop-color="#80A1D4"/>
    </linearGradient>
    <linearGradient id="paint17_linear_0_1" x1="4857.28" y1="3318.51" x2="5001.04" y2="2092.32" gradientUnits="userSpaceOnUse">
      <stop stop-color="#426BB8"/>
      <stop offset="1" stop-color="#80A1D4"/>
    </linearGradient>
    <linearGradient id="paint18_linear_0_1" x1="4815.06" y1="3290.57" x2="4938.98" y2="2176.38" gradientUnits="userSpaceOnUse">
      <stop stop-color="#426BB8"/>
      <stop offset="1" stop-color="#80A1D4"/>
    </linearGradient>
    <linearGradient id="paint19_linear_0_1" x1="5345.45" y1="4505.4" x2="5784.69" y2="2194.63" gradientUnits="userSpaceOnUse">
      <stop stop-color="#426BB8"/>
      <stop offset="1" stop-color="#80A1D4"/>
    </linearGradient>
    <linearGradient id="paint20_linear_0_1" x1="4030.88" y1="5966.45" x2="4992.04" y2="2719.47" gradientUnits="userSpaceOnUse">
      <stop stop-color="#426BB8"/>
      <stop offset="1" stop-color="#80A1D4"/>
    </linearGradient>
    <linearGradient id="paint21_linear_0_1" x1="3069.78" y1="7062.69" x2="4691.07" y2="3434.11" gradientUnits="userSpaceOnUse">
      <stop stop-color="#426BB8"/>
      <stop offset="1" stop-color="#80A1D4"/>
    </linearGradient>
    <linearGradient id="paint22_linear_0_1" x1="2360.11" y1="7696.7" x2="4575.37" y2="4043.61" gradientUnits="userSpaceOnUse">
      <stop stop-color="#426BB8"/>
      <stop offset="1" stop-color="#80A1D4"/>
    </linearGradient>
    <linearGradient id="paint23_linear_0_1" x1="2155.51" y1="7715.64" x2="4438.99" y2="4029.06" gradientUnits="userSpaceOnUse">
      <stop stop-color="#426BB8"/>
      <stop offset="1" stop-color="#80A1D4"/>
    </linearGradient>
    <linearGradient id="paint24_linear_0_1" x1="2004.65" y1="7665.53" x2="4287.68" y2="3975.93" gradientUnits="userSpaceOnUse">
      <stop stop-color="#426BB8"/>
      <stop offset="1" stop-color="#80A1D4"/>
    </linearGradient>
    <linearGradient id="paint25_linear_0_1" x1="2340.31" y1="7049.5" x2="3946.49" y2="3422.95" gradientUnits="userSpaceOnUse">
      <stop stop-color="#426BB8"/>
      <stop offset="1" stop-color="#80A1D4"/>
    </linearGradient>
    <linearGradient id="paint26_linear_0_1" x1="3078.27" y1="5999.26" x2="3908.71" y2="2911.48" gradientUnits="userSpaceOnUse">
      <stop stop-color="#426BB8"/>
      <stop offset="1" stop-color="#80A1D4"/>
    </linearGradient>
    <linearGradient id="paint27_linear_0_1" x1="2530.27" y1="7957.23" x2="4939.6" y2="4140.8" gradientUnits="userSpaceOnUse">
      <stop stop-color="#426BB8"/>
      <stop offset="1" stop-color="#80A1D4"/>
    </linearGradient>
    <linearGradient id="paint28_linear_0_1" x1="22731.7" y1="39483" x2="3589.08" y2="27348.7" gradientUnits="userSpaceOnUse">
      <stop stop-color="#98B1DC"/>
      <stop offset="1" stop-color="#80A1D4"/>
    </linearGradient>
    <linearGradient id="paint29_linear_0_1" x1="2117.3" y1="6906.62" x2="889.71" y2="6548.2" gradientUnits="userSpaceOnUse">
      <stop stop-color="#98B1DC"/>
      <stop offset="1" stop-color="#80A1D4"/>
    </linearGradient>
    <linearGradient id="paint30_linear_0_1" x1="2672.13" y1="6894.71" x2="945.836" y2="6276.21" gradientUnits="userSpaceOnUse">
      <stop stop-color="#98B1DC"/>
      <stop offset="1" stop-color="#80A1D4"/>
    </linearGradient>
    <linearGradient id="paint31_linear_0_1" x1="3536.53" y1="6798.04" x2="1177.71" y2="5611.64" gradientUnits="userSpaceOnUse">
      <stop stop-color="#98B1DC"/>
      <stop offset="1" stop-color="#80A1D4"/>
    </linearGradient>
    <linearGradient id="paint32_linear_0_1" x1="4066.75" y1="6549.77" x2="1495.32" y2="4903.96" gradientUnits="userSpaceOnUse">
      <stop stop-color="#98B1DC"/>
      <stop offset="1" stop-color="#80A1D4"/>
    </linearGradient>
    <linearGradient id="paint33_linear_0_1" x1="3315" y1="7443.04" x2="1034.1" y2="6356.96" gradientUnits="userSpaceOnUse">
      <stop stop-color="#98B1DC"/>
      <stop offset="1" stop-color="#80A1D4"/>
    </linearGradient>
    <linearGradient id="paint34_linear_0_1" x1="2633.23" y1="7933.53" x2="1013.16" y2="7374.89" gradientUnits="userSpaceOnUse">
      <stop stop-color="#98B1DC"/>
      <stop offset="1" stop-color="#80A1D4"/>
    </linearGradient>
    <linearGradient id="paint35_linear_0_1" x1="2117.87" y1="6788.86" x2="771.124" y2="6373.05" gradientUnits="userSpaceOnUse">
      <stop stop-color="#98B1DC"/>
      <stop offset="1" stop-color="#80A1D4"/>
    </linearGradient>
    <linearGradient id="paint36_linear_0_1" x1="4801.23" y1="3727.41" x2="3365.17" y2="1802.03" gradientUnits="userSpaceOnUse">
      <stop stop-color="#98B1DC"/>
      <stop offset="1" stop-color="#80A1D4"/>
    </linearGradient>
    <linearGradient id="paint37_linear_0_1" x1="4911.93" y1="3205.81" x2="3902.52" y2="1547.99" gradientUnits="userSpaceOnUse">
      <stop stop-color="#98B1DC"/>
      <stop offset="1" stop-color="#80A1D4"/>
    </linearGradient>
    <linearGradient id="paint38_linear_0_1" x1="4798.78" y1="3422.45" x2="3746.83" y2="1757.48" gradientUnits="userSpaceOnUse">
      <stop stop-color="#98B1DC"/>
      <stop offset="1" stop-color="#80A1D4"/>
    </linearGradient>
    <linearGradient id="paint39_linear_0_1" x1="4641.33" y1="3683.1" x2="3544.42" y2="1994.97" gradientUnits="userSpaceOnUse">
      <stop stop-color="#98B1DC"/>
      <stop offset="1" stop-color="#80A1D4"/>
    </linearGradient>
    <linearGradient id="paint40_linear_0_1" x1="4516.21" y1="3848.95" x2="3420.2" y2="2158.82" gradientUnits="userSpaceOnUse">
      <stop stop-color="#98B1DC"/>
      <stop offset="1" stop-color="#80A1D4"/>
    </linearGradient>
    <linearGradient id="paint41_linear_0_1" x1="4332.07" y1="3897.47" x2="3321.97" y2="2240.19" gradientUnits="userSpaceOnUse">
      <stop stop-color="#98B1DC"/>
      <stop offset="1" stop-color="#80A1D4"/>
    </linearGradient>
    <linearGradient id="paint42_linear_0_1" x1="4522.34" y1="5099.96" x2="2749.47" y2="2970.84" gradientUnits="userSpaceOnUse">
      <stop stop-color="#98B1DC"/>
      <stop offset="1" stop-color="#80A1D4"/>
    </linearGradient>
    <linearGradient id="paint43_linear_0_1" x1="4766.42" y1="3444.53" x2="3477.01" y2="1635.93" gradientUnits="userSpaceOnUse">
      <stop stop-color="#98B1DC"/>
      <stop offset="1" stop-color="#80A1D4"/>
    </linearGradient>
    <linearGradient id="paint44_linear_0_1" x1="18537.8" y1="10834.2" x2="17234.7" y2="12404.7" gradientUnits="userSpaceOnUse">
      <stop stop-color="#426BB8"/>
      <stop offset="1" stop-color="#80A1D4"/>
    </linearGradient>
    <linearGradient id="paint45_linear_0_1" x1="512.511" y1="3563.36" x2="582.861" y2="3633.35" gradientUnits="userSpaceOnUse">
      <stop stop-color="#5D5BAF"/>
      <stop offset="1" stop-color="#1E47A5"/>
    </linearGradient>
    <linearGradient id="paint46_linear_0_1" x1="686.552" y1="3563.36" x2="756.338" y2="3633.08" gradientUnits="userSpaceOnUse">
      <stop stop-color="#5D5BAF"/>
      <stop offset="1" stop-color="#1E47A5"/>
    </linearGradient>
    <linearGradient id="paint47_linear_0_1" x1="861.074" y1="3563.36" x2="930.86" y2="3633" gradientUnits="userSpaceOnUse">
      <stop stop-color="#5D5BAF"/>
      <stop offset="1" stop-color="#1E47A5"/>
    </linearGradient>
    <linearGradient id="paint48_linear_0_1" x1="1040.54" y1="3563.36" x2="1110.33" y2="3633.35" gradientUnits="userSpaceOnUse">
      <stop stop-color="#5D5BAF"/>
      <stop offset="1" stop-color="#1E47A5"/>
    </linearGradient>
    <linearGradient id="paint49_linear_0_1" x1="1216" y1="3563.36" x2="1286.35" y2="3633.35" gradientUnits="userSpaceOnUse">
      <stop stop-color="#5D5BAF"/>
      <stop offset="1" stop-color="#1E47A5"/>
    </linearGradient>
    <linearGradient id="paint50_linear_0_1" x1="686.552" y1="3841.11" x2="756.339" y2="3910.84" gradientUnits="userSpaceOnUse">
      <stop stop-color="#5D5BAF"/>
      <stop offset="1" stop-color="#1E47A5"/>
    </linearGradient>
    <linearGradient id="paint51_linear_0_1" x1="861.074" y1="3841.11" x2="930.86" y2="3910.75" gradientUnits="userSpaceOnUse">
      <stop stop-color="#5D5BAF"/>
      <stop offset="1" stop-color="#1E47A5"/>
    </linearGradient>
    <linearGradient id="paint52_linear_0_1" x1="1040.54" y1="3841.11" x2="1110.33" y2="3911.1" gradientUnits="userSpaceOnUse">
      <stop stop-color="#5D5BAF"/>
      <stop offset="1" stop-color="#1E47A5"/>
    </linearGradient>
    <linearGradient id="paint53_linear_0_1" x1="1216" y1="3841.11" x2="1286.35" y2="3911.1" gradientUnits="userSpaceOnUse">
      <stop stop-color="#5D5BAF"/>
      <stop offset="1" stop-color="#1E47A5"/>
    </linearGradient>
    <linearGradient id="paint54_linear_0_1" x1="5434.89" y1="4289.74" x2="6206.84" y2="4289.74" gradientUnits="userSpaceOnUse">
      <stop stop-color="#5BD4F4"/>
      <stop offset="1" stop-color="#00A4E0"/>
    </linearGradient>
    <linearGradient id="paint55_linear_0_1" x1="2580.57" y1="4289.74" x2="2737.75" y2="4289.74" gradientUnits="userSpaceOnUse">
      <stop stop-color="#5BD4F4"/>
      <stop offset="1" stop-color="#00A4E0"/>
    </linearGradient>
    <linearGradient id="paint56_linear_0_1" x1="11207.6" y1="17177" x2="15456.5" y2="17177" gradientUnits="userSpaceOnUse">
      <stop stop-color="#5BD4F4"/>
      <stop offset="1" stop-color="#00A4E0"/>
    </linearGradient>
    <linearGradient id="paint57_linear_0_1" x1="2464.38" y1="17976.4" x2="2464.38" y2="15020" gradientUnits="userSpaceOnUse">
      <stop stop-color="#DCF5FC"/>
      <stop offset="1" stop-color="#00A4E0"/>
    </linearGradient>
    <linearGradient id="paint58_linear_0_1" x1="9831.85" y1="9056.49" x2="12017.3" y2="9056.49" gradientUnits="userSpaceOnUse">
      <stop stop-color="#DCF5FC"/>
      <stop offset="1" stop-color="#00A4E0"/>
    </linearGradient>
    <linearGradient id="paint59_linear_0_1" x1="11625" y1="6069.05" x2="14778.1" y2="6069.05" gradientUnits="userSpaceOnUse">
      <stop stop-color="#FF6E74"/>
      <stop offset="1" stop-color="#FF4839"/>
    </linearGradient>
    <linearGradient id="paint60_linear_0_1" x1="3206.94" y1="3245.55" x2="4172.76" y2="3245.55" gradientUnits="userSpaceOnUse">
      <stop stop-color="#5D5BAF"/>
      <stop offset="1" stop-color="#1E47A5"/>
    </linearGradient>
    <linearGradient id="paint61_linear_0_1" x1="5034.1" y1="11146.1" x2="8393.29" y2="11146.1" gradientUnits="userSpaceOnUse">
      <stop stop-color="#FF6E74"/>
      <stop offset="1" stop-color="#FF4839"/>
    </linearGradient>
    <linearGradient id="paint62_linear_0_1" x1="1180.47" y1="14736.1" x2="1180.47" y2="12957.6" gradientUnits="userSpaceOnUse">
      <stop stop-color="white"/>
      <stop offset="1" stop-color="#FF4839"/>
    </linearGradient>
    <linearGradient id="paint63_linear_0_1" x1="8340.51" y1="42902.5" x2="8340.51" y2="29369.5" gradientUnits="userSpaceOnUse">
      <stop stop-color="#23C7F2"/>
      <stop offset="1" stop-color="#9FE5F7"/>
    </linearGradient>
    <linearGradient id="paint64_linear_0_1" x1="8408.13" y1="13922.7" x2="12458.5" y2="13922.7" gradientUnits="userSpaceOnUse">
      <stop stop-color="#80A1D4"/>
      <stop offset="1" stop-color="#426BB8"/>
    </linearGradient>
    <linearGradient id="paint65_linear_0_1" x1="2009.62" y1="19199.6" x2="2009.62" y2="16380" gradientUnits="userSpaceOnUse">
      <stop stop-color="white"/>
      <stop offset="1" stop-color="#1E47A5"/>
    </linearGradient>
    <linearGradient id="paint66_linear_0_1" x1="742.508" y1="3072.54" x2="835.99" y2="3072.54" gradientUnits="userSpaceOnUse">
      <stop stop-color="#5D5BAF"/>
      <stop offset="1" stop-color="#1E47A5"/>
    </linearGradient>
    <linearGradient id="paint67_linear_0_1" x1="684.863" y1="4098.92" x2="615.429" y2="4169.21" gradientUnits="userSpaceOnUse">
      <stop stop-color="#5D5BAF"/>
      <stop offset="1" stop-color="#1E47A5"/>
    </linearGradient>
    <linearGradient id="paint68_linear_0_1" x1="112.755" y1="316.02" x2="110" y2="323" gradientUnits="userSpaceOnUse">
      <stop stop-color="#5D93FF"/>
      <stop offset="1" stop-color="#877EFF"/>
    </linearGradient>
    <linearGradient id="paint69_linear_0_1" x1="302.143" y1="269.571" x2="300" y2="275" gradientUnits="userSpaceOnUse">
      <stop stop-color="#5D93FF"/>
      <stop offset="1" stop-color="#877EFF"/>
    </linearGradient>
  </defs>
</svg>
