<svg width="768" height="353" viewBox="0 0 768 353" fill="none" xmlns="http://www.w3.org/2000/svg">
  <path d="M770 353V0H329.656V99.7492C329.656 117.399 310.674 122.748 302.385 122.748V142.537V179.977H158.01V0H123.253V25.1379V239.345C116.302 259.134 100.805 249.759 98.9236 239.345V122.748V0H0V353H770Z" fill="url(#paint0_linear_0_1)"/>
  <path d="M122 0H302V209C302 242.137 275.137 269 242 269H182C148.863 269 122 242.137 122 209V0Z" fill="#DDE9FF"/>
  <path d="M211.537 272.903C267.571 272.903 312.996 266.406 312.996 258.392C312.996 250.377 267.571 243.88 211.537 243.88C155.502 243.88 110.077 250.377 110.077 258.392C110.077 266.406 155.502 272.903 211.537 272.903Z" fill="#588FF4"/>
  <path d="M117.498 146.108C122.227 156.883 127.538 163.667 140.635 165.372C157.696 167.585 156.568 183.475 165.881 192.835C174.212 201.252 180.615 202.413 183.816 220.299C158.788 189.897 135.978 180.863 130.594 177.852C116.589 170.088 102.619 149.881 117.498 146.108V146.108Z" fill="url(#paint1_linear_0_1)"/>
  <path d="M117.498 146.108C122.227 156.883 127.538 163.667 140.635 165.372C157.696 167.585 156.568 183.475 165.881 192.835C174.212 201.252 180.615 202.413 183.816 220.299C158.788 189.897 135.978 180.863 130.594 177.852C116.589 170.088 102.619 149.881 117.498 146.108V146.108Z" fill="url(#paint2_linear_0_1)"/>
  <path d="M131.904 146.326C133.359 146.567 134.766 146.858 136.124 147.196C138.598 152.493 140.598 156.52 140.889 156.339C141.144 156.157 140.416 152.747 139.362 148.14C144.236 149.7 148.456 151.876 152.203 154.633C152.712 160.692 153.222 165.445 153.585 165.336C153.877 165.263 154.422 161.708 155.004 156.883C171.265 171.032 178.65 197.298 197.458 230.638L193.02 232.343C189.928 227.99 186.872 223.999 183.816 220.299C180.615 202.413 174.212 201.252 165.881 192.835C156.569 183.475 157.696 167.585 140.635 165.372C127.539 163.667 122.227 156.883 117.498 146.108C120.772 145.273 125.465 145.237 131.904 146.326V146.326Z" fill="url(#paint3_linear_0_1)"/>
  <path d="M219.576 200.635L214.41 199.003C213.719 178.977 188.727 150.933 187.49 132.612C186.726 121.438 194.584 120.06 203.86 125.973C203.897 130.58 204.006 133.882 204.297 133.991C204.551 134.1 205.206 131.415 206.043 127.497C208.226 129.129 210.408 131.161 212.591 133.483C211.391 139.94 210.554 145.237 210.881 145.419C211.172 145.6 212.882 141.609 214.992 136.313C217.247 139.034 219.394 142.154 221.358 145.636C230.21 161.285 229.616 179.618 219.576 200.635Z" fill="#4E7DCB"/>
  <path d="M237.22 227.772C233.654 202.764 235.522 185.531 242.822 176.074C253.808 161.889 250.789 163.776 255.809 152.602C260.793 141.428 269.378 139.832 266.577 151.042C263.739 162.216 269.815 164.247 265.886 175.421C261.957 186.559 262.248 195.266 242.713 221.895L237.22 227.772Z" fill="url(#paint4_linear_0_1)"/>
  <path d="M244.932 226.321C245.101 210.89 247.43 196.766 251.916 183.947C256.403 171.128 258.852 162.276 259.265 157.391" stroke="white" stroke-width="1.1"/>
  <path d="M299.281 173.281C294.334 176.981 272.98 188.99 252.244 222.475C253.008 204.3 259.192 202.304 266.323 192.835C274.289 182.314 271.052 166.751 287.677 162.252C300.373 158.806 304.738 151.368 308.012 140.049C323.218 141.827 312.123 163.703 299.281 173.281V173.281Z" fill="url(#paint5_linear_0_1)"/>
  <g style="mix-blend-mode:multiply" opacity="0.6">
    <path d="M299.281 173.281C294.334 176.981 272.98 188.99 252.244 222.475C253.008 204.3 259.192 202.304 266.323 192.835C274.289 182.314 271.052 166.751 287.677 162.252C300.373 158.806 304.738 151.368 308.012 140.049C323.218 141.827 312.123 163.703 299.281 173.281V173.281Z" fill="#588FF4"/>
  </g>
  <path d="M308.012 140.049C304.738 151.368 300.373 158.806 287.677 162.252C271.052 166.751 274.289 182.314 266.322 192.835C259.192 202.304 253.008 204.3 252.244 222.475C249.734 226.539 247.224 230.892 244.75 235.645L240.13 234.556C254.281 198.967 258.064 171.975 272.288 155.758C273.525 160.474 274.508 163.921 274.799 163.957C275.162 163.994 275.053 159.241 274.762 153.146C278.073 149.917 281.965 147.196 286.622 144.983C286.149 149.7 285.93 153.182 286.185 153.327C286.512 153.473 287.968 149.228 289.677 143.641C290.987 143.133 292.345 142.661 293.752 142.226C299.972 140.267 304.629 139.687 308.012 140.049V140.049Z" fill="url(#paint6_linear_0_1)"/>
  <path d="M173.667 226.974C155.696 237.06 139.689 230.783 127.102 210.612C120.942 200.768 114.491 195.157 107.749 193.779C128.339 194.915 150.312 205.98 173.667 226.974Z" fill="#4E7DCB"/>
  <path d="M173.667 226.974C150.312 205.98 128.339 194.915 107.749 193.779C119.778 188.893 132.705 188.3 146.528 192.001C166.755 197.419 175.801 209.076 173.667 226.974Z" fill="url(#paint7_linear_0_1)"/>
  <path d="M143.69 178.469C145.146 182.677 149.438 185.737 156.568 187.647C167.082 190.477 176.686 200.744 170.356 216.852C154.349 205.993 145.461 193.198 143.69 178.469V178.469Z" fill="url(#paint8_linear_0_1)"/>
  <path d="M143.4 202.195C140.125 193.174 140.222 185.265 143.691 178.469C145.461 193.198 154.349 205.993 170.356 216.852C157.163 220.238 148.177 215.353 143.4 202.195V202.195Z" fill="url(#paint9_linear_0_1)"/>
  <path d="M253.59 223.382C251.007 202.993 262.866 190.586 286.33 186.523C297.802 184.515 305.441 180.658 309.249 174.95C300.445 193.573 281.892 209.717 253.59 223.382V223.382Z" fill="url(#paint10_linear_0_1)"/>
  <path d="M253.59 223.382C281.892 209.717 300.445 193.573 309.249 174.95C309.273 187.913 304.956 200.091 296.298 211.483C283.687 228.123 269.451 232.089 253.59 223.382V223.382Z" fill="url(#paint11_linear_0_1)"/>
  <path d="M213.355 198.096C213.101 195.339 213.101 191.638 213.792 187.43C215.174 179.049 219.758 166.823 233.8 156.23C265.813 132.032 267.414 119.66 267.341 101.521H268.178C268.214 119.914 266.613 132.431 234.309 156.883C220.485 167.295 215.975 179.303 214.592 187.539C213.137 196.463 214.956 202.994 214.956 203.066L214.156 203.284C214.156 203.247 213.61 201.288 213.355 198.096V198.096Z" fill="url(#paint12_linear_0_1)"/>
  <path d="M264.03 124.631C273.852 115.464 279.673 113.529 281.492 118.826C283.02 123.228 277.199 125.163 264.03 124.631Z" fill="url(#paint13_linear_0_1)"/>
  <path d="M255.555 137.002C267.899 131.729 274.023 131.899 273.926 137.51C273.853 142.178 267.729 142.008 255.555 137.002Z" fill="url(#paint14_linear_0_1)"/>
  <path d="M244.75 148.031C257.919 145.491 263.873 146.942 262.612 152.384C261.545 156.931 255.591 155.48 244.75 148.031Z" fill="url(#paint15_linear_0_1)"/>
  <path d="M234.236 156.085C247.672 155.601 253.335 157.959 251.225 163.159C249.455 167.488 243.792 165.13 234.236 156.085Z" fill="url(#paint16_linear_0_1)"/>
  <path d="M223.214 167.114C236.31 164.042 242.325 165.263 241.258 170.778C240.385 175.349 234.37 174.127 223.214 167.114Z" fill="url(#paint17_linear_0_1)"/>
  <path d="M215.756 181.553C227.931 175.893 234.066 175.869 234.163 181.48C234.236 186.148 228.1 186.172 215.756 181.553Z" fill="url(#paint18_linear_0_1)"/>
  <path d="M267.305 111.425C274.799 100.3 280.037 97.1191 283.02 101.884C285.494 105.85 280.255 109.031 267.305 111.425Z" fill="url(#paint19_linear_0_1)"/>
  <path d="M266.868 116.722C254.742 110.941 250.825 106.237 255.118 102.609C258.683 99.5861 262.6 104.29 266.868 116.722Z" fill="url(#paint20_linear_0_1)"/>
  <path d="M260.429 131.306C250.267 122.527 247.733 116.952 252.826 114.581C257.07 112.622 259.604 118.197 260.429 131.306Z" fill="url(#paint21_linear_0_1)"/>
  <path d="M250.171 143.024C242.58 131.971 241.549 125.937 247.079 124.921C251.686 124.099 252.717 130.133 250.171 143.024Z" fill="url(#paint22_linear_0_1)"/>
  <path d="M238.42 153.073C231.411 141.658 230.695 135.587 236.273 134.861C240.906 134.257 241.621 140.327 238.42 153.073Z" fill="url(#paint23_linear_0_1)"/>
  <path d="M228.38 161.49C221.346 150.074 220.619 144.004 226.197 143.278C230.829 142.673 231.557 148.744 228.38 161.49Z" fill="url(#paint24_linear_0_1)"/>
  <path d="M218.521 174.442C208.31 165.735 205.74 160.172 210.808 157.753C215.028 155.77 217.599 161.333 218.521 174.442Z" fill="url(#paint25_linear_0_1)"/>
  <path d="M214.083 189.643C201.593 184.66 197.373 180.222 201.423 176.328C204.77 173.087 208.99 177.526 214.083 189.643Z" fill="url(#paint26_linear_0_1)"/>
  <path d="M267.741 103.081C262.042 90.9395 262.006 84.8205 267.632 84.7237C272.289 84.6512 272.325 90.7702 267.741 103.081Z" fill="url(#paint27_linear_0_1)"/>
  <path d="M230.562 219.972C227.87 219.247 224.378 218.013 220.667 215.945C213.246 211.809 203.279 203.356 198.04 186.559C186.071 148.285 174.976 142.625 157.842 136.494L158.096 135.732C175.485 141.936 186.726 147.704 198.804 186.305C203.97 202.812 213.756 211.12 221.031 215.22C228.962 219.609 235.728 220.117 235.801 220.154L235.728 220.952C235.692 220.952 233.691 220.807 230.562 219.972V219.972Z" fill="url(#paint28_linear_0_1)"/>
  <path d="M178.505 147.45C173.169 135.14 173.315 129.02 178.941 129.093C183.622 129.166 183.476 135.285 178.505 147.45Z" fill="url(#paint29_linear_0_1)"/>
  <path d="M187.272 159.64C186.521 146.265 188.764 140.569 194.002 142.553C198.368 144.221 196.124 149.917 187.272 159.64V159.64Z" fill="url(#paint30_linear_0_1)"/>
  <path d="M194.038 173.535C196.1 160.281 199.483 155.178 204.188 158.225C208.117 160.765 204.733 165.868 194.038 173.535Z" fill="url(#paint31_linear_0_1)"/>
  <path d="M198.04 186.087C202.163 173.341 206.31 168.843 210.481 172.592C213.974 175.687 209.827 180.186 198.04 186.087Z" fill="url(#paint32_linear_0_1)"/>
  <path d="M204.697 200.164C206.249 186.861 209.451 181.649 214.301 184.527C218.303 186.898 215.102 192.11 204.697 200.164Z" fill="url(#paint33_linear_0_1)"/>
  <path d="M215.793 212.1C214.604 198.749 216.666 192.98 221.977 194.794C226.391 196.318 224.33 202.086 215.793 212.1Z" fill="url(#paint34_linear_0_1)"/>
  <path d="M167.154 139.904C159.224 129.093 158.011 123.107 163.516 121.946C168.076 120.979 169.289 126.965 167.154 139.904Z" fill="url(#paint35_linear_0_1)"/>
  <path d="M171.993 142.117C162.437 151.526 156.677 153.606 154.713 148.357C153.064 143.98 158.824 141.9 171.993 142.117Z" fill="url(#paint36_linear_0_1)"/>
  <path d="M183.561 153.11C171.823 159.664 165.712 160.148 165.227 154.561C164.814 149.917 170.926 149.433 183.561 153.11Z" fill="url(#paint37_linear_0_1)"/>
  <path d="M191.128 166.714C178.129 170.076 172.103 168.988 173.048 163.449C173.8 158.854 179.827 159.942 191.128 166.714Z" fill="url(#paint38_linear_0_1)"/>
  <path d="M196.621 181.153C183.476 183.862 177.51 182.472 178.723 176.981C179.717 172.434 185.683 173.825 196.621 181.153Z" fill="url(#paint39_linear_0_1)"/>
  <path d="M201.168 193.452C187.999 196.161 182.021 194.77 183.233 189.28C184.252 184.733 190.23 186.124 201.168 193.452Z" fill="url(#paint40_linear_0_1)"/>
  <path d="M210.009 207.093C198.319 213.72 192.208 214.24 191.674 208.653C191.238 204.009 197.349 203.489 210.009 207.093Z" fill="url(#paint41_linear_0_1)"/>
  <path d="M222.85 216.417C213.925 226.43 208.299 228.885 205.97 223.781C204.055 219.525 209.681 217.07 222.85 216.417Z" fill="url(#paint42_linear_0_1)"/>
  <path d="M159.443 136.675C146.055 137.909 140.271 135.865 142.09 130.544C143.594 126.142 149.378 128.186 159.443 136.675Z" fill="url(#paint43_linear_0_1)"/>
  <path d="M310.595 212.789C306.132 213.708 301.864 217.433 297.789 223.963C289.459 237.313 278.836 241.449 266.94 234.81C282.413 220.879 296.965 213.539 310.595 212.789V212.789Z" fill="url(#paint44_linear_0_1)"/>
  <path d="M284.912 211.628C294.079 209.185 302.64 209.572 310.595 212.789C296.965 213.539 282.414 220.879 266.941 234.81C265.534 222.935 271.525 215.207 284.912 211.628V211.628Z" fill="#4E7DCB"/>
  <path d="M176.504 208H118.444C117.018 208 115.861 209.153 115.861 210.576V243.372C115.861 244.795 117.018 245.948 118.444 245.948H176.504C177.931 245.948 179.087 244.795 179.087 243.372V210.576C179.087 209.153 177.931 208 176.504 208Z" fill="#E1F5FE"/>
  <g opacity="0.4">
    <path opacity="0.4" d="M130.485 208L168.537 245.948H118.444C117.025 245.948 115.861 244.823 115.861 243.408V210.576C115.861 209.161 117.025 208 118.444 208H130.485Z" fill="white"/>
  </g>
  <path d="M178.614 244.86C178.141 245.513 177.377 245.948 176.504 245.948H118.444C117.025 245.948 115.861 244.823 115.861 243.408V210.576C115.861 209.705 116.298 208.943 116.953 208.472C116.698 208.871 116.516 209.379 116.516 209.923V242.755C116.516 244.17 117.68 245.295 119.063 245.295H177.159C177.705 245.295 178.214 245.15 178.614 244.86V244.86Z" fill="#E1F5FE"/>
  <g style="mix-blend-mode:multiply">
    <path d="M174.176 226.974C174.176 227.409 173.812 227.772 173.376 227.772H121.536C121.1 227.772 120.772 227.409 120.772 226.974C120.772 226.575 121.1 226.212 121.536 226.212H173.376C173.812 226.212 174.176 226.575 174.176 226.974Z" fill="#E1F5FE"/>
  </g>
  <path d="M127.211 223.128L124.374 220.299L121.536 217.433C120.518 216.453 120.518 214.82 121.536 213.805C122.555 212.789 124.156 212.789 125.174 213.805L128.048 216.634L130.886 219.464C131.904 220.48 131.904 222.113 130.886 223.128C129.867 224.144 128.23 224.144 127.211 223.128V223.128Z" fill="#B3E5FC"/>
  <path d="M127.393 216.634L130.23 219.464C131.249 220.48 131.249 222.113 130.23 223.128C129.212 224.144 127.575 224.144 126.556 223.128L123.719 220.299L127.393 216.634Z" fill="url(#paint45_linear_0_1)"/>
  <path d="M120.881 217.433C119.863 216.453 119.863 214.82 120.881 213.805C121.9 212.789 123.537 212.789 124.519 213.805L127.393 216.634L123.719 220.299L120.881 217.433Z" fill="#E1F5FE"/>
  <g style="mix-blend-mode:screen" opacity="0.5">
    <path d="M128.084 221.169L122.372 215.473C122.009 215.111 122.009 214.494 122.372 214.095C122.736 213.732 123.355 213.732 123.718 214.095L129.466 219.827C129.83 220.19 129.83 220.806 129.466 221.169C129.066 221.568 128.484 221.568 128.084 221.169Z" fill="white"/>
  </g>
  <path d="M123.246 215.873L122.628 215.256C122.373 215.002 122.373 214.603 122.628 214.349C122.846 214.095 123.246 214.095 123.501 214.349L124.119 214.966C124.374 215.219 124.374 215.619 124.119 215.873C123.901 216.126 123.501 216.126 123.246 215.873Z" fill="white"/>
  <path d="M138.015 223.128L135.178 220.299L132.34 217.433C131.322 216.453 131.322 214.82 132.34 213.805C133.322 212.789 134.959 212.789 135.978 213.805L138.815 216.634L141.689 219.464C142.672 220.48 142.672 222.113 141.689 223.128C140.671 224.144 139.034 224.144 138.015 223.128V223.128Z" fill="#B3E5FC"/>
  <path d="M138.161 216.634L141.035 219.464C142.017 220.48 142.017 222.113 141.035 223.128C140.017 224.144 138.38 224.144 137.361 223.128L134.523 220.299L138.161 216.634Z" fill="url(#paint46_linear_0_1)"/>
  <path d="M131.686 217.433C130.667 216.453 130.667 214.82 131.686 213.805C132.668 212.789 134.305 212.789 135.324 213.805L138.161 216.634L134.523 220.299L131.686 217.433Z" fill="#E1F5FE"/>
  <g style="mix-blend-mode:screen" opacity="0.5">
    <path d="M138.888 221.169L133.177 215.473C132.777 215.111 132.777 214.494 133.177 214.095C133.541 213.732 134.159 213.732 134.523 214.095L140.271 219.827C140.635 220.19 140.635 220.806 140.271 221.169C139.871 221.568 139.252 221.568 138.888 221.169Z" fill="white"/>
  </g>
  <path d="M134.05 215.873L133.395 215.256C133.177 215.002 133.177 214.603 133.395 214.349C133.65 214.095 134.05 214.095 134.305 214.349L134.923 214.966C135.178 215.219 135.178 215.619 134.923 215.873C134.668 216.126 134.268 216.126 134.05 215.873Z" fill="white"/>
  <path d="M148.82 223.128L145.983 220.299L143.109 217.433C142.127 216.453 142.127 214.82 143.109 213.805C144.127 212.789 145.764 212.789 146.783 213.805L149.62 216.634L152.458 219.464C153.477 220.48 153.477 222.113 152.458 223.128C151.476 224.144 149.839 224.144 148.82 223.128V223.128Z" fill="#B3E5FC"/>
  <path d="M148.965 216.634L151.803 219.464C152.821 220.48 152.821 222.113 151.803 223.128C150.82 224.144 149.183 224.144 148.165 223.128L145.327 220.299L148.965 216.634Z" fill="url(#paint47_linear_0_1)"/>
  <path d="M142.453 217.433C141.471 216.453 141.471 214.82 142.453 213.805C143.472 212.789 145.109 212.789 146.128 213.805L148.965 216.634L145.327 220.299L142.453 217.433Z" fill="#E1F5FE"/>
  <g style="mix-blend-mode:screen" opacity="0.5">
    <path d="M149.693 221.169L143.982 215.473C143.582 215.111 143.582 214.494 143.982 214.095C144.346 213.732 144.964 213.732 145.328 214.095L151.039 219.827C151.439 220.19 151.439 220.806 151.039 221.169C150.675 221.568 150.057 221.568 149.693 221.169Z" fill="white"/>
  </g>
  <path d="M144.818 215.873L144.2 215.256C143.945 215.002 143.945 214.603 144.2 214.349C144.454 214.095 144.855 214.095 145.109 214.349L145.728 214.966C145.982 215.219 145.982 215.619 145.728 215.873C145.473 216.126 145.073 216.126 144.818 215.873Z" fill="white"/>
  <path d="M159.625 223.128L156.751 220.299L153.913 217.433C152.895 216.453 152.895 214.82 153.913 213.805C154.932 212.789 156.569 212.789 157.588 213.805L160.425 216.634L163.263 219.464C164.281 220.48 164.281 222.113 163.263 223.128C162.244 224.144 160.607 224.144 159.625 223.128Z" fill="#B3E5FC"/>
  <path d="M159.77 216.634L162.607 219.464C163.626 220.48 163.626 222.113 162.607 223.128C161.589 224.144 159.952 224.144 158.97 223.128L156.096 220.299L159.77 216.634Z" fill="url(#paint48_linear_0_1)"/>
  <path d="M153.258 217.433C152.239 216.453 152.239 214.82 153.258 213.805C154.277 212.789 155.914 212.789 156.932 213.805L159.77 216.634L156.096 220.299L153.258 217.433Z" fill="#E1F5FE"/>
  <g style="mix-blend-mode:screen" opacity="0.5">
    <path d="M160.497 221.169L154.749 215.473C154.386 215.111 154.386 214.494 154.749 214.095C155.15 213.732 155.732 213.732 156.132 214.095L161.843 219.827C162.207 220.19 162.207 220.806 161.843 221.169C161.479 221.568 160.861 221.568 160.497 221.169Z" fill="white"/>
  </g>
  <path d="M155.623 215.873L155.004 215.256C154.75 215.002 154.75 214.603 155.004 214.349C155.259 214.095 155.659 214.095 155.878 214.349L156.532 214.966C156.751 215.219 156.751 215.619 156.532 215.873C156.278 216.126 155.878 216.126 155.623 215.873V215.873Z" fill="white"/>
  <path d="M170.392 223.128L167.555 220.299L164.717 217.433C163.698 216.453 163.698 214.82 164.717 213.805C165.736 212.789 167.373 212.789 168.355 213.805L171.229 216.634L174.066 219.464C175.085 220.48 175.085 222.113 174.066 223.128C173.048 224.144 171.411 224.144 170.392 223.128Z" fill="#B3E5FC"/>
  <path d="M170.575 216.634L173.412 219.464C174.431 220.48 174.431 222.113 173.412 223.128C172.394 224.144 170.757 224.144 169.738 223.128L166.9 220.299L170.575 216.634Z" fill="url(#paint49_linear_0_1)"/>
  <path d="M164.063 217.433C163.044 216.453 163.044 214.82 164.063 213.805C165.081 212.789 166.718 212.789 167.701 213.805L170.575 216.634L166.9 220.299L164.063 217.433Z" fill="#E1F5FE"/>
  <g style="mix-blend-mode:screen" opacity="0.5">
    <path d="M171.265 221.169L165.554 215.473C165.19 215.111 165.19 214.494 165.554 214.095C165.918 213.732 166.536 213.732 166.9 214.095L172.648 219.827C173.012 220.19 173.012 220.806 172.648 221.169C172.248 221.568 171.666 221.568 171.265 221.169Z" fill="white"/>
  </g>
  <path d="M166.427 215.873L165.808 215.256C165.554 215.002 165.554 214.603 165.808 214.349C166.026 214.095 166.427 214.095 166.681 214.349L167.3 214.966C167.554 215.219 167.554 215.619 167.3 215.873C167.081 216.126 166.681 216.126 166.427 215.873Z" fill="white"/>
  <path d="M127.211 240.18L124.374 237.35L121.536 234.52C120.518 233.504 120.518 231.872 121.536 230.856C122.555 229.84 124.156 229.84 125.174 230.856L128.048 233.686L130.886 236.552C131.904 237.531 131.904 239.164 130.886 240.18C129.867 241.195 128.23 241.195 127.211 240.18V240.18Z" fill="#B3E5FC"/>
  <path d="M138.015 240.18L135.178 237.35L132.34 234.52C131.322 233.504 131.322 231.872 132.34 230.856C133.322 229.84 134.959 229.84 135.978 230.856L138.815 233.686L141.689 236.552C142.672 237.531 142.672 239.164 141.689 240.18C140.671 241.195 139.034 241.195 138.015 240.18V240.18Z" fill="#B3E5FC"/>
  <path d="M138.161 233.686L141.035 236.552C142.017 237.531 142.017 239.164 141.035 240.18C140.017 241.195 138.38 241.195 137.361 240.18L134.523 237.35L138.161 233.686Z" fill="url(#paint50_linear_0_1)"/>
  <path d="M131.686 234.52C130.667 233.504 130.667 231.872 131.686 230.856C132.668 229.84 134.305 229.84 135.324 230.856L138.161 233.686L134.523 237.35L131.686 234.52Z" fill="#E1F5FE"/>
  <g style="mix-blend-mode:screen" opacity="0.5">
    <path d="M138.888 238.22L133.177 232.525C132.777 232.162 132.777 231.545 133.177 231.182C133.541 230.783 134.159 230.783 134.523 231.182L140.271 236.878C140.635 237.241 140.635 237.858 140.271 238.22C139.871 238.62 139.252 238.62 138.888 238.22Z" fill="white"/>
  </g>
  <path d="M134.05 232.924L133.395 232.307C133.177 232.053 133.177 231.654 133.395 231.4C133.65 231.182 134.05 231.182 134.305 231.4L134.923 232.017C135.178 232.271 135.178 232.67 134.923 232.924C134.668 233.178 134.268 233.178 134.05 232.924Z" fill="white"/>
  <path d="M148.82 240.18L145.983 237.35L143.109 234.52C142.127 233.504 142.127 231.872 143.109 230.856C144.127 229.84 145.764 229.84 146.783 230.856L149.62 233.686L152.458 236.552C153.477 237.531 153.477 239.164 152.458 240.18C151.476 241.195 149.839 241.195 148.82 240.18V240.18Z" fill="#B3E5FC"/>
  <path d="M148.965 233.686L151.803 236.552C152.821 237.531 152.821 239.164 151.803 240.18C150.82 241.195 149.183 241.195 148.165 240.18L145.327 237.35L148.965 233.686Z" fill="url(#paint51_linear_0_1)"/>
  <path d="M142.453 234.52C141.471 233.504 141.471 231.872 142.453 230.856C143.472 229.84 145.109 229.84 146.128 230.856L148.965 233.686L145.327 237.35L142.453 234.52Z" fill="#E1F5FE"/>
  <g style="mix-blend-mode:screen" opacity="0.5">
    <path d="M149.693 238.22L143.982 232.525C143.582 232.162 143.582 231.545 143.982 231.182C144.346 230.783 144.964 230.783 145.328 231.182L151.039 236.878C151.439 237.241 151.439 237.858 151.039 238.22C150.675 238.62 150.057 238.62 149.693 238.22Z" fill="white"/>
  </g>
  <path d="M144.818 232.924L144.2 232.307C143.945 232.053 143.945 231.654 144.2 231.4C144.454 231.182 144.855 231.182 145.109 231.4L145.728 232.017C145.982 232.271 145.982 232.67 145.728 232.924C145.473 233.178 145.073 233.178 144.818 232.924Z" fill="white"/>
  <path d="M159.625 240.18L156.751 237.35L153.913 234.52C152.895 233.504 152.895 231.872 153.913 230.856C154.932 229.84 156.569 229.84 157.588 230.856L160.425 233.686L163.263 236.552C164.281 237.531 164.281 239.164 163.263 240.18C162.244 241.195 160.607 241.195 159.625 240.18Z" fill="#B3E5FC"/>
  <path d="M159.77 233.686L162.607 236.552C163.626 237.531 163.626 239.164 162.607 240.18C161.589 241.195 159.952 241.195 158.97 240.18L156.096 237.35L159.77 233.686Z" fill="url(#paint52_linear_0_1)"/>
  <path d="M153.258 234.52C152.239 233.504 152.239 231.872 153.258 230.856C154.277 229.84 155.914 229.84 156.932 230.856L159.77 233.686L156.096 237.35L153.258 234.52Z" fill="#E1F5FE"/>
  <g style="mix-blend-mode:screen" opacity="0.5">
    <path d="M160.497 238.22L154.749 232.525C154.386 232.162 154.386 231.545 154.749 231.182C155.15 230.783 155.732 230.783 156.132 231.182L161.843 236.878C162.207 237.241 162.207 237.858 161.843 238.22C161.479 238.62 160.861 238.62 160.497 238.22Z" fill="white"/>
  </g>
  <path d="M155.623 232.924L155.004 232.307C154.75 232.053 154.75 231.654 155.004 231.4C155.259 231.182 155.659 231.182 155.878 231.4L156.532 232.017C156.751 232.271 156.751 232.67 156.532 232.924C156.278 233.178 155.878 233.178 155.623 232.924V232.924Z" fill="white"/>
  <path d="M170.392 240.18L167.555 237.35L164.717 234.52C163.698 233.504 163.698 231.872 164.717 230.856C165.736 229.84 167.373 229.84 168.355 230.856L171.229 233.686L174.066 236.552C175.085 237.531 175.085 239.164 174.066 240.18C173.048 241.195 171.411 241.195 170.392 240.18Z" fill="#B3E5FC"/>
  <path d="M170.575 233.686L173.412 236.552C174.431 237.531 174.431 239.164 173.412 240.18C172.394 241.195 170.757 241.195 169.738 240.18L166.9 237.35L170.575 233.686Z" fill="url(#paint53_linear_0_1)"/>
  <path d="M164.063 234.52C163.044 233.504 163.044 231.872 164.063 230.856C165.081 229.84 166.718 229.84 167.701 230.856L170.575 233.686L166.9 237.35L164.063 234.52Z" fill="#E1F5FE"/>
  <g style="mix-blend-mode:screen" opacity="0.5">
    <path d="M171.265 238.22L165.554 232.525C165.19 232.162 165.19 231.545 165.554 231.182C165.918 230.783 166.536 230.783 166.9 231.182L172.648 236.878C173.012 237.241 173.012 237.858 172.648 238.22C172.248 238.62 171.666 238.62 171.265 238.22Z" fill="white"/>
  </g>
  <path d="M166.427 232.924L165.808 232.307C165.554 232.053 165.554 231.654 165.808 231.4C166.026 231.182 166.427 231.182 166.681 231.4L167.3 232.017C167.554 232.271 167.554 232.67 167.3 232.924C167.081 233.178 166.681 233.178 166.427 232.924Z" fill="white"/>
  <path d="M230.708 159.604H244.714V171.141H230.708V159.604Z" fill="#E1F5FE"/>
  <path d="M228.197 150.679C228.197 148.865 229.652 147.378 231.508 147.378H243.913C245.768 147.378 247.223 148.865 247.223 150.679V161.381H228.197V150.679Z" fill="url(#paint54_linear_0_1)"/>
  <path style="mix-blend-mode:screen" opacity="0.6" d="M233.472 150.679V161.381H228.197V150.679C228.197 148.865 229.652 147.378 231.508 147.378H236.783C234.927 147.378 233.472 148.865 233.472 150.679Z" fill="url(#paint55_linear_0_1)"/>
  <path d="M233.182 161.381H242.24V171.14H233.182V161.381Z" fill="white"/>
  <path d="M249.152 173.317H226.27V167.73C226.27 166.025 227.652 164.646 229.362 164.646H246.059C247.769 164.646 249.152 166.025 249.152 167.73V173.317Z" fill="#E1F5FE"/>
  <path opacity="0.6" d="M240.603 164.646H246.059C247.769 164.646 249.151 166.025 249.151 167.73V173.317H243.695V167.73C243.695 166.025 242.312 164.646 240.603 164.646Z" fill="#81D4FA"/>
  <path d="M256.573 182.605C258.828 185.398 260.029 188.845 260.029 192.4V250.41C260.029 252.841 258.101 254.764 255.664 254.764H219.758C217.321 254.764 215.393 252.841 215.393 250.41V192.4C215.393 188.845 216.593 185.398 218.849 182.605L226.27 173.317H249.152L256.573 182.605Z" fill="#E1F5FE"/>
  <path d="M215.393 195.23H260.029V238.656H215.393V195.23Z" fill="url(#paint56_linear_0_1)"/>
  <g style="mix-blend-mode:screen" opacity="0.4">
    <path d="M229.107 254.764H219.758C217.321 254.764 215.393 252.841 215.393 250.41V192.4C215.393 188.845 216.593 185.398 218.849 182.605L226.27 173.317H228.853L228.089 174.26C225.615 177.38 224.233 181.226 224.233 185.217V249.939C224.233 252.587 226.415 254.764 229.107 254.764V254.764Z" fill="white"/>
  </g>
  <path style="mix-blend-mode:multiply" opacity="0.5" d="M250.789 197.806H250.752C248.803 197.806 247.224 199.381 247.224 201.325V231.473C247.224 233.416 248.803 234.992 250.752 234.992H250.789C252.738 234.992 254.317 233.416 254.317 231.473V201.325C254.317 199.381 252.738 197.806 250.789 197.806Z" fill="url(#paint57_linear_0_1)"/>
  <path d="M271.888 263.398H244.204C242.13 263.398 240.457 261.729 240.457 259.661V220.77H275.635V259.661C275.635 261.729 273.962 263.398 271.888 263.398V263.398Z" fill="#E1F5FE"/>
  <g style="mix-blend-mode:multiply" opacity="0.4">
    <path d="M275.635 225.813H240.457V220.77H275.635V225.813Z" fill="#4FC3F7"/>
  </g>
  <path style="mix-blend-mode:multiply" opacity="0.5" d="M272.47 254.147H240.457V235.826H272.47V254.147Z" fill="url(#paint58_linear_0_1)"/>
  <path d="M268.505 254.147H240.457V235.826H268.505V254.147Z" fill="white"/>
  <g style="mix-blend-mode:screen" opacity="0.4">
    <path d="M249.515 263.398H244.204C242.13 263.398 240.457 261.729 240.457 259.661V220.77H245.732V259.661C245.732 261.729 247.405 263.398 249.515 263.398V263.398Z" fill="white"/>
  </g>
  <path d="M275.563 208.254H240.53C239.586 208.254 238.82 209.017 238.82 209.959V220.335C238.82 221.277 239.586 222.04 240.53 222.04H275.563C276.507 222.04 277.272 221.277 277.272 220.335V209.959C277.272 209.017 276.507 208.254 275.563 208.254Z" fill="url(#paint59_linear_0_1)"/>
  <g style="mix-blend-mode:screen" opacity="0.2">
    <path d="M246.314 222.04H240.494C239.584 222.04 238.82 221.278 238.82 220.335V209.959C238.82 209.016 239.584 208.254 240.494 208.254H246.314C245.405 208.254 244.641 209.016 244.641 209.959V220.335C244.641 221.278 245.405 222.04 246.314 222.04Z" fill="white"/>
  </g>
  <g style="mix-blend-mode:multiply" opacity="0.5">
    <g style="mix-blend-mode:multiply" opacity="0.5">
      <path d="M243.731 222.04H242.203V212.499H243.731V222.04Z" fill="#C62828"/>
    </g>
    <g style="mix-blend-mode:multiply" opacity="0.5">
      <path d="M247.478 222.04H245.986V212.499H247.478V222.04Z" fill="#C62828"/>
    </g>
    <g style="mix-blend-mode:multiply" opacity="0.5">
      <path d="M251.261 222.04H249.733V212.499H251.261V222.04Z" fill="#C62828"/>
    </g>
    <g style="mix-blend-mode:multiply" opacity="0.5">
      <path d="M255.044 222.04H253.517V212.499H255.044V222.04Z" fill="#C62828"/>
    </g>
    <g style="mix-blend-mode:multiply" opacity="0.5">
      <path d="M258.791 222.04H257.3V212.499H258.791V222.04Z" fill="#C62828"/>
    </g>
    <g style="mix-blend-mode:multiply" opacity="0.5">
      <path d="M262.575 222.04H261.047V212.499H262.575V222.04Z" fill="#C62828"/>
    </g>
    <g style="mix-blend-mode:multiply" opacity="0.5">
      <path d="M266.358 222.04H264.83V212.499H266.358V222.04Z" fill="#C62828"/>
    </g>
    <g style="mix-blend-mode:multiply" opacity="0.5">
      <path d="M270.106 222.04H268.614V212.499H270.106V222.04Z" fill="#C62828"/>
    </g>
    <g style="mix-blend-mode:multiply" opacity="0.5">
      <path d="M273.889 222.04H272.361V212.499H273.889V222.04Z" fill="#C62828"/>
    </g>
  </g>
  <path d="M185.708 200.853H168.683V194.069H185.708V200.853Z" fill="#81D4FA"/>
  <path d="M186.362 186.813H168.064C167.24 186.813 166.572 187.479 166.572 188.3V193.234C166.572 194.056 167.24 194.722 168.064 194.722H186.362C187.186 194.722 187.854 194.056 187.854 193.234V188.3C187.854 187.479 187.186 186.813 186.362 186.813Z" fill="url(#paint60_linear_0_1)"/>
  <g style="mix-blend-mode:screen" opacity="0.4">
    <path d="M172.757 194.722H168.064C167.227 194.722 166.572 194.069 166.572 193.234V188.264C166.572 187.466 167.227 186.813 168.064 186.813H172.757C171.92 186.813 171.265 187.466 171.265 188.264V193.234C171.265 194.069 171.92 194.722 172.757 194.722Z" fill="white"/>
  </g>
  <path d="M184.58 194.722H182.47V186.813H184.58V194.722Z" fill="#8C9EFF"/>
  <path d="M192.802 254.764H161.625C159.261 254.764 157.369 252.877 157.369 250.519V208.943C157.369 202.486 162.608 197.225 169.119 197.225H185.308C191.783 197.225 197.058 202.486 197.058 208.943V250.519C197.058 252.877 195.166 254.764 192.802 254.764V254.764Z" fill="#E1F5FE"/>
  <path d="M197.058 238.656H157.369V213.333H197.058V238.656Z" fill="url(#paint61_linear_0_1)"/>
  <g style="mix-blend-mode:screen" opacity="0.4">
    <path d="M170.829 254.764H161.625C159.261 254.764 157.369 252.877 157.369 250.519V208.943C157.369 202.703 162.28 197.588 168.465 197.225C167.264 199.075 166.573 201.252 166.573 203.61V250.519C166.573 252.877 168.465 254.764 170.829 254.764V254.764Z" fill="white"/>
  </g>
  <path style="mix-blend-mode:multiply" opacity="0.6" d="M185.853 220.48C185.853 218.877 184.55 217.578 182.943 217.578C181.335 217.578 180.032 218.877 180.032 220.48V243.517C180.032 245.12 181.335 246.42 182.943 246.42C184.55 246.42 185.853 245.12 185.853 243.517V220.48Z" fill="url(#paint62_linear_0_1)"/>
  <path d="M203.242 170.415H216.92V181.698H203.242V170.415Z" fill="#E1F5FE"/>
  <path d="M205.643 172.156H214.519V181.698H205.643V172.156Z" fill="white"/>
  <path d="M221.249 183.802H198.913V178.324C198.913 176.691 200.259 175.313 201.933 175.313H218.23C219.903 175.313 221.249 176.691 221.249 178.324V183.802Z" fill="#E1F5FE"/>
  <path opacity="0.6" d="M212.919 175.313H218.23C219.904 175.313 221.25 176.691 221.25 178.324V183.802H215.938V178.324C215.938 176.691 214.592 175.313 212.919 175.313Z" fill="#81D4FA"/>
  <path d="M228.526 192.872C230.708 195.593 231.872 198.967 231.872 202.449V259.117C231.872 261.439 229.981 263.362 227.616 263.362H192.547C190.183 263.362 188.291 261.439 188.291 259.117V202.449C188.291 198.967 189.455 195.593 191.638 192.872L198.914 183.802H221.25L228.526 192.872Z" fill="url(#paint63_linear_0_1)"/>
  <path d="M188.291 205.206H231.872V238.402H188.291V205.206Z" fill="url(#paint64_linear_0_1)"/>
  <g style="mix-blend-mode:screen" opacity="0.4">
    <path d="M201.678 263.362H192.547C190.183 263.362 188.291 261.439 188.291 259.117V202.449C188.291 198.967 189.455 195.593 191.638 192.872L198.914 183.802H201.424L200.696 184.709C198.259 187.756 196.913 191.529 196.913 195.411V258.609C196.913 261.221 199.059 263.362 201.678 263.362Z" fill="white"/>
  </g>
  <path style="mix-blend-mode:multiply" opacity="0.5" d="M225.033 255.852C223.105 255.852 221.577 254.292 221.577 252.406V222.983C221.577 221.097 223.105 219.537 225.033 219.537C226.925 219.537 228.489 221.097 228.489 222.983V252.406C228.489 254.292 226.925 255.852 225.033 255.852Z" fill="url(#paint65_linear_0_1)"/>
  <path d="M214.265 175.022H205.897V156.411C205.897 154.089 207.753 152.203 210.081 152.203C212.409 152.203 214.265 154.089 214.265 156.411V175.022Z" fill="white"/>
  <path d="M205.897 161.635H214.265V168.456C214.265 169.943 213.064 171.14 211.573 171.14H208.589C207.098 171.14 205.897 169.943 205.897 168.456V161.635Z" fill="#E1F5FE"/>
  <path d="M220.412 163.631H199.749C198.122 163.631 196.803 164.946 196.803 166.569V174.66C196.803 176.283 198.122 177.598 199.749 177.598H220.412C222.04 177.598 223.359 176.283 223.359 174.66V166.569C223.359 164.946 222.04 163.631 220.412 163.631Z" fill="white"/>
  <path d="M223.36 166.569V174.66C223.36 176.292 222.05 177.598 220.413 177.598H217.103C218.74 177.598 220.049 176.292 220.049 174.66V166.569C220.049 164.937 218.74 163.631 217.103 163.631H220.413C222.05 163.631 223.36 164.937 223.36 166.569Z" fill="#E1F5FE"/>
  <path fill-rule="evenodd" clip-rule="evenodd" d="M217.83 221.822C217.83 226.067 214.338 229.513 210.082 229.513C205.825 229.513 202.333 226.067 202.333 221.822C202.333 217.541 205.825 214.095 210.082 214.095C214.338 214.095 217.83 217.541 217.83 221.822ZM214.229 220.226H211.646V217.65H208.517V220.226H205.934V223.382H208.517V225.958H211.646V223.382H214.229V220.226Z" fill="white"/>
  <path d="M229.18 266.3C229.083 266.204 228.998 266.119 228.925 266.047C227.47 264.595 227.47 262.273 228.925 260.822C230.271 259.48 232.418 259.407 233.873 260.568C233.97 260.641 234.055 260.726 234.127 260.822C234.224 260.919 234.309 261.016 234.382 261.113C235.583 262.564 235.51 264.668 234.127 266.047C232.781 267.389 230.635 267.461 229.18 266.3Z" fill="#B3E5FC"/>
  <path d="M228.561 260.46C229.98 259.008 232.344 259.008 233.763 260.46C235.218 261.911 235.218 264.233 233.763 265.684C232.344 267.099 229.98 267.099 228.561 265.684C227.106 264.233 227.106 261.911 228.561 260.46Z" fill="#DEF6FF"/>
  <path d="M233.763 260.46C233.86 260.556 233.945 260.641 234.018 260.713L228.816 265.901C228.719 265.829 228.634 265.756 228.561 265.684C228.464 265.587 228.379 265.49 228.307 265.393L233.509 260.206C233.606 260.278 233.691 260.363 233.763 260.46V260.46Z" fill="#81D4FA"/>
  <path d="M218.12 266.3C218.023 266.204 217.939 266.119 217.866 266.047C216.411 264.595 216.411 262.273 217.866 260.822C219.212 259.48 221.358 259.407 222.813 260.568C222.91 260.641 222.995 260.726 223.068 260.822C223.165 260.919 223.25 261.016 223.323 261.113C224.523 262.564 224.45 264.668 223.068 266.047C221.722 267.389 219.576 267.461 218.12 266.3Z" fill="#B3E5FC"/>
  <path d="M217.502 260.46C218.921 259.008 221.286 259.008 222.705 260.46C224.16 261.911 224.16 264.233 222.705 265.684C221.286 267.099 218.921 267.099 217.502 265.684C216.047 264.233 216.047 261.911 217.502 260.46Z" fill="#DEF6FF"/>
  <path d="M222.705 260.46C222.802 260.556 222.887 260.641 222.959 260.713L217.757 265.901C217.66 265.829 217.575 265.756 217.503 265.684C217.406 265.587 217.321 265.49 217.248 265.393L222.45 260.206C222.547 260.278 222.632 260.363 222.705 260.46V260.46Z" fill="#81D4FA"/>
  <path d="M140.853 252.514H144.854C146.309 252.514 147.473 253.675 147.473 255.09C147.473 256.505 146.309 257.666 144.854 257.666H140.853V252.514Z" fill="url(#paint66_linear_0_1)"/>
  <path d="M136.815 257.666C135.397 257.666 134.232 256.505 134.232 255.09C134.232 253.675 135.397 252.514 136.815 252.514H140.853V257.666H136.815Z" fill="#E1F5FE"/>
  <g style="mix-blend-mode:screen" opacity="0.5">
    <path d="M144.564 255.199H136.488C135.942 255.199 135.506 254.8 135.506 254.256C135.506 253.712 135.942 253.313 136.488 253.313H144.564C145.11 253.313 145.546 253.712 145.546 254.256C145.546 254.8 145.11 255.199 144.564 255.199Z" fill="white"/>
  </g>
  <path d="M137.361 254.873H136.488C136.124 254.873 135.869 254.619 135.869 254.256C135.869 253.893 136.124 253.639 136.488 253.639H137.361C137.724 253.639 138.015 253.893 138.015 254.256C138.015 254.619 137.724 254.873 137.361 254.873Z" fill="white"/>
  <path d="M133.795 254.328L130.958 257.158C129.939 258.174 128.302 258.174 127.284 257.158C126.301 256.179 126.301 254.546 127.284 253.53L130.157 250.7L133.795 254.328Z" fill="url(#paint67_linear_0_1)"/>
  <path d="M133.796 254.328L130.158 250.7L132.996 247.834C134.014 246.855 135.651 246.855 136.634 247.834C137.652 248.85 137.652 250.483 136.634 251.499L133.796 254.328Z" fill="#E1F5FE"/>
  <g style="mix-blend-mode:screen" opacity="0.5">
    <path d="M128.084 255.235C127.684 254.836 127.684 254.256 128.084 253.857L133.796 248.161C134.16 247.798 134.778 247.798 135.142 248.161C135.542 248.524 135.542 249.14 135.142 249.503L129.43 255.235C129.067 255.598 128.448 255.598 128.084 255.235Z" fill="white"/>
  </g>
  <path d="M133.395 249.902C133.14 249.685 133.14 249.286 133.395 249.032L134.014 248.415C134.268 248.161 134.668 248.161 134.923 248.415C135.141 248.633 135.141 249.032 134.923 249.286L134.305 249.902C134.05 250.156 133.65 250.156 133.395 249.902Z" fill="white"/>
  <ellipse cx="352" cy="145.5" rx="17" ry="17.5" fill="url(#paint68_linear_0_1)"/>
  <path fill-rule="evenodd" clip-rule="evenodd" d="M345.774 147.143C346.945 148.939 348.927 150.922 352 153C355.073 150.922 357.055 148.939 358.226 147.143H355.817C355.721 147.143 355.628 147.114 355.549 147.059C355.47 147.004 355.409 146.927 355.374 146.836L353.984 143.281L352.459 148.741C352.432 148.839 352.375 148.926 352.297 148.989C352.22 149.052 352.124 149.089 352.025 149.095C351.926 149.1 351.827 149.073 351.743 149.018C351.659 148.964 351.594 148.883 351.557 148.789L349.986 144.769L348.581 146.926C348.537 146.993 348.478 147.048 348.409 147.085C348.339 147.123 348.262 147.143 348.184 147.143H345.774ZM345.206 146.167C342.052 139.997 348.575 136.405 351.832 139.473C351.889 139.527 351.946 139.583 352 139.64C352.054 139.583 352.11 139.527 352.168 139.474C355.425 136.405 361.948 139.997 358.793 146.167H356.138L354.35 141.592C354.313 141.498 354.248 141.418 354.164 141.363C354.08 141.308 353.982 141.281 353.883 141.287C353.783 141.292 353.688 141.329 353.61 141.392C353.532 141.456 353.476 141.542 353.448 141.64L351.925 147.1L350.535 143.545C350.502 143.462 350.448 143.39 350.379 143.337C350.31 143.283 350.227 143.25 350.141 143.241C350.055 143.232 349.967 143.247 349.889 143.285C349.81 143.323 349.743 143.382 349.695 143.456L347.928 146.167H345.207H345.206Z" fill="#F7F9FE"/>
  <circle cx="75" cy="192" r="12" fill="url(#paint69_linear_0_1)"/>
  <path fill-rule="evenodd" clip-rule="evenodd" d="M70.6057 193.127C71.4321 194.358 72.8309 195.718 75.0002 197.143C77.1696 195.718 78.5684 194.358 79.3948 193.127H77.6942C77.627 193.127 77.5613 193.107 77.5056 193.069C77.4499 193.032 77.4067 192.978 77.3817 192.916L76.4004 190.479L75.3242 194.222C75.305 194.29 75.2651 194.349 75.2101 194.393C75.1552 194.436 75.0879 194.461 75.0178 194.465C74.9476 194.469 74.8781 194.45 74.8189 194.413C74.7597 194.375 74.7139 194.32 74.6877 194.255L73.5785 191.499L72.5864 192.978C72.5556 193.024 72.5139 193.061 72.4651 193.087C72.4162 193.113 72.3617 193.127 72.3063 193.127H70.6057ZM70.2043 192.457C67.9784 188.227 72.5824 185.764 74.8817 187.867C74.9221 187.904 74.9619 187.942 75.0002 187.982C75.0382 187.942 75.0778 187.904 75.1188 187.868C77.4181 185.764 82.0221 188.227 79.7955 192.457H77.9212L76.6591 189.321C76.6329 189.256 76.5871 189.201 76.5279 189.163C76.4687 189.125 76.3992 189.107 76.329 189.111C76.2589 189.114 76.1916 189.14 76.1367 189.183C76.0817 189.227 76.0419 189.286 76.0226 189.353L74.947 193.097L73.9658 190.659C73.9429 190.603 73.9049 190.553 73.856 190.517C73.807 190.48 73.7489 190.457 73.6879 190.451C73.6269 190.445 73.5654 190.455 73.5099 190.481C73.4544 190.507 73.4071 190.548 73.3731 190.598L72.1258 192.457H70.2049H70.2043Z" fill="#F7F9FE"/>
  <path d="M145.168 26V33.5264H138V39.4736H145.168V47H150.832V39.4736H158V33.5264H150.832V26H145.168Z" fill="#F7F9FE"/>
  <path d="M375.694 52.0527H376.694V51.0527V37H386.306V51.0527V52.0527H387.306H401V61.9473H387.306H386.306V62.9473V77H376.694V62.9473V61.9473H375.694H362V52.0527H375.694Z" stroke="white" stroke-width="2"/>
  <path d="M364.168 217V224.168H357V229.832H364.168V237H369.832V229.832H377V224.168H369.832V217H364.168Z" fill="#C5D9FE"/>
  <path d="M49.168 58V65.168H42V70.832H49.168V78H54.832V70.832H62V65.168H54.832V58H49.168Z" fill="#C5D9FE"/>
  <defs>
    <linearGradient id="paint0_linear_0_1" x1="385" y1="4.29103e-06" x2="385" y2="418.557" gradientUnits="userSpaceOnUse">
      <stop stop-color="#DDE9FF"/>
      <stop offset="1" stop-color="#F7F9FE" stop-opacity="0"/>
    </linearGradient>
    <linearGradient id="paint1_linear_0_1" x1="2364.78" y1="30712.7" x2="18127.5" y2="45142.3" gradientUnits="userSpaceOnUse">
      <stop stop-color="#5BD4F4"/>
      <stop offset="1" stop-color="#DCF5FC"/>
    </linearGradient>
    <linearGradient id="paint2_linear_0_1" x1="3847.83" y1="27218.3" x2="16860.9" y2="27218.3" gradientUnits="userSpaceOnUse">
      <stop stop-color="#5BD4F4"/>
      <stop offset="1" stop-color="#DCF5FC"/>
    </linearGradient>
    <linearGradient id="paint3_linear_0_1" x1="3963.57" y1="31689.1" x2="21538.7" y2="31689.1" gradientUnits="userSpaceOnUse">
      <stop stop-color="#9FE5F7"/>
      <stop offset="1" stop-color="#5BD4F4"/>
    </linearGradient>
    <linearGradient id="paint4_linear_0_1" x1="11177.3" y1="49458.5" x2="21167.4" y2="36016.9" gradientUnits="userSpaceOnUse">
      <stop stop-color="#5BD4F4"/>
      <stop offset="1" stop-color="#9FE5F7"/>
    </linearGradient>
    <linearGradient id="paint5_linear_0_1" x1="37949.5" y1="32162.6" x2="22109.4" y2="47012.4" gradientUnits="userSpaceOnUse">
      <stop stop-color="#80A1D4"/>
      <stop offset="1" stop-color="#426BB8"/>
    </linearGradient>
    <linearGradient id="paint6_linear_0_1" x1="40989.8" y1="35490.5" x2="21474.8" y2="52440.8" gradientUnits="userSpaceOnUse">
      <stop stop-color="#80A1D4"/>
      <stop offset="1" stop-color="#426BB8"/>
    </linearGradient>
    <linearGradient id="paint7_linear_0_1" x1="140.86" y1="17657.9" x2="12558.4" y2="23144.2" gradientUnits="userSpaceOnUse">
      <stop stop-color="#80A1D4"/>
      <stop offset="1" stop-color="#426BB8"/>
    </linearGradient>
    <linearGradient id="paint8_linear_0_1" x1="4883.22" y1="22210.5" x2="2307.91" y2="19613.9" gradientUnits="userSpaceOnUse">
      <stop stop-color="#00A4E0"/>
      <stop offset="1" stop-color="#5BD4F4"/>
    </linearGradient>
    <linearGradient id="paint9_linear_0_1" x1="4985.27" y1="23457.6" x2="1932.62" y2="21071.6" gradientUnits="userSpaceOnUse">
      <stop stop-color="#5BD4F4"/>
      <stop offset="1" stop-color="#00A4E0"/>
    </linearGradient>
    <linearGradient id="paint10_linear_0_1" x1="32440.8" y1="24575.3" x2="26977.2" y2="28705" gradientUnits="userSpaceOnUse">
      <stop stop-color="#5BD4F4"/>
      <stop offset="1" stop-color="#DCF5FC"/>
    </linearGradient>
    <linearGradient id="paint11_linear_0_1" x1="33404.2" y1="26200.5" x2="28047.4" y2="31995.7" gradientUnits="userSpaceOnUse">
      <stop stop-color="#DCF5FC"/>
      <stop offset="1" stop-color="#5BD4F4"/>
    </linearGradient>
    <linearGradient id="paint12_linear_0_1" x1="16448.5" y1="54137.6" x2="31637.7" y2="23199.7" gradientUnits="userSpaceOnUse">
      <stop stop-color="#426BB8"/>
      <stop offset="1" stop-color="#80A1D4"/>
    </linearGradient>
    <linearGradient id="paint13_linear_0_1" x1="7416.57" y1="4125.38" x2="7676.67" y2="2154.14" gradientUnits="userSpaceOnUse">
      <stop stop-color="#426BB8"/>
      <stop offset="1" stop-color="#80A1D4"/>
    </linearGradient>
    <linearGradient id="paint14_linear_0_1" x1="7485.04" y1="3581.43" x2="7645.46" y2="2142.09" gradientUnits="userSpaceOnUse">
      <stop stop-color="#426BB8"/>
      <stop offset="1" stop-color="#80A1D4"/>
    </linearGradient>
    <linearGradient id="paint15_linear_0_1" x1="6938.23" y1="3968.7" x2="7135.76" y2="2320.15" gradientUnits="userSpaceOnUse">
      <stop stop-color="#426BB8"/>
      <stop offset="1" stop-color="#80A1D4"/>
    </linearGradient>
    <linearGradient id="paint16_linear_0_1" x1="6227.88" y1="4678.1" x2="6538.48" y2="2469.38" gradientUnits="userSpaceOnUse">
      <stop stop-color="#426BB8"/>
      <stop offset="1" stop-color="#80A1D4"/>
    </linearGradient>
    <linearGradient id="paint17_linear_0_1" x1="6188.39" y1="4054.19" x2="6373.77" y2="2473.32" gradientUnits="userSpaceOnUse">
      <stop stop-color="#426BB8"/>
      <stop offset="1" stop-color="#80A1D4"/>
    </linearGradient>
    <linearGradient id="paint18_linear_0_1" x1="6133.97" y1="4018.16" x2="6293.76" y2="2581.69" gradientUnits="userSpaceOnUse">
      <stop stop-color="#426BB8"/>
      <stop offset="1" stop-color="#80A1D4"/>
    </linearGradient>
    <linearGradient id="paint19_linear_0_1" x1="6817.64" y1="5584.39" x2="7384.04" y2="2605.25" gradientUnits="userSpaceOnUse">
      <stop stop-color="#426BB8"/>
      <stop offset="1" stop-color="#80A1D4"/>
    </linearGradient>
    <linearGradient id="paint20_linear_0_1" x1="5123.16" y1="7468.06" x2="6362.53" y2="3282" gradientUnits="userSpaceOnUse">
      <stop stop-color="#426BB8"/>
      <stop offset="1" stop-color="#80A1D4"/>
    </linearGradient>
    <linearGradient id="paint21_linear_0_1" x1="3884.27" y1="8881.4" x2="5974.79" y2="4203.51" gradientUnits="userSpaceOnUse">
      <stop stop-color="#426BB8"/>
      <stop offset="1" stop-color="#80A1D4"/>
    </linearGradient>
    <linearGradient id="paint22_linear_0_1" x1="2969.5" y1="9698.79" x2="5825.78" y2="4989.49" gradientUnits="userSpaceOnUse">
      <stop stop-color="#426BB8"/>
      <stop offset="1" stop-color="#80A1D4"/>
    </linearGradient>
    <linearGradient id="paint23_linear_0_1" x1="2705.76" y1="9723.22" x2="5649.99" y2="4970.76" gradientUnits="userSpaceOnUse">
      <stop stop-color="#426BB8"/>
      <stop offset="1" stop-color="#80A1D4"/>
    </linearGradient>
    <linearGradient id="paint24_linear_0_1" x1="2511.3" y1="9658.62" x2="5454.96" y2="4902.26" gradientUnits="userSpaceOnUse">
      <stop stop-color="#426BB8"/>
      <stop offset="1" stop-color="#80A1D4"/>
    </linearGradient>
    <linearGradient id="paint25_linear_0_1" x1="2943.98" y1="8864.4" x2="5015.01" y2="4189.12" gradientUnits="userSpaceOnUse">
      <stop stop-color="#426BB8"/>
      <stop offset="1" stop-color="#80A1D4"/>
    </linearGradient>
    <linearGradient id="paint26_linear_0_1" x1="3895.22" y1="7510.36" x2="4966.03" y2="3529.52" gradientUnits="userSpaceOnUse">
      <stop stop-color="#426BB8"/>
      <stop offset="1" stop-color="#80A1D4"/>
    </linearGradient>
    <linearGradient id="paint27_linear_0_1" x1="3188.83" y1="10034.7" x2="6295.32" y2="5114.85" gradientUnits="userSpaceOnUse">
      <stop stop-color="#426BB8"/>
      <stop offset="1" stop-color="#80A1D4"/>
    </linearGradient>
    <linearGradient id="paint28_linear_0_1" x1="29228.8" y1="50679.4" x2="4551.04" y2="35039.4" gradientUnits="userSpaceOnUse">
      <stop stop-color="#98B1DC"/>
      <stop offset="1" stop-color="#80A1D4"/>
    </linearGradient>
    <linearGradient id="paint29_linear_0_1" x1="2656.51" y1="8680.18" x2="1074.08" y2="8218.24" gradientUnits="userSpaceOnUse">
      <stop stop-color="#98B1DC"/>
      <stop offset="1" stop-color="#80A1D4"/>
    </linearGradient>
    <linearGradient id="paint30_linear_0_1" x1="3371.7" y1="8664.82" x2="1146.38" y2="7867.69" gradientUnits="userSpaceOnUse">
      <stop stop-color="#98B1DC"/>
      <stop offset="1" stop-color="#80A1D4"/>
    </linearGradient>
    <linearGradient id="paint31_linear_0_1" x1="4485.92" y1="8540.19" x2="1445.14" y2="7011.07" gradientUnits="userSpaceOnUse">
      <stop stop-color="#98B1DC"/>
      <stop offset="1" stop-color="#80A1D4"/>
    </linearGradient>
    <linearGradient id="paint32_linear_0_1" x1="5169.39" y1="8220.11" x2="1854.4" y2="6098.79" gradientUnits="userSpaceOnUse">
      <stop stop-color="#98B1DC"/>
      <stop offset="1" stop-color="#80A1D4"/>
    </linearGradient>
    <linearGradient id="paint33_linear_0_1" x1="4200.37" y1="9371.76" x2="1260.05" y2="7971.96" gradientUnits="userSpaceOnUse">
      <stop stop-color="#98B1DC"/>
      <stop offset="1" stop-color="#80A1D4"/>
    </linearGradient>
    <linearGradient id="paint34_linear_0_1" x1="3321.55" y1="10004.1" x2="1233.17" y2="9284.14" gradientUnits="userSpaceOnUse">
      <stop stop-color="#98B1DC"/>
      <stop offset="1" stop-color="#80A1D4"/>
    </linearGradient>
    <linearGradient id="paint35_linear_0_1" x1="2657.24" y1="8528.35" x2="921.208" y2="7992.46" gradientUnits="userSpaceOnUse">
      <stop stop-color="#98B1DC"/>
      <stop offset="1" stop-color="#80A1D4"/>
    </linearGradient>
    <linearGradient id="paint36_linear_0_1" x1="6116.14" y1="4581.36" x2="4264.6" y2="2099.38" gradientUnits="userSpaceOnUse">
      <stop stop-color="#98B1DC"/>
      <stop offset="1" stop-color="#80A1D4"/>
    </linearGradient>
    <linearGradient id="paint37_linear_0_1" x1="6258.83" y1="3908.89" x2="4957.33" y2="1771.74" gradientUnits="userSpaceOnUse">
      <stop stop-color="#98B1DC"/>
      <stop offset="1" stop-color="#80A1D4"/>
    </linearGradient>
    <linearGradient id="paint38_linear_0_1" x1="6112.98" y1="4188.19" x2="4756.65" y2="2041.84" gradientUnits="userSpaceOnUse">
      <stop stop-color="#98B1DC"/>
      <stop offset="1" stop-color="#80A1D4"/>
    </linearGradient>
    <linearGradient id="paint39_linear_0_1" x1="5910.02" y1="4524.25" x2="4495.72" y2="2348.05" gradientUnits="userSpaceOnUse">
      <stop stop-color="#98B1DC"/>
      <stop offset="1" stop-color="#80A1D4"/>
    </linearGradient>
    <linearGradient id="paint40_linear_0_1" x1="5748.74" y1="4738.06" x2="4335.6" y2="2559.28" gradientUnits="userSpaceOnUse">
      <stop stop-color="#98B1DC"/>
      <stop offset="1" stop-color="#80A1D4"/>
    </linearGradient>
    <linearGradient id="paint41_linear_0_1" x1="5511.39" y1="4800.6" x2="4209" y2="2664.16" gradientUnits="userSpaceOnUse">
      <stop stop-color="#98B1DC"/>
      <stop offset="1" stop-color="#80A1D4"/>
    </linearGradient>
    <linearGradient id="paint42_linear_0_1" x1="5756.65" y1="6350.93" x2="3470.89" y2="3606.37" gradientUnits="userSpaceOnUse">
      <stop stop-color="#98B1DC"/>
      <stop offset="1" stop-color="#80A1D4"/>
    </linearGradient>
    <linearGradient id="paint43_linear_0_1" x1="6071.26" y1="4216.66" x2="4408.79" y2="1885.2" gradientUnits="userSpaceOnUse">
      <stop stop-color="#98B1DC"/>
      <stop offset="1" stop-color="#80A1D4"/>
    </linearGradient>
    <linearGradient id="paint44_linear_0_1" x1="23822.8" y1="13743.9" x2="22142.7" y2="15768.4" gradientUnits="userSpaceOnUse">
      <stop stop-color="#426BB8"/>
      <stop offset="1" stop-color="#80A1D4"/>
    </linearGradient>
    <linearGradient id="paint45_linear_0_1" x1="587.908" y1="4369.87" x2="678.607" y2="4460.09" gradientUnits="userSpaceOnUse">
      <stop stop-color="#5D5BAF"/>
      <stop offset="1" stop-color="#1E47A5"/>
    </linearGradient>
    <linearGradient id="paint46_linear_0_1" x1="812.25" y1="4369.87" x2="902.222" y2="4459.75" gradientUnits="userSpaceOnUse">
      <stop stop-color="#5D5BAF"/>
      <stop offset="1" stop-color="#1E47A5"/>
    </linearGradient>
    <linearGradient id="paint47_linear_0_1" x1="1037.21" y1="4369.87" x2="1127.18" y2="4459.64" gradientUnits="userSpaceOnUse">
      <stop stop-color="#5D5BAF"/>
      <stop offset="1" stop-color="#1E47A5"/>
    </linearGradient>
    <linearGradient id="paint48_linear_0_1" x1="1268.55" y1="4369.87" x2="1358.52" y2="4460.09" gradientUnits="userSpaceOnUse">
      <stop stop-color="#5D5BAF"/>
      <stop offset="1" stop-color="#1E47A5"/>
    </linearGradient>
    <linearGradient id="paint49_linear_0_1" x1="1494.71" y1="4369.87" x2="1585.41" y2="4460.09" gradientUnits="userSpaceOnUse">
      <stop stop-color="#5D5BAF"/>
      <stop offset="1" stop-color="#1E47A5"/>
    </linearGradient>
    <linearGradient id="paint50_linear_0_1" x1="812.25" y1="4727.96" x2="902.223" y2="4817.84" gradientUnits="userSpaceOnUse">
      <stop stop-color="#5D5BAF"/>
      <stop offset="1" stop-color="#1E47A5"/>
    </linearGradient>
    <linearGradient id="paint51_linear_0_1" x1="1037.21" y1="4727.96" x2="1127.18" y2="4817.72" gradientUnits="userSpaceOnUse">
      <stop stop-color="#5D5BAF"/>
      <stop offset="1" stop-color="#1E47A5"/>
    </linearGradient>
    <linearGradient id="paint52_linear_0_1" x1="1268.55" y1="4727.96" x2="1358.52" y2="4818.17" gradientUnits="userSpaceOnUse">
      <stop stop-color="#5D5BAF"/>
      <stop offset="1" stop-color="#1E47A5"/>
    </linearGradient>
    <linearGradient id="paint53_linear_0_1" x1="1494.71" y1="4727.96" x2="1585.41" y2="4818.18" gradientUnits="userSpaceOnUse">
      <stop stop-color="#5D5BAF"/>
      <stop offset="1" stop-color="#1E47A5"/>
    </linearGradient>
    <linearGradient id="paint54_linear_0_1" x1="6932.94" y1="5306.35" x2="7928" y2="5306.35" gradientUnits="userSpaceOnUse">
      <stop stop-color="#5BD4F4"/>
      <stop offset="1" stop-color="#00A4E0"/>
    </linearGradient>
    <linearGradient id="paint55_linear_0_1" x1="3253.67" y1="5306.35" x2="3456.28" y2="5306.35" gradientUnits="userSpaceOnUse">
      <stop stop-color="#5BD4F4"/>
      <stop offset="1" stop-color="#00A4E0"/>
    </linearGradient>
    <linearGradient id="paint56_linear_0_1" x1="14374" y1="21921.3" x2="19850.9" y2="21921.3" gradientUnits="userSpaceOnUse">
      <stop stop-color="#5BD4F4"/>
      <stop offset="1" stop-color="#00A4E0"/>
    </linearGradient>
    <linearGradient id="paint57_linear_0_1" x1="3103.9" y1="22952" x2="3103.9" y2="19140.4" gradientUnits="userSpaceOnUse">
      <stop stop-color="#DCF5FC"/>
      <stop offset="1" stop-color="#00A4E0"/>
    </linearGradient>
    <linearGradient id="paint58_linear_0_1" x1="12600.7" y1="11451.9" x2="15417.8" y2="11451.9" gradientUnits="userSpaceOnUse">
      <stop stop-color="#DCF5FC"/>
      <stop offset="1" stop-color="#00A4E0"/>
    </linearGradient>
    <linearGradient id="paint59_linear_0_1" x1="14912.1" y1="7600.34" x2="18976.5" y2="7600.34" gradientUnits="userSpaceOnUse">
      <stop stop-color="#FF6E74"/>
      <stop offset="1" stop-color="#FF4839"/>
    </linearGradient>
    <linearGradient id="paint60_linear_0_1" x1="4061.07" y1="3960.12" x2="5306.03" y2="3960.12" gradientUnits="userSpaceOnUse">
      <stop stop-color="#5D5BAF"/>
      <stop offset="1" stop-color="#1E47A5"/>
    </linearGradient>
    <linearGradient id="paint61_linear_0_1" x1="6416.31" y1="14145.9" x2="10746.4" y2="14145.9" gradientUnits="userSpaceOnUse">
      <stop stop-color="#FF6E74"/>
      <stop offset="1" stop-color="#FF4839"/>
    </linearGradient>
    <linearGradient id="paint62_linear_0_1" x1="1448.91" y1="18774.4" x2="1448.91" y2="16481.5" gradientUnits="userSpaceOnUse">
      <stop stop-color="white"/>
      <stop offset="1" stop-color="#FF4839"/>
    </linearGradient>
    <linearGradient id="paint63_linear_0_1" x1="10678.3" y1="55088.2" x2="10678.3" y2="37640.6" gradientUnits="userSpaceOnUse">
      <stop stop-color="#23C7F2"/>
      <stop offset="1" stop-color="#9FE5F7"/>
    </linearGradient>
    <linearGradient id="paint64_linear_0_1" x1="10765.5" y1="17725.7" x2="15986.6" y2="17725.7" gradientUnits="userSpaceOnUse">
      <stop stop-color="#80A1D4"/>
      <stop offset="1" stop-color="#426BB8"/>
    </linearGradient>
    <linearGradient id="paint65_linear_0_1" x1="2517.71" y1="24529" x2="2517.71" y2="20893.9" gradientUnits="userSpaceOnUse">
      <stop stop-color="white"/>
      <stop offset="1" stop-color="#1E47A5"/>
    </linearGradient>
    <linearGradient id="paint66_linear_0_1" x1="884.377" y1="3737.06" x2="1004.88" y2="3737.06" gradientUnits="userSpaceOnUse">
      <stop stop-color="#5D5BAF"/>
      <stop offset="1" stop-color="#1E47A5"/>
    </linearGradient>
    <linearGradient id="paint67_linear_0_1" x1="810.072" y1="5060.34" x2="720.554" y2="5150.94" gradientUnits="userSpaceOnUse">
      <stop stop-color="#5D5BAF"/>
      <stop offset="1" stop-color="#1E47A5"/>
    </linearGradient>
    <linearGradient id="paint68_linear_0_1" x1="357.204" y1="149.429" x2="351.733" y2="162.892" gradientUnits="userSpaceOnUse">
      <stop stop-color="#5D93FF"/>
      <stop offset="1" stop-color="#877EFF"/>
    </linearGradient>
    <linearGradient id="paint69_linear_0_1" x1="78.6735" y1="194.694" x2="75" y2="204" gradientUnits="userSpaceOnUse">
      <stop stop-color="#5D93FF"/>
      <stop offset="1" stop-color="#877EFF"/>
    </linearGradient>
  </defs>
</svg>
