<svg version="1.2" xmlns="http://www.w3.org/2000/svg" viewBox="0 0 136 135" width="136" height="135"><style>.a{fill:#4676ed}.b{fill:#fff}</style><path class="a" d="m78.2 134.1v-47.1h15.7l3-19.6h-18.7v-12.6c0-5.4 2.6-10.6 11-10.6h8.5v-16.6q-7.7-1.3-15.1-1.3c-15.4 0-25.5 9.4-25.5 26.3v14.8h-17.1v19.6h17.1v47.1c-32.2-5-56.9-33-56.9-66.7 0-37.2 30.2-67.5 67.5-67.5 37.2 0 67.5 30.3 67.5 67.5 0 33.7-24.7 61.7-57 66.7z"/><path class="b" d="m78.2 87v47.1q-5.1 0.8-10.5 0.8-5.4 0-10.6-0.8v-47.1h-17.1v-19.6h17.1v-14.8c0-16.9 10.1-26.3 25.5-26.3q7.4 0 15.1 1.3v16.6h-8.5c-8.4 0-11 5.2-11 10.6v12.6h18.7l-3 19.6z"/></svg>