<svg width="411" height="450" viewBox="0 0 411 450" fill="none" xmlns="http://www.w3.org/2000/svg">
<path d="M260.09 212.6C338.559 180.815 388.21 56.3207 409.5 5L410.916 0.5V450H0.931915C0.01948 357.821 38.5776 290.52 86.0999 263.038C115.3 246.152 159.343 239.751 165.426 235.446C202.836 230.679 248.305 222.865 260.09 212.6Z" fill="url(#paint0_linear_0_1)"/>
<path d="M206.04 312.22C268.357 312.22 318.874 304.641 318.874 295.29C318.874 285.94 268.357 278.36 206.04 278.36C143.724 278.36 93.2065 285.94 93.2065 295.29C93.2065 304.641 143.724 312.22 206.04 312.22Z" fill="#588FF4"/>
<path d="M101.46 164.293C106.719 176.863 112.626 184.778 127.19 186.767C146.165 189.349 144.911 207.888 155.267 218.808C164.532 228.627 171.652 229.982 175.213 250.848C147.378 215.38 122.012 204.84 116.024 201.327C100.449 192.27 84.9131 168.694 101.46 164.293V164.293Z" fill="url(#paint1_linear_0_1)"/>
<path d="M101.46 164.293C106.719 176.863 112.626 184.778 127.19 186.767C146.165 189.349 144.911 207.888 155.267 218.808C164.532 228.627 171.652 229.982 175.213 250.848C147.378 215.38 122.012 204.84 116.024 201.327C100.449 192.27 84.9131 168.694 101.46 164.293V164.293Z" fill="url(#paint2_linear_0_1)"/>
<path d="M117.48 164.546C119.099 164.829 120.663 165.167 122.173 165.562C124.924 171.742 127.15 176.44 127.473 176.228C127.756 176.017 126.947 172.038 125.774 166.663C131.195 168.483 135.888 171.022 140.055 174.239C140.622 181.307 141.188 186.852 141.593 186.725C141.916 186.64 142.523 182.493 143.17 176.863C161.255 193.37 169.467 224.014 190.383 262.911L185.448 264.9C182.009 259.821 178.611 255.166 175.212 250.848C171.652 229.982 164.532 228.627 155.267 218.808C144.91 207.888 146.164 189.349 127.19 186.767C112.626 184.778 106.719 176.863 101.459 164.293C105.101 163.319 110.32 163.277 117.48 164.546V164.546Z" fill="url(#paint3_linear_0_1)"/>
<path d="M214.981 227.908L209.236 226.003C208.468 202.64 180.674 169.922 179.298 148.547C178.449 135.511 187.187 133.903 197.504 140.802C197.544 146.177 197.666 150.029 197.989 150.156C198.273 150.283 199.001 147.151 199.931 142.58C202.359 144.484 204.786 146.854 207.214 149.563C205.878 157.097 204.948 163.277 205.312 163.488C205.636 163.7 207.537 159.044 209.884 152.865C212.392 156.039 214.779 159.679 216.964 163.742C226.808 181.999 226.147 203.387 214.981 227.908Z" fill="#4E7DCB"/>
<path d="M234.603 259.567C230.638 230.391 232.715 210.286 240.833 199.253C253.051 182.704 249.693 184.905 255.276 171.869C260.819 158.833 270.367 156.97 267.251 170.049C264.096 183.085 270.852 185.455 266.483 198.492C262.113 211.486 262.437 221.644 240.712 252.711L234.603 259.567Z" fill="url(#paint4_linear_0_1)"/>
<path d="M243.18 257.874C243.368 239.872 245.958 223.393 250.947 208.438C255.937 193.483 258.661 183.156 259.12 177.456" stroke="white" stroke-width="1.1"/>
<path d="M303.622 195.994C298.12 200.312 274.372 214.321 251.312 253.388C252.161 232.183 259.039 229.855 266.968 218.808C275.828 206.533 272.228 188.376 290.716 183.127C304.836 179.107 309.691 170.43 313.332 157.224C330.243 159.298 317.903 184.82 303.622 195.994V195.994Z" fill="url(#paint5_linear_0_1)"/>
<g style="mix-blend-mode:multiply" opacity="0.6">
<path d="M303.622 195.994C298.12 200.312 274.372 214.321 251.312 253.388C252.161 232.183 259.039 229.855 266.968 218.808C275.828 206.533 272.228 188.376 290.716 183.127C304.836 179.107 309.691 170.43 313.332 157.224C330.243 159.298 317.903 184.82 303.622 195.994V195.994Z" fill="#588FF4"/>
</g>
<path d="M313.332 157.224C309.691 170.43 304.836 179.106 290.716 183.127C272.228 188.376 275.828 206.533 266.968 218.808C259.039 229.855 252.161 232.183 251.311 253.388C248.52 258.128 245.728 263.207 242.977 268.752L237.839 267.482C253.577 225.961 257.785 194.471 273.603 175.551C274.979 181.053 276.071 185.074 276.395 185.117C276.799 185.159 276.678 179.614 276.354 172.504C280.036 168.737 284.365 165.562 289.543 162.98C289.017 168.483 288.774 172.546 289.058 172.715C289.422 172.885 291.04 167.933 292.941 161.414C294.398 160.822 295.908 160.272 297.473 159.764C304.391 157.478 309.569 156.801 313.332 157.224V157.224Z" fill="url(#paint6_linear_0_1)"/>
<path d="M163.925 258.636C143.939 270.403 126.138 263.08 112.14 239.547C105.29 228.063 98.1152 221.517 90.6172 219.908C113.516 221.235 137.952 234.144 163.925 258.636Z" fill="#4E7DCB"/>
<path d="M163.925 258.636C137.952 234.144 113.516 221.235 90.6172 219.908C103.995 214.209 118.371 213.517 133.744 217.834C156.238 224.155 166.298 237.756 163.925 258.636Z" fill="url(#paint7_linear_0_1)"/>
<path d="M130.588 202.047C132.207 206.957 136.981 210.526 144.91 212.755C156.602 216.057 167.283 228.035 160.243 246.827C142.442 234.158 132.557 219.231 130.588 202.047V202.047Z" fill="url(#paint8_linear_0_1)"/>
<path d="M130.265 229.728C126.624 219.203 126.732 209.976 130.589 202.047C132.558 219.231 142.443 234.158 160.244 246.827C145.571 250.778 135.578 245.078 130.265 229.728V229.728Z" fill="url(#paint9_linear_0_1)"/>
<path d="M252.808 254.446C249.936 230.659 263.125 216.184 289.22 211.443C301.977 209.101 310.473 204.601 314.707 197.941C304.917 219.669 284.284 238.503 252.808 254.446V254.446Z" fill="url(#paint10_linear_0_1)"/>
<path d="M252.809 254.446C284.284 238.503 304.917 219.669 314.707 197.941C314.734 213.066 309.934 227.273 300.305 240.563C286.28 259.977 270.448 264.604 252.809 254.446V254.446Z" fill="url(#paint11_linear_0_1)"/>
<path d="M208.063 224.945C207.78 221.728 207.78 217.411 208.549 212.501C210.086 202.724 215.184 188.46 230.8 176.101C266.402 147.87 268.182 133.437 268.101 112.274H269.032C269.072 133.733 267.292 148.336 231.366 176.863C215.993 189.011 210.976 203.02 209.439 212.628C207.82 223.04 209.843 230.659 209.843 230.744L208.953 230.998C208.953 230.955 208.346 228.67 208.063 224.945V224.945Z" fill="url(#paint12_linear_0_1)"/>
<path d="M264.419 139.236C275.343 128.542 281.816 126.284 283.839 132.464C285.538 137.599 279.065 139.857 264.419 139.236Z" fill="url(#paint13_linear_0_1)"/>
<path d="M254.993 153.669C268.722 147.518 275.532 147.715 275.424 154.261C275.343 159.707 268.533 159.51 254.993 153.669Z" fill="url(#paint14_linear_0_1)"/>
<path d="M242.978 166.536C257.623 163.573 264.244 165.266 262.842 171.615C261.655 176.92 255.034 175.227 242.978 166.536Z" fill="url(#paint15_linear_0_1)"/>
<path d="M231.286 175.932C246.228 175.368 252.525 178.119 250.179 184.186C248.21 189.236 241.912 186.485 231.286 175.932Z" fill="url(#paint16_linear_0_1)"/>
<path d="M219.027 188.799C233.591 185.215 240.28 186.64 239.093 193.074C238.122 198.407 231.434 196.982 219.027 188.799Z" fill="url(#paint17_linear_0_1)"/>
<path d="M210.733 205.645C224.273 199.042 231.097 199.014 231.205 205.56C231.285 211.006 224.462 211.034 210.733 205.645Z" fill="url(#paint18_linear_0_1)"/>
<path d="M268.061 123.829C276.395 110.849 282.22 107.139 285.538 112.698C288.289 117.325 282.463 121.036 268.061 123.829Z" fill="url(#paint19_linear_0_1)"/>
<path d="M267.575 130.009C254.089 123.265 249.734 117.777 254.507 113.544C258.472 110.017 262.828 115.505 267.575 130.009Z" fill="url(#paint20_linear_0_1)"/>
<path d="M260.415 147.024C249.114 136.781 246.295 130.277 251.959 127.512C256.679 125.226 259.497 131.73 260.415 147.024Z" fill="url(#paint21_linear_0_1)"/>
<path d="M249.005 160.695C240.563 147.8 239.417 140.76 245.567 139.574C250.691 138.615 251.837 145.655 249.005 160.695Z" fill="url(#paint22_linear_0_1)"/>
<path d="M235.938 172.419C228.143 159.101 227.348 152.018 233.551 151.172C238.702 150.466 239.498 157.549 235.938 172.419Z" fill="url(#paint23_linear_0_1)"/>
<path d="M224.772 182.239C216.95 168.92 216.141 161.838 222.345 160.991C227.496 160.286 228.305 167.368 224.772 182.239Z" fill="url(#paint24_linear_0_1)"/>
<path d="M213.808 197.349C202.453 187.191 199.594 180.701 205.231 177.879C209.924 175.565 212.783 182.055 213.808 197.349Z" fill="url(#paint25_linear_0_1)"/>
<path d="M208.873 215.083C194.982 209.271 190.289 204.093 194.794 199.55C198.516 195.769 203.209 200.947 208.873 215.083Z" fill="url(#paint26_linear_0_1)"/>
<path d="M268.546 114.094C262.208 99.9295 262.167 92.7906 268.425 92.6777C273.603 92.593 273.643 99.732 268.546 114.094Z" fill="url(#paint27_linear_0_1)"/>
<path d="M227.199 250.467C224.205 249.621 220.322 248.182 216.195 245.769C207.942 240.944 196.857 231.082 191.031 211.486C177.721 166.832 165.381 160.229 146.326 153.076L146.609 152.187C165.948 159.425 178.449 166.155 191.881 211.189C197.625 230.447 208.508 240.14 216.6 244.923C225.419 250.044 232.944 250.637 233.025 250.679L232.944 251.61C232.904 251.61 230.679 251.441 227.199 250.467V250.467Z" fill="url(#paint28_linear_0_1)"/>
<path d="M169.306 165.859C163.372 151.496 163.534 144.357 169.791 144.442C174.997 144.526 174.835 151.665 169.306 165.859Z" fill="url(#paint29_linear_0_1)"/>
<path d="M179.056 180.08C178.22 164.476 180.715 157.831 186.54 160.145C191.395 162.092 188.9 168.737 179.056 180.08V180.08Z" fill="url(#paint30_linear_0_1)"/>
<path d="M186.581 196.291C188.873 180.828 192.636 174.874 197.868 178.429C202.237 181.392 198.475 187.346 186.581 196.291Z" fill="url(#paint31_linear_0_1)"/>
<path d="M191.031 210.935C195.616 196.065 200.228 190.817 204.867 195.19C208.751 198.802 204.139 204.05 191.031 210.935Z" fill="url(#paint32_linear_0_1)"/>
<path d="M198.435 227.358C200.161 211.838 203.721 205.758 209.115 209.115C213.565 211.881 210.005 217.961 198.435 227.358Z" fill="url(#paint33_linear_0_1)"/>
<path d="M210.774 241.283C209.452 225.707 211.745 218.977 217.652 221.093C222.56 222.871 220.268 229.601 210.774 241.283Z" fill="url(#paint34_linear_0_1)"/>
<path d="M156.683 157.055C147.864 144.442 146.515 137.458 152.637 136.104C157.708 134.975 159.057 141.959 156.683 157.055Z" fill="url(#paint35_linear_0_1)"/>
<path d="M162.064 159.637C151.438 170.613 145.032 173.04 142.847 166.917C141.013 161.809 147.419 159.383 162.064 159.637Z" fill="url(#paint36_linear_0_1)"/>
<path d="M174.929 172.461C161.875 180.108 155.078 180.673 154.539 174.154C154.08 168.737 160.877 168.172 174.929 172.461Z" fill="url(#paint37_linear_0_1)"/>
<path d="M183.344 188.334C168.888 192.256 162.186 190.986 163.237 184.524C164.073 179.163 170.776 180.433 183.344 188.334Z" fill="url(#paint38_linear_0_1)"/>
<path d="M189.453 205.179C174.835 208.339 168.2 206.717 169.548 200.312C170.654 195.007 177.289 196.629 189.453 205.179Z" fill="url(#paint39_linear_0_1)"/>
<path d="M194.51 219.527C179.865 222.688 173.217 221.065 174.565 214.66C175.698 209.355 182.346 210.978 194.51 219.527Z" fill="url(#paint40_linear_0_1)"/>
<path d="M204.341 235.442C191.341 243.173 184.544 243.78 183.951 237.262C183.466 231.844 190.262 231.238 204.341 235.442Z" fill="url(#paint41_linear_0_1)"/>
<path d="M218.623 246.32C208.697 258.001 202.44 260.865 199.851 254.912C197.72 249.945 203.977 247.081 218.623 246.32Z" fill="url(#paint42_linear_0_1)"/>
<path d="M148.106 153.288C133.218 154.727 126.785 152.343 128.808 146.135C130.48 140.999 136.913 143.384 148.106 153.288Z" fill="url(#paint43_linear_0_1)"/>
<path d="M316.204 242.087C311.242 243.159 306.495 247.505 301.964 255.123C292.699 270.699 280.886 275.524 267.656 267.779C284.864 251.526 301.047 242.962 316.204 242.087V242.087Z" fill="url(#paint44_linear_0_1)"/>
<path d="M287.642 240.733C297.837 237.883 307.358 238.334 316.204 242.087C301.047 242.962 284.864 251.526 267.656 267.779C266.092 253.924 272.754 244.909 287.642 240.733V240.733Z" fill="#4E7DCB"/>
<path d="M167.081 236.5H102.512C100.925 236.5 99.6392 237.845 99.6392 239.505V277.767C99.6392 279.427 100.925 280.773 102.512 280.773H167.081C168.667 280.773 169.953 279.427 169.953 277.767V239.505C169.953 237.845 168.667 236.5 167.081 236.5Z" fill="#E1F5FE"/>
<g opacity="0.4">
<path opacity="0.4" d="M115.903 236.5L158.221 280.773H102.512C100.934 280.773 99.6392 279.46 99.6392 277.81V239.505C99.6392 237.854 100.934 236.5 102.512 236.5H115.903Z" fill="white"/>
</g>
<path d="M169.427 279.503C168.901 280.265 168.052 280.773 167.081 280.773H102.512C100.934 280.773 99.6392 279.46 99.6392 277.81V239.505C99.6392 238.489 100.125 237.6 100.853 237.05C100.57 237.516 100.367 238.108 100.367 238.743V277.048C100.367 278.699 101.662 280.011 103.199 280.011H167.809C168.416 280.011 168.982 279.841 169.427 279.503V279.503Z" fill="#E1F5FE"/>
<g style="mix-blend-mode:multiply">
<path d="M164.491 258.636C164.491 259.144 164.087 259.567 163.601 259.567H105.95C105.465 259.567 105.101 259.144 105.101 258.636C105.101 258.171 105.465 257.747 105.95 257.747H163.601C164.087 257.747 164.491 258.171 164.491 258.636Z" fill="#E1F5FE"/>
</g>
<path d="M112.261 254.15L109.106 250.848L105.95 247.505C104.817 246.362 104.817 244.457 105.95 243.272C107.083 242.087 108.863 242.087 109.996 243.272L113.192 246.573L116.348 249.875C117.48 251.06 117.48 252.965 116.348 254.15C115.215 255.335 113.394 255.335 112.261 254.15V254.15Z" fill="#B3E5FC"/>
<path d="M112.464 246.573L115.62 249.875C116.752 251.06 116.752 252.965 115.62 254.15C114.487 255.335 112.666 255.335 111.534 254.15L108.378 250.848L112.464 246.573Z" fill="url(#paint45_linear_0_1)"/>
<path d="M105.222 247.505C104.089 246.362 104.089 244.457 105.222 243.272C106.355 242.087 108.175 242.087 109.268 243.272L112.464 246.574L108.378 250.848L105.222 247.505Z" fill="#E1F5FE"/>
<g style="mix-blend-mode:screen" opacity="0.5">
<path d="M113.233 251.864L106.881 245.219C106.476 244.796 106.476 244.076 106.881 243.611C107.286 243.187 107.973 243.187 108.378 243.611L114.77 250.298C115.175 250.721 115.175 251.441 114.77 251.864C114.325 252.33 113.678 252.33 113.233 251.864Z" fill="white"/>
</g>
<path d="M107.852 245.685L107.164 244.965C106.881 244.669 106.881 244.203 107.164 243.907C107.407 243.611 107.852 243.611 108.135 243.907L108.823 244.627C109.106 244.923 109.106 245.388 108.823 245.685C108.58 245.981 108.135 245.981 107.852 245.685Z" fill="white"/>
<path d="M124.278 254.15L121.122 250.848L117.966 247.505C116.834 246.362 116.834 244.457 117.966 243.272C119.059 242.087 120.879 242.087 122.012 243.272L125.168 246.573L128.364 249.875C129.456 251.06 129.456 252.965 128.364 254.15C127.231 255.335 125.41 255.335 124.278 254.15V254.15Z" fill="#B3E5FC"/>
<path d="M124.439 246.573L127.635 249.875C128.728 251.06 128.728 252.965 127.635 254.15C126.503 255.335 124.682 255.335 123.549 254.15L120.394 250.848L124.439 246.573Z" fill="url(#paint46_linear_0_1)"/>
<path d="M117.238 247.505C116.105 246.362 116.105 244.457 117.238 243.272C118.33 242.087 120.151 242.087 121.283 243.272L124.439 246.574L120.393 250.848L117.238 247.505Z" fill="#E1F5FE"/>
<g style="mix-blend-mode:screen" opacity="0.5">
<path d="M125.248 251.864L118.897 245.219C118.452 244.796 118.452 244.076 118.897 243.611C119.301 243.187 119.989 243.187 120.394 243.611L126.786 250.298C127.19 250.721 127.19 251.441 126.786 251.864C126.341 252.33 125.653 252.33 125.248 251.864Z" fill="white"/>
</g>
<path d="M119.867 245.685L119.139 244.965C118.896 244.669 118.896 244.203 119.139 243.907C119.422 243.611 119.867 243.611 120.151 243.907L120.838 244.627C121.121 244.923 121.121 245.388 120.838 245.685C120.555 245.981 120.11 245.981 119.867 245.685Z" fill="white"/>
<path d="M136.293 254.15L133.137 250.848L129.941 247.505C128.849 246.362 128.849 244.457 129.941 243.272C131.074 242.087 132.895 242.087 134.027 243.272L137.183 246.573L140.339 249.875C141.471 251.06 141.471 252.965 140.339 254.15C139.246 255.335 137.426 255.335 136.293 254.15V254.15Z" fill="#B3E5FC"/>
<path d="M136.455 246.573L139.61 249.875C140.743 251.06 140.743 252.965 139.61 254.15C138.518 255.335 136.698 255.335 135.565 254.15L132.409 250.848L136.455 246.573Z" fill="url(#paint47_linear_0_1)"/>
<path d="M129.213 247.505C128.12 246.362 128.12 244.457 129.213 243.272C130.346 242.087 132.166 242.087 133.299 243.272L136.455 246.574L132.409 250.848L129.213 247.505Z" fill="#E1F5FE"/>
<g style="mix-blend-mode:screen" opacity="0.5">
<path d="M137.264 251.864L130.912 245.219C130.467 244.796 130.467 244.076 130.912 243.611C131.317 243.187 132.005 243.187 132.409 243.611L138.761 250.298C139.206 250.721 139.206 251.441 138.761 251.864C138.356 252.33 137.669 252.33 137.264 251.864Z" fill="white"/>
</g>
<path d="M131.843 245.685L131.155 244.965C130.872 244.669 130.872 244.203 131.155 243.907C131.438 243.611 131.883 243.611 132.166 243.907L132.854 244.627C133.137 244.923 133.137 245.388 132.854 245.685C132.571 245.981 132.126 245.981 131.843 245.685Z" fill="white"/>
<path d="M148.309 254.15L145.113 250.848L141.957 247.505C140.824 246.362 140.824 244.457 141.957 243.272C143.09 242.087 144.91 242.087 146.043 243.272L149.199 246.573L152.354 249.875C153.487 251.06 153.487 252.965 152.354 254.15C151.222 255.335 149.401 255.335 148.309 254.15Z" fill="#B3E5FC"/>
<path d="M148.47 246.573L151.626 249.875C152.759 251.06 152.759 252.965 151.626 254.15C150.493 255.335 148.673 255.335 147.58 254.15L144.384 250.848L148.47 246.573Z" fill="url(#paint48_linear_0_1)"/>
<path d="M141.228 247.505C140.096 246.362 140.096 244.457 141.228 243.272C142.361 242.087 144.182 242.087 145.315 243.272L148.47 246.574L144.384 250.848L141.228 247.505Z" fill="#E1F5FE"/>
<g style="mix-blend-mode:screen" opacity="0.5">
<path d="M149.28 251.864L142.887 245.219C142.483 244.796 142.483 244.076 142.887 243.611C143.332 243.187 143.98 243.187 144.425 243.611L150.776 250.298C151.181 250.721 151.181 251.441 150.776 251.864C150.372 252.33 149.684 252.33 149.28 251.864Z" fill="white"/>
</g>
<path d="M143.858 245.685L143.17 244.965C142.887 244.669 142.887 244.203 143.17 243.907C143.454 243.611 143.899 243.611 144.141 243.907L144.87 244.627C145.112 244.923 145.112 245.388 144.87 245.685C144.586 245.981 144.141 245.981 143.858 245.685V245.685Z" fill="white"/>
<path d="M160.284 254.15L157.128 250.848L153.973 247.505C152.84 246.362 152.84 244.457 153.973 243.272C155.105 242.087 156.926 242.087 158.018 243.272L161.214 246.573L164.37 249.875C165.503 251.06 165.503 252.965 164.37 254.15C163.237 255.335 161.417 255.335 160.284 254.15Z" fill="#B3E5FC"/>
<path d="M160.486 246.573L163.642 249.875C164.774 251.06 164.774 252.965 163.642 254.15C162.509 255.335 160.688 255.335 159.556 254.15L156.4 250.848L160.486 246.573Z" fill="url(#paint49_linear_0_1)"/>
<path d="M153.245 247.505C152.112 246.362 152.112 244.457 153.245 243.272C154.377 242.087 156.198 242.087 157.29 243.272L160.486 246.574L156.4 250.848L153.245 247.505Z" fill="#E1F5FE"/>
<g style="mix-blend-mode:screen" opacity="0.5">
<path d="M161.255 251.864L154.903 245.219C154.498 244.796 154.498 244.076 154.903 243.611C155.308 243.187 155.995 243.187 156.4 243.611L162.792 250.298C163.197 250.721 163.197 251.441 162.792 251.864C162.347 252.33 161.7 252.33 161.255 251.864Z" fill="white"/>
</g>
<path d="M155.874 245.685L155.187 244.965C154.903 244.669 154.903 244.203 155.187 243.907C155.429 243.611 155.874 243.611 156.157 243.907L156.845 244.627C157.128 244.923 157.128 245.388 156.845 245.685C156.603 245.981 156.157 245.981 155.874 245.685Z" fill="white"/>
<path d="M112.261 274.043L109.106 270.741L105.95 267.44C104.817 266.255 104.817 264.35 105.95 263.165C107.083 261.98 108.863 261.98 109.996 263.165L113.192 266.467L116.348 269.81C117.48 270.953 117.48 272.858 116.348 274.043C115.215 275.228 113.394 275.228 112.261 274.043V274.043Z" fill="#B3E5FC"/>
<path d="M124.278 274.043L121.122 270.741L117.966 267.44C116.834 266.255 116.834 264.35 117.966 263.165C119.059 261.98 120.879 261.98 122.012 263.165L125.168 266.467L128.364 269.81C129.456 270.953 129.456 272.858 128.364 274.043C127.231 275.228 125.41 275.228 124.278 274.043V274.043Z" fill="#B3E5FC"/>
<path d="M124.439 266.467L127.635 269.81C128.728 270.953 128.728 272.858 127.635 274.043C126.503 275.228 124.682 275.228 123.549 274.043L120.394 270.741L124.439 266.467Z" fill="url(#paint50_linear_0_1)"/>
<path d="M117.238 267.44C116.105 266.255 116.105 264.35 117.238 263.165C118.33 261.98 120.151 261.98 121.283 263.165L124.439 266.466L120.393 270.741L117.238 267.44Z" fill="#E1F5FE"/>
<g style="mix-blend-mode:screen" opacity="0.5">
<path d="M125.248 271.757L118.897 265.112C118.452 264.689 118.452 263.969 118.897 263.546C119.301 263.08 119.989 263.08 120.394 263.546L126.786 270.191C127.19 270.614 127.19 271.334 126.786 271.757C126.341 272.223 125.653 272.223 125.248 271.757Z" fill="white"/>
</g>
<path d="M119.867 265.578L119.139 264.858C118.896 264.562 118.896 264.096 119.139 263.8C119.422 263.546 119.867 263.546 120.151 263.8L120.838 264.52C121.121 264.816 121.121 265.281 120.838 265.578C120.555 265.874 120.11 265.874 119.867 265.578Z" fill="white"/>
<path d="M136.293 274.043L133.137 270.741L129.941 267.44C128.849 266.255 128.849 264.35 129.941 263.165C131.074 261.98 132.895 261.98 134.027 263.165L137.183 266.467L140.339 269.81C141.471 270.953 141.471 272.858 140.339 274.043C139.246 275.228 137.426 275.228 136.293 274.043V274.043Z" fill="#B3E5FC"/>
<path d="M136.455 266.467L139.61 269.81C140.743 270.953 140.743 272.858 139.61 274.043C138.518 275.228 136.698 275.228 135.565 274.043L132.409 270.741L136.455 266.467Z" fill="url(#paint51_linear_0_1)"/>
<path d="M129.213 267.44C128.12 266.255 128.12 264.35 129.213 263.165C130.346 261.98 132.166 261.98 133.299 263.165L136.455 266.466L132.409 270.741L129.213 267.44Z" fill="#E1F5FE"/>
<g style="mix-blend-mode:screen" opacity="0.5">
<path d="M137.264 271.757L130.912 265.112C130.467 264.689 130.467 263.969 130.912 263.546C131.317 263.08 132.005 263.08 132.409 263.546L138.761 270.191C139.206 270.614 139.206 271.334 138.761 271.757C138.356 272.223 137.669 272.223 137.264 271.757Z" fill="white"/>
</g>
<path d="M131.843 265.578L131.155 264.858C130.872 264.562 130.872 264.096 131.155 263.8C131.438 263.546 131.883 263.546 132.166 263.8L132.854 264.52C133.137 264.816 133.137 265.281 132.854 265.578C132.571 265.874 132.126 265.874 131.843 265.578Z" fill="white"/>
<path d="M148.309 274.043L145.113 270.741L141.957 267.44C140.824 266.255 140.824 264.35 141.957 263.165C143.09 261.98 144.91 261.98 146.043 263.165L149.199 266.467L152.354 269.81C153.487 270.953 153.487 272.858 152.354 274.043C151.222 275.228 149.401 275.228 148.309 274.043Z" fill="#B3E5FC"/>
<path d="M148.47 266.467L151.626 269.81C152.759 270.953 152.759 272.858 151.626 274.043C150.493 275.228 148.673 275.228 147.58 274.043L144.384 270.741L148.47 266.467Z" fill="url(#paint52_linear_0_1)"/>
<path d="M141.228 267.44C140.096 266.255 140.096 264.35 141.228 263.165C142.361 261.98 144.182 261.98 145.315 263.165L148.47 266.466L144.384 270.741L141.228 267.44Z" fill="#E1F5FE"/>
<g style="mix-blend-mode:screen" opacity="0.5">
<path d="M149.28 271.757L142.887 265.112C142.483 264.689 142.483 263.969 142.887 263.546C143.332 263.08 143.98 263.08 144.425 263.546L150.776 270.191C151.181 270.614 151.181 271.334 150.776 271.757C150.372 272.223 149.684 272.223 149.28 271.757Z" fill="white"/>
</g>
<path d="M143.858 265.578L143.17 264.858C142.887 264.562 142.887 264.096 143.17 263.8C143.454 263.546 143.899 263.546 144.141 263.8L144.87 264.52C145.112 264.816 145.112 265.281 144.87 265.578C144.586 265.874 144.141 265.874 143.858 265.578V265.578Z" fill="white"/>
<path d="M160.284 274.043L157.128 270.741L153.973 267.44C152.84 266.255 152.84 264.35 153.973 263.165C155.105 261.98 156.926 261.98 158.018 263.165L161.214 266.467L164.37 269.81C165.503 270.953 165.503 272.858 164.37 274.043C163.237 275.228 161.417 275.228 160.284 274.043Z" fill="#B3E5FC"/>
<path d="M160.486 266.467L163.642 269.81C164.774 270.953 164.774 272.858 163.642 274.043C162.509 275.228 160.688 275.228 159.556 274.043L156.4 270.741L160.486 266.467Z" fill="url(#paint53_linear_0_1)"/>
<path d="M153.245 267.44C152.112 266.255 152.112 264.35 153.245 263.165C154.377 261.98 156.198 261.98 157.29 263.165L160.486 266.466L156.4 270.741L153.245 267.44Z" fill="#E1F5FE"/>
<g style="mix-blend-mode:screen" opacity="0.5">
<path d="M161.255 271.757L154.903 265.112C154.498 264.689 154.498 263.969 154.903 263.546C155.308 263.08 155.995 263.08 156.4 263.546L162.792 270.191C163.197 270.614 163.197 271.334 162.792 271.757C162.347 272.223 161.7 272.223 161.255 271.757Z" fill="white"/>
</g>
<path d="M155.874 265.578L155.187 264.858C154.903 264.562 154.903 264.096 155.187 263.8C155.429 263.546 155.874 263.546 156.157 263.8L156.845 264.52C157.128 264.816 157.128 265.281 156.845 265.578C156.603 265.874 156.157 265.874 155.874 265.578Z" fill="white"/>
<path d="M227.361 180.038H242.937V193.497H227.361V180.038Z" fill="#E1F5FE"/>
<path d="M224.57 169.626C224.57 167.509 226.188 165.774 228.251 165.774H242.047C244.11 165.774 245.729 167.509 245.729 169.626V182.112H224.57V169.626Z" fill="url(#paint54_linear_0_1)"/>
<path style="mix-blend-mode:screen" opacity="0.6" d="M230.436 169.626V182.112H224.57V169.626C224.57 167.509 226.188 165.774 228.251 165.774H234.118C232.054 165.774 230.436 167.509 230.436 169.626Z" fill="url(#paint55_linear_0_1)"/>
<path d="M230.112 182.112H240.186V193.497H230.112V182.112Z" fill="white"/>
<path d="M247.873 196.037H222.425V189.519C222.425 187.529 223.963 185.921 225.864 185.921H244.434C246.335 185.921 247.873 187.529 247.873 189.519V196.037Z" fill="#E1F5FE"/>
<path opacity="0.6" d="M238.365 185.921H244.434C246.335 185.921 247.873 187.529 247.873 189.519V196.037H241.804V189.519C241.804 187.529 240.267 185.921 238.365 185.921Z" fill="#81D4FA"/>
<path d="M256.126 206.872C258.634 210.131 259.97 214.152 259.97 218.3V285.979C259.97 288.814 257.825 291.058 255.115 291.058H215.184C212.473 291.058 210.329 288.814 210.329 285.979V218.3C210.329 214.152 211.664 210.131 214.172 206.872L222.426 196.037H247.873L256.126 206.872Z" fill="#E1F5FE"/>
<path d="M210.329 221.601H259.97V272.265H210.329V221.601Z" fill="url(#paint56_linear_0_1)"/>
<g style="mix-blend-mode:screen" opacity="0.4">
<path d="M225.581 291.058H215.184C212.473 291.058 210.329 288.814 210.329 285.979V218.3C210.329 214.152 211.664 210.131 214.172 206.872L222.426 196.037H225.298L224.449 197.137C221.697 200.777 220.16 205.264 220.16 209.92V285.428C220.16 288.518 222.587 291.058 225.581 291.058V291.058Z" fill="white"/>
</g>
<path style="mix-blend-mode:multiply" opacity="0.5" d="M249.693 224.607H249.653C247.485 224.607 245.729 226.445 245.729 228.712V263.885C245.729 266.152 247.485 267.99 249.653 267.99H249.693C251.861 267.99 253.618 266.152 253.618 263.885V228.712C253.618 226.445 251.861 224.607 249.693 224.607Z" fill="url(#paint57_linear_0_1)"/>
<path d="M273.158 301.131H242.371C240.065 301.131 238.204 299.184 238.204 296.772V251.399H277.325V296.772C277.325 299.184 275.464 301.131 273.158 301.131V301.131Z" fill="#E1F5FE"/>
<g style="mix-blend-mode:multiply" opacity="0.4">
<path d="M277.325 257.282H238.204V251.399H277.325V257.282Z" fill="#4FC3F7"/>
</g>
<path style="mix-blend-mode:multiply" opacity="0.5" d="M273.806 290.338H238.204V268.964H273.806V290.338Z" fill="url(#paint58_linear_0_1)"/>
<path d="M269.396 290.338H238.204V268.964H269.396V290.338Z" fill="white"/>
<g style="mix-blend-mode:screen" opacity="0.4">
<path d="M248.277 301.131H242.371C240.065 301.131 238.204 299.184 238.204 296.772V251.399H244.07V296.772C244.07 299.184 245.931 301.131 248.277 301.131V301.131Z" fill="white"/>
</g>
<path d="M277.244 236.796H238.284C237.234 236.796 236.383 237.687 236.383 238.786V250.891C236.383 251.989 237.234 252.88 238.284 252.88H277.244C278.294 252.88 279.146 251.989 279.146 250.891V238.786C279.146 237.687 278.294 236.796 277.244 236.796Z" fill="url(#paint59_linear_0_1)"/>
<g style="mix-blend-mode:screen" opacity="0.2">
<path d="M244.717 252.88H238.244C237.232 252.88 236.383 251.991 236.383 250.891V238.786C236.383 237.685 237.232 236.796 238.244 236.796H244.717C243.705 236.796 242.856 237.685 242.856 238.786V250.891C242.856 251.991 243.705 252.88 244.717 252.88Z" fill="white"/>
</g>
<g style="mix-blend-mode:multiply" opacity="0.5">
<g style="mix-blend-mode:multiply" opacity="0.5">
<path d="M241.845 252.88H240.146V241.748H241.845V252.88Z" fill="#C62828"/>
</g>
<g style="mix-blend-mode:multiply" opacity="0.5">
<path d="M246.012 252.88H244.353V241.748H246.012V252.88Z" fill="#C62828"/>
</g>
<g style="mix-blend-mode:multiply" opacity="0.5">
<path d="M250.219 252.88H248.52V241.748H250.219V252.88Z" fill="#C62828"/>
</g>
<g style="mix-blend-mode:multiply" opacity="0.5">
<path d="M254.427 252.88H252.728V241.748H254.427V252.88Z" fill="#C62828"/>
</g>
<g style="mix-blend-mode:multiply" opacity="0.5">
<path d="M258.594 252.88H256.935V241.748H258.594V252.88Z" fill="#C62828"/>
</g>
<g style="mix-blend-mode:multiply" opacity="0.5">
<path d="M262.801 252.88H261.102V241.748H262.801V252.88Z" fill="#C62828"/>
</g>
<g style="mix-blend-mode:multiply" opacity="0.5">
<path d="M267.009 252.88H265.31V241.748H267.009V252.88Z" fill="#C62828"/>
</g>
<g style="mix-blend-mode:multiply" opacity="0.5">
<path d="M271.176 252.88H269.517V241.748H271.176V252.88Z" fill="#C62828"/>
</g>
<g style="mix-blend-mode:multiply" opacity="0.5">
<path d="M275.383 252.88H273.684V241.748H275.383V252.88Z" fill="#C62828"/>
</g>
</g>
<path d="M177.316 228.162H158.382V220.247H177.316V228.162Z" fill="#81D4FA"/>
<path d="M178.045 211.782H157.695C156.779 211.782 156.036 212.559 156.036 213.517V219.273C156.036 220.232 156.779 221.009 157.695 221.009H178.045C178.961 221.009 179.703 220.232 179.703 219.273V213.517C179.703 212.559 178.961 211.782 178.045 211.782Z" fill="url(#paint60_linear_0_1)"/>
<g style="mix-blend-mode:screen" opacity="0.4">
<path d="M162.914 221.009H157.695C156.764 221.009 156.036 220.247 156.036 219.273V213.475C156.036 212.544 156.764 211.782 157.695 211.782H162.914C161.983 211.782 161.255 212.544 161.255 213.475V219.273C161.255 220.247 161.983 221.009 162.914 221.009Z" fill="white"/>
</g>
<path d="M176.062 221.009H173.715V211.782H176.062V221.009Z" fill="#8C9EFF"/>
<path d="M185.205 291.058H150.534C147.904 291.058 145.8 288.857 145.8 286.106V237.6C145.8 230.066 151.626 223.929 158.868 223.929H176.871C184.072 223.929 189.939 230.066 189.939 237.6V286.106C189.939 288.857 187.835 291.058 185.205 291.058V291.058Z" fill="#E1F5FE"/>
<path d="M189.939 272.265H145.8V242.722H189.939V272.265Z" fill="url(#paint61_linear_0_1)"/>
<g style="mix-blend-mode:screen" opacity="0.4">
<path d="M160.769 291.058H150.534C147.904 291.058 145.8 288.857 145.8 286.106V237.6C145.8 230.32 151.262 224.353 158.14 223.929C156.805 226.088 156.036 228.627 156.036 231.379V286.106C156.036 288.857 158.14 291.058 160.769 291.058V291.058Z" fill="white"/>
</g>
<path style="mix-blend-mode:multiply" opacity="0.6" d="M177.478 251.06C177.478 249.19 176.029 247.674 174.241 247.674C172.454 247.674 171.005 249.19 171.005 251.06V277.937C171.005 279.807 172.454 281.323 174.241 281.323C176.029 281.323 177.478 279.807 177.478 277.937V251.06Z" fill="url(#paint62_linear_0_1)"/>
<path d="M196.816 192.651H212.028V205.814H196.816V192.651Z" fill="#E1F5FE"/>
<path d="M199.486 194.682H209.358V205.814H199.486V194.682Z" fill="white"/>
<path d="M216.842 208.269H192.002V201.878C192.002 199.973 193.499 198.365 195.36 198.365H213.484C215.346 198.365 216.842 199.973 216.842 201.878V208.269Z" fill="#E1F5FE"/>
<path opacity="0.6" d="M207.578 198.365H213.484C215.345 198.365 216.842 199.973 216.842 201.878V208.269H210.936V201.878C210.936 199.973 209.439 198.365 207.578 198.365Z" fill="#81D4FA"/>
<path d="M224.934 218.85C227.361 222.025 228.656 225.961 228.656 230.024V296.137C228.656 298.846 226.552 301.089 223.922 301.089H184.922C182.292 301.089 180.188 298.846 180.188 296.137V230.024C180.188 225.961 181.483 222.025 183.91 218.85L192.002 208.269H216.842L224.934 218.85Z" fill="url(#paint63_linear_0_1)"/>
<path d="M180.188 233.241H228.656V271.969H180.188V233.241Z" fill="url(#paint64_linear_0_1)"/>
<g style="mix-blend-mode:screen" opacity="0.4">
<path d="M195.077 301.089H184.922C182.292 301.089 180.188 298.846 180.188 296.137V230.024C180.188 225.961 181.483 222.025 183.91 218.85L192.002 208.269H194.793L193.984 209.327C191.274 212.882 189.777 217.284 189.777 221.813V295.544C189.777 298.592 192.164 301.089 195.077 301.089Z" fill="white"/>
</g>
<path style="mix-blend-mode:multiply" opacity="0.5" d="M221.05 292.327C218.906 292.327 217.207 290.507 217.207 288.307V253.98C217.207 251.78 218.906 249.96 221.05 249.96C223.154 249.96 224.893 251.78 224.893 253.98V288.307C224.893 290.507 223.154 292.327 221.05 292.327Z" fill="url(#paint65_linear_0_1)"/>
<path d="M209.075 198.026H199.77V176.313C199.77 173.604 201.833 171.403 204.422 171.403C207.011 171.403 209.075 173.604 209.075 176.313V198.026Z" fill="white"/>
<path d="M199.77 182.408H209.075V190.365C209.075 192.1 207.74 193.497 206.081 193.497H202.763C201.105 193.497 199.77 192.1 199.77 190.365V182.408Z" fill="#E1F5FE"/>
<path d="M215.912 184.736H192.932C191.122 184.736 189.655 186.271 189.655 188.164V197.603C189.655 199.496 191.122 201.031 192.932 201.031H215.912C217.722 201.031 219.189 199.496 219.189 197.603V188.164C219.189 186.271 217.722 184.736 215.912 184.736Z" fill="white"/>
<path d="M219.189 188.164V197.603C219.189 199.507 217.733 201.031 215.912 201.031H212.23C214.051 201.031 215.507 199.507 215.507 197.603V188.164C215.507 186.26 214.051 184.736 212.23 184.736H215.912C217.733 184.736 219.189 186.26 219.189 188.164Z" fill="#E1F5FE"/>
<path fill-rule="evenodd" clip-rule="evenodd" d="M213.039 252.626C213.039 257.578 209.155 261.599 204.422 261.599C199.689 261.599 195.805 257.578 195.805 252.626C195.805 247.632 199.689 243.611 204.422 243.611C209.155 243.611 213.039 247.632 213.039 252.626ZM209.034 250.764H206.162V247.759H202.682V250.764H199.81V254.446H202.682V257.451H206.162V254.446H209.034V250.764Z" fill="white"/>
<path d="M225.662 304.517C225.554 304.404 225.46 304.306 225.379 304.221C223.76 302.528 223.76 299.819 225.379 298.126C226.876 296.56 229.263 296.475 230.881 297.83C230.989 297.914 231.083 298.013 231.164 298.126C231.272 298.239 231.366 298.352 231.447 298.465C232.782 300.158 232.701 302.613 231.164 304.221C229.667 305.787 227.28 305.872 225.662 304.517Z" fill="#B3E5FC"/>
<path d="M224.974 297.703C226.552 296.01 229.182 296.01 230.76 297.703C232.378 299.396 232.378 302.105 230.76 303.798C229.182 305.448 226.552 305.448 224.974 303.798C223.356 302.105 223.356 299.396 224.974 297.703Z" fill="#DEF6FF"/>
<path d="M230.759 297.703C230.867 297.816 230.962 297.914 231.043 297.999L225.257 304.052C225.149 303.967 225.055 303.882 224.974 303.798C224.866 303.685 224.772 303.572 224.691 303.459L230.476 297.407C230.584 297.491 230.679 297.59 230.759 297.703V297.703Z" fill="#81D4FA"/>
<path d="M213.363 304.517C213.255 304.404 213.161 304.306 213.08 304.221C211.462 302.528 211.462 299.819 213.08 298.126C214.577 296.56 216.964 296.475 218.582 297.83C218.69 297.914 218.784 298.013 218.865 298.126C218.973 298.239 219.068 298.352 219.148 298.465C220.484 300.158 220.403 302.613 218.865 304.221C217.368 305.787 214.981 305.872 213.363 304.517Z" fill="#B3E5FC"/>
<path d="M212.676 297.703C214.253 296.01 216.883 296.01 218.461 297.703C220.079 299.396 220.079 302.105 218.461 303.798C216.883 305.448 214.253 305.448 212.676 303.798C211.057 302.105 211.057 299.396 212.676 297.703Z" fill="#DEF6FF"/>
<path d="M218.461 297.703C218.569 297.816 218.663 297.914 218.744 297.999L212.958 304.052C212.851 303.967 212.756 303.882 212.675 303.798C212.567 303.685 212.473 303.572 212.392 303.459L218.177 297.407C218.285 297.491 218.38 297.59 218.461 297.703V297.703Z" fill="#81D4FA"/>
<path d="M127.433 288.434H131.883C133.502 288.434 134.796 289.788 134.796 291.439C134.796 293.089 133.502 294.444 131.883 294.444H127.433V288.434Z" fill="url(#paint66_linear_0_1)"/>
<path d="M122.942 294.444C121.364 294.444 120.07 293.089 120.07 291.439C120.07 289.788 121.364 288.434 122.942 288.434H127.433V294.444H122.942Z" fill="#E1F5FE"/>
<g style="mix-blend-mode:screen" opacity="0.5">
<path d="M131.56 291.566H122.578C121.971 291.566 121.486 291.1 121.486 290.465C121.486 289.83 121.971 289.365 122.578 289.365H131.56C132.166 289.365 132.652 289.83 132.652 290.465C132.652 291.1 132.166 291.566 131.56 291.566Z" fill="white"/>
</g>
<path d="M123.549 291.185H122.578C122.173 291.185 121.89 290.888 121.89 290.465C121.89 290.042 122.173 289.746 122.578 289.746H123.549C123.953 289.746 124.277 290.042 124.277 290.465C124.277 290.888 123.953 291.185 123.549 291.185Z" fill="white"/>
<path d="M119.584 290.55L116.429 293.851C115.296 295.036 113.475 295.036 112.343 293.851C111.25 292.708 111.25 290.804 112.343 289.619L115.539 286.317L119.584 290.55Z" fill="url(#paint67_linear_0_1)"/>
<path d="M119.584 290.55L115.539 286.317L118.694 282.973C119.827 281.831 121.648 281.831 122.74 282.973C123.873 284.159 123.873 286.063 122.74 287.248L119.584 290.55Z" fill="#E1F5FE"/>
<g style="mix-blend-mode:screen" opacity="0.5">
<path d="M113.233 291.608C112.788 291.142 112.788 290.465 113.233 290L119.584 283.354C119.989 282.931 120.677 282.931 121.081 283.354C121.526 283.778 121.526 284.497 121.081 284.92L114.73 291.608C114.325 292.031 113.637 292.031 113.233 291.608Z" fill="white"/>
</g>
<path d="M119.139 285.386C118.856 285.132 118.856 284.666 119.139 284.37L119.827 283.651C120.11 283.354 120.555 283.354 120.838 283.651C121.081 283.905 121.081 284.37 120.838 284.666L120.151 285.386C119.867 285.682 119.422 285.682 119.139 285.386Z" fill="white"/>
<circle r="10.5" transform="matrix(-1 0 0 1 222.5 82.5)" fill="url(#paint68_linear_0_1)"/>
<path fill-rule="evenodd" clip-rule="evenodd" d="M226.345 83.4858C225.622 84.5635 224.398 85.753 222.5 87C220.602 85.753 219.378 84.5635 218.655 83.4858H220.143C220.202 83.4858 220.259 83.4683 220.308 83.4355C220.356 83.4027 220.394 83.3562 220.416 83.3019L221.275 81.1688L222.216 84.4446C222.233 84.5033 222.268 84.5554 222.316 84.5934C222.364 84.6315 222.423 84.6537 222.485 84.6568C222.546 84.66 222.607 84.644 222.659 84.6111C222.71 84.5782 222.75 84.53 222.773 84.4733L223.744 82.0614L224.612 83.3558C224.639 83.3958 224.675 83.4286 224.718 83.4513C224.761 83.474 224.809 83.4858 224.857 83.4858H226.345ZM226.696 82.9001C228.644 79.1985 224.616 77.0431 222.604 78.8839C222.568 78.9161 222.534 78.9495 222.5 78.9841C222.467 78.9496 222.432 78.9163 222.396 78.8845C220.384 77.0431 216.356 79.1985 218.304 82.9001H219.944L221.048 80.1555C221.071 80.0988 221.111 80.0506 221.163 80.0177C221.215 79.9848 221.276 79.9688 221.337 79.972C221.399 79.9751 221.457 79.9973 221.506 80.0353C221.554 80.0734 221.589 80.1254 221.605 80.1842L222.546 83.46L223.405 81.3269C223.425 81.2774 223.458 81.2343 223.501 81.2022C223.544 81.1701 223.595 81.1502 223.648 81.1447C223.702 81.1393 223.755 81.1484 223.804 81.1711C223.853 81.1938 223.894 81.2292 223.924 81.2736L225.015 82.9001H226.696H226.696Z" fill="#F7F9FE"/>
<circle cx="72" cy="198" r="11" fill="url(#paint69_linear_0_1)"/>
<g clip-path="url(#clip0_0_1)">
<path d="M70.2834 191.939V196.283H65.9387V199.717H70.2834V204.061H73.7165V199.717H78.0612V196.283H73.7165V191.939H70.2834Z" fill="#F7F9FE"/>
</g>
<path d="M79.4512 415V421.451H73V426.549H79.4512V433H84.5488V426.549H91V421.451H84.5488V415H79.4512Z" fill="#C5D9FE"/>
<path d="M299.619 339.619H300.619V338.619V326H309.381V338.619V339.619H310.381H323V348.381H310.381H309.381V349.381V362H300.619V349.381V348.381H299.619H287V339.619H299.619Z" stroke="white" stroke-width="2"/>
<path d="M361.469 173V184.469H350V193.531H361.469V205H370.531V193.531H382V184.469H370.531V173H361.469Z" fill="#F7F9FE"/>
<defs>
<linearGradient id="paint0_linear_0_1" x1="143.161" y1="275.704" x2="216.591" y2="445.38" gradientUnits="userSpaceOnUse">
<stop stop-color="#5D93FF"/>
<stop offset="1" stop-color="#877EFF"/>
</linearGradient>
<linearGradient id="paint1_linear_0_1" x1="2600.68" y1="35825.3" x2="20892.4" y2="51786.9" gradientUnits="userSpaceOnUse">
<stop stop-color="#5BD4F4"/>
<stop offset="1" stop-color="#DCF5FC"/>
</linearGradient>
<linearGradient id="paint2_linear_0_1" x1="4249.99" y1="31748.5" x2="18721.9" y2="31748.5" gradientUnits="userSpaceOnUse">
<stop stop-color="#5BD4F4"/>
<stop offset="1" stop-color="#DCF5FC"/>
</linearGradient>
<linearGradient id="paint3_linear_0_1" x1="4378.7" y1="36964.5" x2="23924.2" y2="36964.5" gradientUnits="userSpaceOnUse">
<stop stop-color="#9FE5F7"/>
<stop offset="1" stop-color="#5BD4F4"/>
</linearGradient>
<linearGradient id="paint4_linear_0_1" x1="12401.1" y1="57695.4" x2="24205.8" y2="42555.1" gradientUnits="userSpaceOnUse">
<stop stop-color="#5BD4F4"/>
<stop offset="1" stop-color="#9FE5F7"/>
</linearGradient>
<linearGradient id="paint5_linear_0_1" x1="42174.7" y1="37516.8" x2="23772.6" y2="53961.8" gradientUnits="userSpaceOnUse">
<stop stop-color="#80A1D4"/>
<stop offset="1" stop-color="#426BB8"/>
</linearGradient>
<linearGradient id="paint6_linear_0_1" x1="45555.9" y1="41399.4" x2="22965.8" y2="60103.1" gradientUnits="userSpaceOnUse">
<stop stop-color="#80A1D4"/>
<stop offset="1" stop-color="#426BB8"/>
</linearGradient>
<linearGradient id="paint7_linear_0_1" x1="127.441" y1="20594.7" x2="14146.2" y2="26498.8" gradientUnits="userSpaceOnUse">
<stop stop-color="#80A1D4"/>
<stop offset="1" stop-color="#426BB8"/>
</linearGradient>
<linearGradient id="paint8_linear_0_1" x1="5401.46" y1="25906" x2="2399.18" y2="23020.6" gradientUnits="userSpaceOnUse">
<stop stop-color="#00A4E0"/>
<stop offset="1" stop-color="#5BD4F4"/>
</linearGradient>
<linearGradient id="paint9_linear_0_1" x1="5514.95" y1="27361.1" x2="1998.25" y2="24740.9" gradientUnits="userSpaceOnUse">
<stop stop-color="#5BD4F4"/>
<stop offset="1" stop-color="#00A4E0"/>
</linearGradient>
<linearGradient id="paint10_linear_0_1" x1="36048.4" y1="28665" x2="29763.6" y2="33193.3" gradientUnits="userSpaceOnUse">
<stop stop-color="#5BD4F4"/>
<stop offset="1" stop-color="#DCF5FC"/>
</linearGradient>
<linearGradient id="paint11_linear_0_1" x1="37119.8" y1="30561.1" x2="30853.8" y2="37022.8" gradientUnits="userSpaceOnUse">
<stop stop-color="#DCF5FC"/>
<stop offset="1" stop-color="#5BD4F4"/>
</linearGradient>
<linearGradient id="paint12_linear_0_1" x1="18263.3" y1="63154.3" x2="36497.4" y2="27751.3" gradientUnits="userSpaceOnUse">
<stop stop-color="#426BB8"/>
<stop offset="1" stop-color="#80A1D4"/>
</linearGradient>
<linearGradient id="paint13_linear_0_1" x1="8218.81" y1="4806.77" x2="8536.6" y2="2510.94" gradientUnits="userSpaceOnUse">
<stop stop-color="#426BB8"/>
<stop offset="1" stop-color="#80A1D4"/>
</linearGradient>
<linearGradient id="paint14_linear_0_1" x1="8294.96" y1="4172.17" x2="8491.05" y2="2495" gradientUnits="userSpaceOnUse">
<stop stop-color="#426BB8"/>
<stop offset="1" stop-color="#80A1D4"/>
</linearGradient>
<linearGradient id="paint15_linear_0_1" x1="7686.85" y1="4623.98" x2="7928.26" y2="2703.4" gradientUnits="userSpaceOnUse">
<stop stop-color="#426BB8"/>
<stop offset="1" stop-color="#80A1D4"/>
</linearGradient>
<linearGradient id="paint16_linear_0_1" x1="6896.86" y1="5451.62" x2="7276.26" y2="2879.79" gradientUnits="userSpaceOnUse">
<stop stop-color="#426BB8"/>
<stop offset="1" stop-color="#80A1D4"/>
</linearGradient>
<linearGradient id="paint17_linear_0_1" x1="6852.94" y1="4723.72" x2="7079.52" y2="2881.88" gradientUnits="userSpaceOnUse">
<stop stop-color="#426BB8"/>
<stop offset="1" stop-color="#80A1D4"/>
</linearGradient>
<linearGradient id="paint18_linear_0_1" x1="6792.42" y1="4681.69" x2="6987.75" y2="3007.86" gradientUnits="userSpaceOnUse">
<stop stop-color="#426BB8"/>
<stop offset="1" stop-color="#80A1D4"/>
</linearGradient>
<linearGradient id="paint19_linear_0_1" x1="7552.74" y1="6508.96" x2="8243.54" y2="3045.44" gradientUnits="userSpaceOnUse">
<stop stop-color="#426BB8"/>
<stop offset="1" stop-color="#80A1D4"/>
</linearGradient>
<linearGradient id="paint20_linear_0_1" x1="5668.29" y1="8706.57" x2="7172.97" y2="3862.08" gradientUnits="userSpaceOnUse">
<stop stop-color="#426BB8"/>
<stop offset="1" stop-color="#80A1D4"/>
</linearGradient>
<linearGradient id="paint21_linear_0_1" x1="4290.52" y1="10355.5" x2="6806.99" y2="4987.76" gradientUnits="userSpaceOnUse">
<stop stop-color="#426BB8"/>
<stop offset="1" stop-color="#80A1D4"/>
</linearGradient>
<linearGradient id="paint22_linear_0_1" x1="3273.19" y1="11309.1" x2="6676.98" y2="5959.53" gradientUnits="userSpaceOnUse">
<stop stop-color="#426BB8"/>
<stop offset="1" stop-color="#80A1D4"/>
</linearGradient>
<linearGradient id="paint23_linear_0_1" x1="2979.89" y1="11337.6" x2="6485.6" y2="5943.44" gradientUnits="userSpaceOnUse">
<stop stop-color="#426BB8"/>
<stop offset="1" stop-color="#80A1D4"/>
</linearGradient>
<linearGradient id="paint24_linear_0_1" x1="2763.63" y1="11262.2" x2="6268.79" y2="5863.43" gradientUnits="userSpaceOnUse">
<stop stop-color="#426BB8"/>
<stop offset="1" stop-color="#80A1D4"/>
</linearGradient>
<linearGradient id="paint25_linear_0_1" x1="3244.81" y1="10335.6" x2="5738.43" y2="4969.62" gradientUnits="userSpaceOnUse">
<stop stop-color="#426BB8"/>
<stop offset="1" stop-color="#80A1D4"/>
</linearGradient>
<linearGradient id="paint26_linear_0_1" x1="4302.69" y1="8755.92" x2="5604.43" y2="4142.89" gradientUnits="userSpaceOnUse">
<stop stop-color="#426BB8"/>
<stop offset="1" stop-color="#80A1D4"/>
</linearGradient>
<linearGradient id="paint27_linear_0_1" x1="3517.11" y1="11701" x2="7213.24" y2="6121.05" gradientUnits="userSpaceOnUse">
<stop stop-color="#426BB8"/>
<stop offset="1" stop-color="#80A1D4"/>
</linearGradient>
<linearGradient id="paint28_linear_0_1" x1="32476.3" y1="59119.9" x2="4294.36" y2="42094.2" gradientUnits="userSpaceOnUse">
<stop stop-color="#98B1DC"/>
<stop offset="1" stop-color="#80A1D4"/>
</linearGradient>
<linearGradient id="paint29_linear_0_1" x1="2925.12" y1="10120.7" x2="1152.56" y2="9627.47" gradientUnits="userSpaceOnUse">
<stop stop-color="#98B1DC"/>
<stop offset="1" stop-color="#80A1D4"/>
</linearGradient>
<linearGradient id="paint30_linear_0_1" x1="3720.48" y1="10102.8" x2="1219.71" y2="9248.87" gradientUnits="userSpaceOnUse">
<stop stop-color="#98B1DC"/>
<stop offset="1" stop-color="#80A1D4"/>
</linearGradient>
<linearGradient id="paint31_linear_0_1" x1="4959.62" y1="9957.39" x2="1514.42" y2="8305.93" gradientUnits="userSpaceOnUse">
<stop stop-color="#98B1DC"/>
<stop offset="1" stop-color="#80A1D4"/>
</linearGradient>
<linearGradient id="paint32_linear_0_1" x1="5719.7" y1="9583.96" x2="1932.58" y2="7273.85" gradientUnits="userSpaceOnUse">
<stop stop-color="#98B1DC"/>
<stop offset="1" stop-color="#80A1D4"/>
</linearGradient>
<linearGradient id="paint33_linear_0_1" x1="4642.04" y1="10927.6" x2="1315.96" y2="9418.15" gradientUnits="userSpaceOnUse">
<stop stop-color="#98B1DC"/>
<stop offset="1" stop-color="#80A1D4"/>
</linearGradient>
<linearGradient id="paint34_linear_0_1" x1="3664.71" y1="11665.3" x2="1319.45" y2="10894.6" gradientUnits="userSpaceOnUse">
<stop stop-color="#98B1DC"/>
<stop offset="1" stop-color="#80A1D4"/>
</linearGradient>
<linearGradient id="paint35_linear_0_1" x1="2925.92" y1="9943.58" x2="979.807" y2="9370.93" gradientUnits="userSpaceOnUse">
<stop stop-color="#98B1DC"/>
<stop offset="1" stop-color="#80A1D4"/>
</linearGradient>
<linearGradient id="paint36_linear_0_1" x1="6772.6" y1="5338.76" x2="4585.11" y2="2543.58" gradientUnits="userSpaceOnUse">
<stop stop-color="#98B1DC"/>
<stop offset="1" stop-color="#80A1D4"/>
</linearGradient>
<linearGradient id="paint37_linear_0_1" x1="6931.28" y1="4554.2" x2="5380.55" y2="2126.88" gradientUnits="userSpaceOnUse">
<stop stop-color="#98B1DC"/>
<stop offset="1" stop-color="#80A1D4"/>
</linearGradient>
<linearGradient id="paint38_linear_0_1" x1="6769.08" y1="4880.06" x2="5155.36" y2="2445.81" gradientUnits="userSpaceOnUse">
<stop stop-color="#98B1DC"/>
<stop offset="1" stop-color="#80A1D4"/>
</linearGradient>
<linearGradient id="paint39_linear_0_1" x1="6543.37" y1="5272.12" x2="4862.58" y2="2806.81" gradientUnits="userSpaceOnUse">
<stop stop-color="#98B1DC"/>
<stop offset="1" stop-color="#80A1D4"/>
</linearGradient>
<linearGradient id="paint40_linear_0_1" x1="6364.01" y1="5521.56" x2="4684.46" y2="3053.13" gradientUnits="userSpaceOnUse">
<stop stop-color="#98B1DC"/>
<stop offset="1" stop-color="#80A1D4"/>
</linearGradient>
<linearGradient id="paint41_linear_0_1" x1="6100.05" y1="5594.53" x2="4548.31" y2="3168.11" gradientUnits="userSpaceOnUse">
<stop stop-color="#98B1DC"/>
<stop offset="1" stop-color="#80A1D4"/>
</linearGradient>
<linearGradient id="paint42_linear_0_1" x1="6372.8" y1="7403.24" x2="3685.88" y2="4327.87" gradientUnits="userSpaceOnUse">
<stop stop-color="#98B1DC"/>
<stop offset="1" stop-color="#80A1D4"/>
</linearGradient>
<linearGradient id="paint43_linear_0_1" x1="6722.69" y1="4913.28" x2="4754.67" y2="2282.38" gradientUnits="userSpaceOnUse">
<stop stop-color="#98B1DC"/>
<stop offset="1" stop-color="#80A1D4"/>
</linearGradient>
<linearGradient id="paint44_linear_0_1" x1="26464.3" y1="16028.3" x2="24489" y2="18297.2" gradientUnits="userSpaceOnUse">
<stop stop-color="#426BB8"/>
<stop offset="1" stop-color="#80A1D4"/>
</linearGradient>
<linearGradient id="paint45_linear_0_1" x1="624.606" y1="5092.01" x2="730.274" y2="5192.2" gradientUnits="userSpaceOnUse">
<stop stop-color="#5D5BAF"/>
<stop offset="1" stop-color="#1E47A5"/>
</linearGradient>
<linearGradient id="paint46_linear_0_1" x1="874.099" y1="5092.01" x2="978.941" y2="5191.84" gradientUnits="userSpaceOnUse">
<stop stop-color="#5D5BAF"/>
<stop offset="1" stop-color="#1E47A5"/>
</linearGradient>
<linearGradient id="paint47_linear_0_1" x1="1124.28" y1="5092.01" x2="1229.12" y2="5191.71" gradientUnits="userSpaceOnUse">
<stop stop-color="#5D5BAF"/>
<stop offset="1" stop-color="#1E47A5"/>
</linearGradient>
<linearGradient id="paint48_linear_0_1" x1="1381.55" y1="5092.01" x2="1486.41" y2="5192.24" gradientUnits="userSpaceOnUse">
<stop stop-color="#5D5BAF"/>
<stop offset="1" stop-color="#1E47A5"/>
</linearGradient>
<linearGradient id="paint49_linear_0_1" x1="1633.07" y1="5092.01" x2="1738.74" y2="5192.2" gradientUnits="userSpaceOnUse">
<stop stop-color="#5D5BAF"/>
<stop offset="1" stop-color="#1E47A5"/>
</linearGradient>
<linearGradient id="paint50_linear_0_1" x1="874.099" y1="5509.76" x2="978.941" y2="5609.6" gradientUnits="userSpaceOnUse">
<stop stop-color="#5D5BAF"/>
<stop offset="1" stop-color="#1E47A5"/>
</linearGradient>
<linearGradient id="paint51_linear_0_1" x1="1124.28" y1="5509.76" x2="1229.12" y2="5609.47" gradientUnits="userSpaceOnUse">
<stop stop-color="#5D5BAF"/>
<stop offset="1" stop-color="#1E47A5"/>
</linearGradient>
<linearGradient id="paint52_linear_0_1" x1="1381.55" y1="5509.76" x2="1486.41" y2="5609.99" gradientUnits="userSpaceOnUse">
<stop stop-color="#5D5BAF"/>
<stop offset="1" stop-color="#1E47A5"/>
</linearGradient>
<linearGradient id="paint53_linear_0_1" x1="1633.07" y1="5509.76" x2="1738.74" y2="5609.96" gradientUnits="userSpaceOnUse">
<stop stop-color="#5D5BAF"/>
<stop offset="1" stop-color="#1E47A5"/>
</linearGradient>
<linearGradient id="paint54_linear_0_1" x1="7680.96" y1="6184.57" x2="8787.57" y2="6184.57" gradientUnits="userSpaceOnUse">
<stop stop-color="#5BD4F4"/>
<stop offset="1" stop-color="#00A4E0"/>
</linearGradient>
<linearGradient id="paint55_linear_0_1" x1="3589.22" y1="6184.57" x2="3814.54" y2="6184.57" gradientUnits="userSpaceOnUse">
<stop stop-color="#5BD4F4"/>
<stop offset="1" stop-color="#00A4E0"/>
</linearGradient>
<linearGradient id="paint56_linear_0_1" x1="15956.3" y1="25568.6" x2="22047.2" y2="25568.6" gradientUnits="userSpaceOnUse">
<stop stop-color="#5BD4F4"/>
<stop offset="1" stop-color="#00A4E0"/>
</linearGradient>
<linearGradient id="paint57_linear_0_1" x1="3422.66" y1="26771.1" x2="3422.66" y2="22324.3" gradientUnits="userSpaceOnUse">
<stop stop-color="#DCF5FC"/>
<stop offset="1" stop-color="#00A4E0"/>
</linearGradient>
<linearGradient id="paint58_linear_0_1" x1="13984.1" y1="13354.4" x2="17117.1" y2="13354.4" gradientUnits="userSpaceOnUse">
<stop stop-color="#DCF5FC"/>
<stop offset="1" stop-color="#00A4E0"/>
</linearGradient>
<linearGradient id="paint59_linear_0_1" x1="16554.7" y1="8860.89" x2="21074.7" y2="8860.89" gradientUnits="userSpaceOnUse">
<stop stop-color="#FF6E74"/>
<stop offset="1" stop-color="#FF4839"/>
</linearGradient>
<linearGradient id="paint60_linear_0_1" x1="4487.14" y1="4613.97" x2="5871.67" y2="4613.97" gradientUnits="userSpaceOnUse">
<stop stop-color="#5D5BAF"/>
<stop offset="1" stop-color="#1E47A5"/>
</linearGradient>
<linearGradient id="paint61_linear_0_1" x1="7106.41" y1="16497.4" x2="11921.9" y2="16497.4" gradientUnits="userSpaceOnUse">
<stop stop-color="#FF6E74"/>
<stop offset="1" stop-color="#FF4839"/>
</linearGradient>
<linearGradient id="paint62_linear_0_1" x1="1582.14" y1="21897.3" x2="1582.14" y2="19222.3" gradientUnits="userSpaceOnUse">
<stop stop-color="white"/>
<stop offset="1" stop-color="#FF4839"/>
</linearGradient>
<linearGradient id="paint63_linear_0_1" x1="11846.2" y1="64263.4" x2="11846.2" y2="43907.9" gradientUnits="userSpaceOnUse">
<stop stop-color="#23C7F2"/>
<stop offset="1" stop-color="#9FE5F7"/>
</linearGradient>
<linearGradient id="paint64_linear_0_1" x1="11943.2" y1="20673.8" x2="17749.6" y2="20673.8" gradientUnits="userSpaceOnUse">
<stop stop-color="#80A1D4"/>
<stop offset="1" stop-color="#426BB8"/>
</linearGradient>
<linearGradient id="paint65_linear_0_1" x1="2770.75" y1="28611" x2="2770.75" y2="24370" gradientUnits="userSpaceOnUse">
<stop stop-color="white"/>
<stop offset="1" stop-color="#1E47A5"/>
</linearGradient>
<linearGradient id="paint66_linear_0_1" x1="954.313" y1="4353.75" x2="1088.32" y2="4353.75" gradientUnits="userSpaceOnUse">
<stop stop-color="#5D5BAF"/>
<stop offset="1" stop-color="#1E47A5"/>
</linearGradient>
<linearGradient id="paint67_linear_0_1" x1="871.677" y1="5897.56" x2="767.298" y2="5998.26" gradientUnits="userSpaceOnUse">
<stop stop-color="#5D5BAF"/>
<stop offset="1" stop-color="#1E47A5"/>
</linearGradient>
<linearGradient id="paint68_linear_0_1" x1="13.7143" y1="12.8571" x2="10.5" y2="21" gradientUnits="userSpaceOnUse">
<stop stop-color="#5D93FF"/>
<stop offset="1" stop-color="#877EFF"/>
</linearGradient>
<linearGradient id="paint69_linear_0_1" x1="75.3673" y1="200.469" x2="72" y2="209" gradientUnits="userSpaceOnUse">
<stop stop-color="#5D93FF"/>
<stop offset="1" stop-color="#877EFF"/>
</linearGradient>
<clipPath id="clip0_0_1">
<rect width="12.1224" height="12.1224" fill="white" transform="translate(65.9387 191.939)"/>
</clipPath>
</defs>
</svg>
