<svg width="768" height="269" viewBox="0 0 768 269" fill="none" xmlns="http://www.w3.org/2000/svg">
<path d="M770 269V0H329.656V76.0129C329.656 89.4629 310.674 93.5386 302.385 93.5386V108.619V137.149H158.01V0H123.253V19.1561V182.39C116.302 197.47 100.805 190.326 98.9236 182.39V93.5386V0H0V269H770Z" fill="url(#paint0_linear_0_1)"/>
<path d="M122 0H302V209C302 242.137 275.137 269 242 269H182C148.863 269 122 242.137 122 209V0Z" fill="#DDE9FF"/>
<ellipse cx="352" cy="145.5" rx="17" ry="17.5" fill="url(#paint1_linear_0_1)"/>
<path fill-rule="evenodd" clip-rule="evenodd" d="M345.774 147.143C346.945 148.939 348.927 150.922 352 153C355.073 150.922 357.055 148.939 358.226 147.143H355.817C355.721 147.143 355.628 147.114 355.549 147.059C355.47 147.004 355.409 146.927 355.374 146.836L353.984 143.281L352.459 148.741C352.432 148.839 352.375 148.926 352.297 148.989C352.22 149.052 352.124 149.089 352.025 149.095C351.926 149.1 351.827 149.073 351.743 149.018C351.659 148.964 351.594 148.883 351.557 148.789L349.986 144.769L348.581 146.926C348.537 146.993 348.478 147.048 348.409 147.085C348.339 147.123 348.262 147.143 348.184 147.143H345.774ZM345.206 146.167C342.052 139.997 348.575 136.405 351.832 139.473C351.889 139.527 351.946 139.583 352 139.64C352.054 139.583 352.11 139.527 352.168 139.474C355.425 136.405 361.948 139.997 358.793 146.167H356.138L354.35 141.592C354.313 141.498 354.248 141.418 354.164 141.363C354.08 141.308 353.982 141.281 353.883 141.287C353.783 141.292 353.688 141.329 353.61 141.392C353.532 141.456 353.476 141.542 353.448 141.64L351.925 147.1L350.535 143.545C350.502 143.462 350.448 143.39 350.379 143.337C350.31 143.283 350.227 143.25 350.141 143.241C350.055 143.232 349.967 143.247 349.889 143.285C349.81 143.323 349.743 143.382 349.695 143.456L347.928 146.167H345.207H345.206Z" fill="#F7F9FE"/>
<circle cx="75" cy="192" r="12" fill="url(#paint2_linear_0_1)"/>
<path fill-rule="evenodd" clip-rule="evenodd" d="M70.6057 193.127C71.4321 194.358 72.8309 195.718 75.0002 197.143C77.1696 195.718 78.5684 194.358 79.3948 193.127H77.6942C77.627 193.127 77.5613 193.107 77.5056 193.069C77.4499 193.032 77.4067 192.978 77.3817 192.916L76.4004 190.479L75.3242 194.222C75.305 194.29 75.2651 194.349 75.2101 194.393C75.1552 194.436 75.0879 194.461 75.0178 194.465C74.9476 194.469 74.8781 194.45 74.8189 194.413C74.7597 194.375 74.7139 194.32 74.6877 194.255L73.5785 191.499L72.5864 192.978C72.5556 193.024 72.5139 193.061 72.4651 193.087C72.4162 193.113 72.3617 193.127 72.3063 193.127H70.6057ZM70.2043 192.457C67.9784 188.227 72.5824 185.764 74.8817 187.867C74.9221 187.904 74.9619 187.942 75.0002 187.982C75.0382 187.942 75.0778 187.904 75.1188 187.868C77.4181 185.764 82.0221 188.227 79.7955 192.457H77.9212L76.6591 189.321C76.6329 189.256 76.5871 189.201 76.5279 189.163C76.4687 189.125 76.3992 189.107 76.329 189.111C76.2589 189.114 76.1916 189.14 76.1367 189.183C76.0817 189.227 76.0419 189.286 76.0226 189.353L74.947 193.097L73.9658 190.659C73.9429 190.603 73.9049 190.553 73.856 190.517C73.807 190.48 73.7489 190.457 73.6879 190.451C73.6269 190.445 73.5654 190.455 73.5099 190.481C73.4544 190.507 73.4071 190.548 73.3731 190.598L72.1258 192.457H70.2049H70.2043Z" fill="#F7F9FE"/>
<path d="M375.694 52.0527H376.694V51.0527V37H386.306V51.0527V52.0527H387.306H401V61.9473H387.306H386.306V62.9473V77H376.694V62.9473V61.9473H375.694H362V52.0527H375.694Z" stroke="white" stroke-width="2"/>
<path d="M364.168 217V224.168H357V229.832H364.168V237H369.832V229.832H377V224.168H369.832V217H364.168Z" fill="#C5D9FE"/>
<path d="M49.168 58V65.168H42V70.832H49.168V78H54.832V70.832H62V65.168H54.832V58H49.168Z" fill="#C5D9FE"/>
<defs>
<linearGradient id="paint0_linear_0_1" x1="385" y1="3.26993e-06" x2="385" y2="318.957" gradientUnits="userSpaceOnUse">
<stop stop-color="#DDE9FF"/>
<stop offset="1" stop-color="#F7F9FE" stop-opacity="0"/>
</linearGradient>
<linearGradient id="paint1_linear_0_1" x1="357.204" y1="149.429" x2="351.733" y2="162.892" gradientUnits="userSpaceOnUse">
<stop stop-color="#5D93FF"/>
<stop offset="1" stop-color="#877EFF"/>
</linearGradient>
<linearGradient id="paint2_linear_0_1" x1="78.6735" y1="194.694" x2="75" y2="204" gradientUnits="userSpaceOnUse">
<stop stop-color="#5D93FF"/>
<stop offset="1" stop-color="#877EFF"/>
</linearGradient>
</defs>
</svg>
