<svg version="1.2" xmlns="http://www.w3.org/2000/svg" viewBox="0 0 136 135" width="136" height="135"><style>.a{fill:#5a99ec}.b{fill:#fff}</style><circle class="a" cx="68.3" cy="67.4" r="67.5"/><path class="b" d="m27.2 98.3q2.1 0.2 4.3 0.2c8.4 0 16.1-2.8 22.3-7.7-7.9-0.1-14.5-5.3-16.8-12.4q1.6 0.3 3.4 0.3 2.4 0 4.7-0.6c-8.2-1.7-14.4-8.9-14.4-17.6q0-0.1 0-0.2c2.4 1.3 5.2 2.1 8.1 2.2-4.8-3.2-7.9-8.7-7.9-14.9 0-3.3 0.9-6.3 2.4-9 8.8 10.8 22 18 36.9 18.7q-0.4-1.9-0.4-4.1c0-9.9 8-17.9 17.9-17.9 5.2 0 9.8 2.2 13.1 5.7 4.1-0.8 7.9-2.3 11.4-4.4-1.4 4.2-4.2 7.7-7.9 9.9 3.6-0.4 7.1-1.3 10.3-2.8-2.4 3.6-5.5 6.8-9 9.3q0.1 1.2 0.1 2.3c0 23.7-18 51-51 51-10.1 0-19.6-2.9-27.5-8z"/></svg>