<?xml version="1.0" ?><svg width="64px" height="64px" viewBox="0 0 64 64" xmlns="http://www.w3.org/2000/svg"><defs><style>.cls-1{fill:#47568c;}.cls-2{fill:#61729b;}.cls-3{fill:#f2f2fc;}.cls-4{fill:#4bb9ec;}.cls-5{fill:#ffcebf;}.cls-6{fill:#fdbf00;}.cls-7{fill:#f03800;}</style></defs><title/><g id="ads"><rect class="cls-1" height="6" width="14" x="25" y="47"/><rect class="cls-2" height="2" width="22" x="21" y="55"/><path class="cls-3" d="M5,45H59V7H5Zm16-3a1,1,0,0,1-1,1H16a1,1,0,0,1-1-1V34a1,1,0,0,1,1-1h4a1,1,0,0,1,1,1Zm8,0a1,1,0,0,1-1,1H24a1,1,0,0,1-1-1V32a1,1,0,0,1,1-1h4a1,1,0,0,1,1,1Zm8,0a1,1,0,0,1-1,1H32a1,1,0,0,1-1-1V30a1,1,0,0,1,1-1h4a1,1,0,0,1,1,1Zm6-32a1,1,0,0,1,1-1H56a1,1,0,0,1,1,1V26a1,1,0,0,1-1,1H44a1,1,0,0,1-1-1Zm1,19H56a1,1,0,0,1,0,2H44a1,1,0,0,1,0-2Zm0,4H56a1,1,0,0,1,0,2H44a1,1,0,0,1,0-2Zm0,4H56a1,1,0,0,1,0,2H44a1,1,0,0,1,0-2Zm0,4H56a1,1,0,0,1,0,2H44a1,1,0,0,1,0-2ZM7,10A1,1,0,0,1,8,9H36a1,1,0,0,1,1,1V26a1,1,0,0,1-1,1H8a1,1,0,0,1-1-1ZM7,38a1,1,0,0,1,1-1h4a1,1,0,0,1,1,1v4a1,1,0,0,1-1,1H8a1,1,0,0,1-1-1Z"/><path d="M60,5H4A1,1,0,0,0,3,6V46a1,1,0,0,0,1,1H23v6H20a1,1,0,0,0-1,1v4a1,1,0,0,0,1,1H44a1,1,0,0,0,1-1V54a1,1,0,0,0-1-1H41V47H60a1,1,0,0,0,1-1V6A1,1,0,0,0,60,5ZM43,57H21V55H43Zm-4-4H25V47H39Zm20-8H5V7H59Z"/><polygon class="cls-4" points="13.365 18.219 14.379 18.219 13.872 16.698 13.365 18.219"/><path class="cls-4" d="M35,11H9V25H35ZM17.03,23.009a1,1,0,0,1-1.265-.632l-.719-2.158H12.7l-.719,2.158a1,1,0,0,1-1.9-.633l2.841-8.525a1,1,0,0,1,1.9,0l2.841,8.525A1,1,0,0,1,17.03,23.009ZM20.556,23h-.711a1,1,0,0,1-1-1V13.475a1,1,0,0,1,1-1h.711a5.263,5.263,0,0,1,0,10.525Zm9.525-6.263a3.132,3.132,0,1,1-3.132,3.132,1,1,0,0,1,2,0,1.132,1.132,0,1,0,1.132-1.132,3.131,3.131,0,1,1,3.131-3.131,1,1,0,1,1-2,0,1.132,1.132,0,1,0-1.131,1.131Z"/><path class="cls-4" d="M20.845,14.488v6.5a3.262,3.262,0,0,0,0-6.5Z"/><path d="M8,27H36a1,1,0,0,0,1-1V10a1,1,0,0,0-1-1H8a1,1,0,0,0-1,1V26A1,1,0,0,0,8,27ZM9,11H35V25H9Z"/><path d="M14.821,13.219a1,1,0,0,0-1.9,0l-2.841,8.525a1,1,0,0,0,1.9.633l.719-2.158h2.348l.719,2.158a1,1,0,1,0,1.9-.633Zm-1.456,5,.507-1.521.507,1.521Z"/><path d="M20.556,12.475h-.711a1,1,0,0,0-1,1V22a1,1,0,0,0,1,1h.711a5.263,5.263,0,0,0,0-10.525Zm.289,8.512v-6.5a3.262,3.262,0,0,1,0,6.5Z"/><path d="M30.081,14.475a1.132,1.132,0,0,1,1.131,1.131,1,1,0,1,0,2,0,3.132,3.132,0,1,0-3.131,3.131,1.132,1.132,0,1,1-1.132,1.132,1,1,0,0,0-2,0,3.132,3.132,0,1,0,3.132-3.132,1.131,1.131,0,1,1,0-2.262Z"/><rect class="cls-4" height="6" width="2" x="17" y="35"/><path d="M20,33H16a1,1,0,0,0-1,1v8a1,1,0,0,0,1,1h4a1,1,0,0,0,1-1V34A1,1,0,0,0,20,33Zm-1,8H17V35h2Z"/><rect class="cls-5" height="2" width="2" x="9" y="39"/><path d="M8,43h4a1,1,0,0,0,1-1V38a1,1,0,0,0-1-1H8a1,1,0,0,0-1,1v4A1,1,0,0,0,8,43Zm1-4h2v2H9Z"/><rect class="cls-6" height="8" width="2" x="25" y="33"/><path d="M28,31H24a1,1,0,0,0-1,1V42a1,1,0,0,0,1,1h4a1,1,0,0,0,1-1V32A1,1,0,0,0,28,31ZM27,41H25V33h2Z"/><rect class="cls-7" height="10" width="2" x="33" y="31"/><path d="M36,29H32a1,1,0,0,0-1,1V42a1,1,0,0,0,1,1h4a1,1,0,0,0,1-1V30A1,1,0,0,0,36,29ZM35,41H33V31h2Z"/><rect class="cls-7" height="14" width="10" x="45" y="11"/><path d="M44,27H56a1,1,0,0,0,1-1V10a1,1,0,0,0-1-1H44a1,1,0,0,0-1,1V26A1,1,0,0,0,44,27Zm1-16H55V25H45Z"/><path d="M44,31H56a1,1,0,0,0,0-2H44a1,1,0,0,0,0,2Z"/><path d="M44,35H56a1,1,0,0,0,0-2H44a1,1,0,0,0,0,2Z"/><path d="M44,39H56a1,1,0,0,0,0-2H44a1,1,0,0,0,0,2Z"/><path d="M44,43H56a1,1,0,0,0,0-2H44a1,1,0,0,0,0,2Z"/></g></svg>