<?xml version="1.0" encoding="iso-8859-1"?>
<!-- Generator: Adobe Illustrator 19.0.0, SVG Export Plug-In . SVG Version: 6.00 Build 0)  -->
<svg version="1.1" id="Layer_1" xmlns="http://www.w3.org/2000/svg" xmlns:xlink="http://www.w3.org/1999/xlink" x="0px" y="0px"
	 viewBox="0 0 512 512" style="enable-background:new 0 0 512 512;" xml:space="preserve">
<polygon style="fill:#288FD9;" points="484.421,0 329.736,0 308.822,262.269 329.736,512 484.421,512 "/>
<polygon style="fill:#55ACE8;" points="175.051,0 175.051,161.702 242.962,512 329.736,512 329.736,0 "/>
<polygon style="fill:#288FD9;" points="247.183,146.029 137.381,146.029 115.53,329.014 137.381,512 247.183,512 "/>
<rect x="27.579" y="146.024" style="fill:#55ACE8;" width="109.798" height="365.975"/>
<g>
	<rect x="211.069" y="38.228" style="fill:#FBE27B;" width="36.112" height="31.347"/>
	<rect x="278.141" y="38.228" style="fill:#FBE27B;" width="36.112" height="31.347"/>
</g>
<g>
	<rect x="345.213" y="38.228" style="fill:#F7C02D;" width="36.112" height="31.347"/>
	<rect x="412.285" y="38.228" style="fill:#F7C02D;" width="36.112" height="31.347"/>
</g>
<g>
	<rect x="211.069" y="92.129" style="fill:#FBE27B;" width="36.112" height="31.347"/>
	<rect x="278.141" y="92.129" style="fill:#FBE27B;" width="36.112" height="31.347"/>
</g>
<g>
	<rect x="345.213" y="92.129" style="fill:#F7C02D;" width="36.112" height="31.347"/>
	<rect x="412.285" y="92.129" style="fill:#F7C02D;" width="36.112" height="31.347"/>
</g>
<rect x="278.141" y="146.024" style="fill:#FBE27B;" width="36.112" height="31.347"/>
<g>
	<rect x="345.213" y="146.024" style="fill:#F7C02D;" width="36.112" height="31.347"/>
	<rect x="412.285" y="146.024" style="fill:#F7C02D;" width="36.112" height="31.347"/>
</g>
<rect x="278.141" y="199.931" style="fill:#FBE27B;" width="36.112" height="31.347"/>
<g>
	<rect x="345.213" y="199.931" style="fill:#F7C02D;" width="36.112" height="31.347"/>
	<rect x="412.285" y="199.931" style="fill:#F7C02D;" width="36.112" height="31.347"/>
</g>
<rect x="278.141" y="253.827" style="fill:#FBE27B;" width="36.112" height="31.347"/>
<g>
	<rect x="345.213" y="253.827" style="fill:#F7C02D;" width="36.112" height="31.347"/>
	<rect x="412.285" y="253.827" style="fill:#F7C02D;" width="36.112" height="31.347"/>
</g>
<rect x="278.141" y="307.733" style="fill:#FBE27B;" width="36.112" height="31.347"/>
<g>
	<rect x="345.213" y="307.733" style="fill:#F7C02D;" width="36.112" height="31.347"/>
	<rect x="412.285" y="307.733" style="fill:#F7C02D;" width="36.112" height="31.347"/>
</g>
<rect x="278.141" y="361.629" style="fill:#FBE27B;" width="36.112" height="31.347"/>
<g>
	<rect x="345.213" y="361.629" style="fill:#F7C02D;" width="36.112" height="31.347"/>
	<rect x="412.285" y="361.629" style="fill:#F7C02D;" width="36.112" height="31.347"/>
</g>
<rect x="278.141" y="415.535" style="fill:#FBE27B;" width="36.112" height="31.347"/>
<g>
	<rect x="345.213" y="415.535" style="fill:#F7C02D;" width="36.112" height="31.347"/>
	<rect x="412.285" y="415.535" style="fill:#F7C02D;" width="36.112" height="31.347"/>
</g>
<rect x="70.102" y="199.931" style="fill:#FBE27B;" width="57.668" height="31.347"/>
<rect x="147.947" y="199.931" style="fill:#F7C02D;" width="57.668" height="31.347"/>
<rect x="70.102" y="253.827" style="fill:#FBE27B;" width="57.668" height="31.347"/>
<rect x="147.947" y="253.827" style="fill:#F7C02D;" width="57.668" height="31.347"/>
<rect x="70.102" y="307.733" style="fill:#FBE27B;" width="57.668" height="31.347"/>
<rect x="147.947" y="307.733" style="fill:#F7C02D;" width="57.668" height="31.347"/>
<rect x="70.102" y="361.629" style="fill:#FBE27B;" width="57.668" height="31.347"/>
<rect x="147.947" y="361.629" style="fill:#F7C02D;" width="57.668" height="31.347"/>
<rect x="70.102" y="415.535" style="fill:#FBE27B;" width="57.668" height="31.347"/>
<rect x="147.947" y="415.535" style="fill:#F7C02D;" width="57.668" height="31.347"/>
<g>
</g>
<g>
</g>
<g>
</g>
<g>
</g>
<g>
</g>
<g>
</g>
<g>
</g>
<g>
</g>
<g>
</g>
<g>
</g>
<g>
</g>
<g>
</g>
<g>
</g>
<g>
</g>
<g>
</g>
</svg>
