<?xml version="1.0" encoding="iso-8859-1"?>
<!-- Generator: Adobe Illustrator 19.0.0, SVG Export Plug-In . SVG Version: 6.00 Build 0)  -->
<svg version="1.1" id="Layer_1" xmlns="http://www.w3.org/2000/svg" xmlns:xlink="http://www.w3.org/1999/xlink" x="0px" y="0px"
	 viewBox="0 0 392.594 392.594" style="enable-background:new 0 0 392.594 392.594;" xml:space="preserve">
<path style="fill:#FFFFFF;" d="M298.47,329.18l22.691,24.566V32.711c0-6.012-4.848-10.925-10.925-10.925H82.422
	c-6.012,0-10.925,4.848-10.925,10.925V353.81l22.691-24.566c2.004-2.133,4.719-3.426,7.628-3.491c0.065,0,0.259,0,0.323,0
	c2.78,0,5.495,1.099,7.564,3.038l39.628,37.947l39.628-37.947c4.267-4.008,10.925-4.008,15.063,0l39.434,37.689l39.434-37.689
	c2.069-2.004,4.913-3.103,7.887-3.038C293.687,325.754,296.466,326.982,298.47,329.18z"/>
<polygon style="fill:#FFC10D;" points="100.846,289.875 93.347,297.956 93.347,43.442 299.311,43.442 299.311,297.956 
	291.812,289.875 243.521,336.162 196.588,291.168 149.331,336.356 "/>
<g>
	<path style="fill:#194F82;" d="M137.436,134.012C137.371,134.012,137.371,134.012,137.436,134.012
		C137.113,134.077,137.307,134.012,137.436,134.012z"/>
	<path style="fill:#194F82;" d="M136.208,112.097L136.208,112.097C136.466,112.097,136.272,112.097,136.208,112.097z"/>
	<path style="fill:#194F82;" d="M136.208,112.097C136.143,112.097,136.143,112.097,136.208,112.097
		c-4.913-0.646-8.792-4.784-8.792-9.826c0-5.495,4.461-9.891,9.891-9.891c5.495,0,9.891,4.461,9.891,9.891
		c0,6.012,4.848,10.925,10.925,10.925c6.077,0,10.925-4.848,10.925-10.925c0-13.705-8.663-25.277-20.816-29.737v-3.685
		c0-6.012-4.848-10.925-10.925-10.925c-6.077,0-10.925,4.848-10.925,10.925v3.685c-12.154,4.461-20.816,16.097-20.816,29.737
		c0,17.455,14.222,31.677,31.677,31.677c0.129,0,0.065,0,0.065,0c4.913,0.646,9.891,4.719,9.891,9.762
		c0,5.495-4.461,9.891-9.891,9.891c-5.495,0-9.891-4.461-9.891-9.891c0-6.012-4.848-10.925-10.925-10.925
		s-10.925,4.848-10.925,10.925c0,13.705,8.663,25.277,20.816,29.737v3.685c0,6.012,4.848,10.925,10.925,10.925
		c6.077,0,10.925-4.848,10.925-10.925v-3.685c12.154-4.461,20.816-16.097,20.816-29.737
		C169.048,126.319,153.727,112.097,136.208,112.097z"/>
	<path style="fill:#194F82;" d="M276.103,122.828H209c-6.012,0-10.925-4.848-10.925-10.925c0-6.012,4.848-10.925,10.925-10.925
		h67.103c6.012,0,10.925,4.848,10.925,10.925C286.963,117.915,282.115,122.828,276.103,122.828z"/>
	<path style="fill:#194F82;" d="M276.103,170.861H209c-6.012,0-10.925-4.848-10.925-10.925S202.923,149.01,209,149.01h67.103
		c6.012,0,10.925,4.848,10.925,10.925C286.963,165.947,282.115,170.861,276.103,170.861z"/>
	<path style="fill:#194F82;" d="M276.103,218.828H116.555c-6.012,0-10.925-4.848-10.925-10.925c0-6.012,4.848-10.925,10.925-10.925
		h159.547c6.012,0,10.925,4.848,10.925,10.925C286.963,213.98,282.115,218.828,276.103,218.828z"/>
	<path style="fill:#194F82;" d="M276.103,266.925H116.555c-6.012,0-10.925-4.848-10.925-10.925c0-6.012,4.848-10.925,10.925-10.925
		h159.547c6.012,0,10.925,4.848,10.925,10.925C286.963,262.012,282.115,266.925,276.103,266.925z"/>
	<path style="fill:#194F82;" d="M310.236,0H82.422C64.321,0,49.646,14.675,49.646,32.711v348.897
		c0,9.115,11.119,15.192,18.941,7.434l34.069-36.848l38.917,37.301c5.042,4.008,10.925,3.943,15.515,0l39.434-37.689l39.434,37.689
		c4.267,4.008,10.925,4.008,15.063,0l38.917-37.301l34.069,36.848c7.37,7.564,18.941,1.939,18.941-7.434V32.711
		C343.012,14.675,328.337,0,310.236,0z M243.521,366.481l-39.434-37.689c-4.267-4.008-10.925-4.008-15.063,0l-39.628,37.947
		l-39.628-38.012c-2.004-1.939-4.719-3.038-7.564-3.038c-0.065,0-0.259,0-0.323,0c-2.909,0.065-5.689,1.293-7.628,3.491
		l-22.691,24.566V32.711c0-6.012,4.848-10.925,10.925-10.925h227.879c6.012,0,10.925,4.848,10.925,10.925v320.97l-22.82-24.501
		c-2.004-2.133-4.719-3.426-7.628-3.491c-2.909-0.065-5.689,1.034-7.887,3.038L243.521,366.481z"/>
</g>
<g>
</g>
<g>
</g>
<g>
</g>
<g>
</g>
<g>
</g>
<g>
</g>
<g>
</g>
<g>
</g>
<g>
</g>
<g>
</g>
<g>
</g>
<g>
</g>
<g>
</g>
<g>
</g>
<g>
</g>
</svg>
