<svg width="17" height="17" viewBox="0 0 17 17" fill="none" xmlns="http://www.w3.org/2000/svg">
<path d="M15.1868 7.82708L8.67721 14.3367C7.87973 15.1341 6.79813 15.5821 5.67033 15.5821C4.54254 15.5821 3.46093 15.1341 2.66346 14.3367C1.86598 13.5392 1.41797 12.4576 1.41797 11.3298C1.41797 10.202 1.86598 9.12038 2.66346 8.32291L9.17304 1.81333C9.70469 1.28168 10.4258 0.983002 11.1776 0.983002C11.9295 0.983002 12.6506 1.28168 13.1822 1.81333C13.7139 2.34498 14.0125 3.06605 14.0125 3.81791C14.0125 4.56977 13.7139 5.29085 13.1822 5.82249L6.66554 12.3321C6.39972 12.5979 6.03918 12.7472 5.66325 12.7472C5.28732 12.7472 4.92678 12.5979 4.66096 12.3321C4.39513 12.0663 4.24579 11.7057 4.24579 11.3298C4.24579 10.9539 4.39513 10.5933 4.66096 10.3275L10.6747 4.32083" stroke="#73A4FF" stroke-linecap="round" stroke-linejoin="round"/>
</svg>