<?xml version="1.0" encoding="iso-8859-1"?>
<!-- Generator: Adobe Illustrator 19.0.0, SVG Export Plug-In . SVG Version: 6.00 Build 0)  -->
<svg version="1.1" id="Layer_1" xmlns="http://www.w3.org/2000/svg" xmlns:xlink="http://www.w3.org/1999/xlink" x="0px" y="0px"
	 viewBox="0 0 392.505 392.505" style="enable-background:new 0 0 392.505 392.505;" xml:space="preserve">
<path style="fill:#FFFFFF;" d="M136.949,123.188c0,47.063,38.271,85.333,85.333,85.333s85.333-38.271,85.333-85.333v-6.853H136.949
	V123.188z"/>
<path style="fill:#56ACE0;" d="M222.283,186.671c-29.802,0-54.949-20.687-61.673-48.549h123.41
	C277.232,165.919,252.085,186.671,222.283,186.671z"/>
<path style="fill:#194F82;" d="M318.477,94.55H126.089c-6.012,0-10.925,4.848-10.925,10.925v17.778
	c0,55.402,42.279,101.042,96.194,106.537v16.679c-13.188-3.168-28.251-5.689-45.123-7.499c-51.588-5.56-70.012-42.343-76.347-63.741
	C75.665,127.519,93.119,70.372,131.39,39.083c18.489-15.127,35.168-17.131,47.903-14.998c-2.004,14.739,7.887,31.935,25.859,42.473
	c22.174,13.059,47.127,10.537,56.695-5.883c9.568-16.291-0.323-39.305-22.497-52.364c-16.743-9.891-35.168-10.796-47.192-3.556
	c-16.226-4.978-44.218-7.434-74.537,17.39c-45.446,37.172-65.422,102.723-48.614,159.16c13.446,45.253,48.032,74.214,94.966,79.257
	c19.523,2.069,35.103,5.042,47.451,8.275v53.139c-25.6,1.875-56.954,8.792-80.743,54.562c-2.78,5.301-0.711,11.895,4.655,14.675
	c4.848,2.909,12.541,0.517,14.675-4.655c18.295-35.103,39.176-41.051,61.414-42.731v26.828h-33.487
	c-6.012,0-10.925,4.848-10.925,10.925c0,6.077,4.848,10.925,10.925,10.925h88.76c6.012,0,10.925-4.848,10.925-10.925
	c0-6.012-4.849-10.925-10.925-10.925h-33.487v-28.057c17.778-1.422,35.879-5.818,46.61-27.798c0.711-1.487,6.335-14.998-2.78-30.966
	c-7.37-12.929-22.044-23.273-43.83-31.095v-23.014c53.915-5.495,96.194-51.135,96.194-106.537V105.41
	C329.402,99.398,324.489,94.55,318.477,94.55z M200.949,24.925c2.844-4.784,15.127-4.848,27.345,2.327
	c12.218,7.176,18.23,17.907,15.386,22.691c-2.844,4.784-15.127,4.848-27.345-2.327C204.052,40.44,198.105,29.709,200.949,24.925z
	 M257.644,294.049c3.685,6.077,2.521,10.796,2.133,11.83c-5.43,10.731-13.188,13.576-26.634,14.869v-44.606
	C248.077,282.541,254.8,289.265,257.644,294.049z M307.551,123.188c0,47.063-38.271,85.333-85.333,85.333
	s-85.333-38.271-85.333-85.333v-6.853h170.602L307.551,123.188L307.551,123.188z"/>
<path style="fill:#FFC10D;" d="M216.271,47.616c12.218,7.176,24.501,7.176,27.345,2.327c2.844-4.784-3.168-15.515-15.386-22.691
	c-12.218-7.176-24.501-7.176-27.345-2.327C198.105,29.709,204.052,40.44,216.271,47.616z"/>
<g>
</g>
<g>
</g>
<g>
</g>
<g>
</g>
<g>
</g>
<g>
</g>
<g>
</g>
<g>
</g>
<g>
</g>
<g>
</g>
<g>
</g>
<g>
</g>
<g>
</g>
<g>
</g>
<g>
</g>
</svg>
