<?xml version="1.0" encoding="iso-8859-1"?>
<!-- Generator: Adobe Illustrator 19.0.0, SVG Export Plug-In . SVG Version: 6.00 Build 0)  -->
<svg version="1.1" id="Layer_1" xmlns="http://www.w3.org/2000/svg" xmlns:xlink="http://www.w3.org/1999/xlink" x="0px" y="0px"
	 viewBox="0 0 512 512" style="enable-background:new 0 0 512 512;" xml:space="preserve">
<circle style="fill:#FFEDB5;" cx="256" cy="256" r="256"/>
<path style="fill:#FEE187;" d="M509.857,289.221L393.912,173.277l-18.339,15.786l-61.285-61.285l-132.691,94.618l-11.45-11.45
	l-0.652,20.078l-0.05,3.427l-0.165,3.21l-6.235,192.331l81.749,81.749c3.717,0.16,7.449,0.259,11.205,0.259
	C386.126,512,493.568,414.911,509.857,289.221z"/>
<rect x="181.579" y="127.776" style="fill:#C92F00;" width="132.708" height="113.75"/>
<rect x="181.579" y="184.648" style="fill:#930000;" width="132.708" height="56.875"/>
<polygon style="fill:#E09112;" points="393.912,287.027 261.204,287.027 261.204,173.277 393.912,173.277 371.795,230.152 "/>
<polygon style="fill:#FF5419;" points="371.798,230.141 261.204,230.141 261.204,287.027 393.912,287.027 371.795,230.152 "/>
<polygon style="fill:#930000;" points="314.287,127.778 261.204,173.277 314.287,173.277 "/>
<path style="fill:#273B7A;" d="M172.732,434.212L172.732,434.212c7.33,0,13.271-5.942,13.271-13.271V128.984
	c0-7.33-5.942-13.271-13.271-13.271l0,0c-7.33,0-13.271,5.942-13.271,13.271v291.957
	C159.461,428.272,165.402,434.212,172.732,434.212z"/>
<g>
</g>
<g>
</g>
<g>
</g>
<g>
</g>
<g>
</g>
<g>
</g>
<g>
</g>
<g>
</g>
<g>
</g>
<g>
</g>
<g>
</g>
<g>
</g>
<g>
</g>
<g>
</g>
<g>
</g>
</svg>
