<?xml version="1.0" encoding="iso-8859-1"?>
<!-- Generator: Adobe Illustrator 19.0.0, SVG Export Plug-In . SVG Version: 6.00 Build 0)  -->
<svg version="1.1" id="Layer_1" xmlns="http://www.w3.org/2000/svg" xmlns:xlink="http://www.w3.org/1999/xlink" x="0px" y="0px"
	 viewBox="0 0 511.999 511.999" style="enable-background:new 0 0 511.999 511.999;" xml:space="preserve">
<path style="fill:#2D527C;" d="M464.255,477.405H47.744C21.418,477.405,0,455.989,0,429.662V82.336
	C0,56.01,21.418,34.593,47.744,34.593h416.511c26.326,0,47.744,21.418,47.744,47.744c0,7.641-6.195,13.838-13.838,13.838
	s-13.838-6.196-13.838-13.838c0-11.066-9.003-20.069-20.069-20.069H47.744c-11.066,0-20.069,9.001-20.069,20.067v347.326
	c0,11.066,9.003,20.069,20.069,20.069h416.511c11.066,0,20.069-9.003,20.069-20.069V244.01c0-7.641,6.195-13.838,13.838-13.838
	s13.838,6.196,13.838,13.838v185.652C512,455.989,490.582,477.405,464.255,477.405z"/>
<path style="fill:#CEE8FA;" d="M13.838,82.336v69.883h484.323V82.336c0-18.726-15.18-33.906-33.906-33.906H47.744
	C29.019,48.429,13.838,63.611,13.838,82.336z"/>
<g>
	<path style="fill:#2D527C;" d="M498.162,166.056H13.838C6.195,166.056,0,159.859,0,152.218V82.336
		C0,56.01,21.418,34.593,47.744,34.593h416.511c26.326,0,47.744,21.418,47.744,47.744v69.883
		C512,159.861,505.805,166.056,498.162,166.056z M27.675,138.381h456.65V82.336c0-11.066-9.003-20.069-20.069-20.069H47.745
		c-11.067,0.001-20.07,9.003-20.07,20.069V138.381z"/>
	<path style="fill:#2D527C;" d="M294.742,114.161H268.45c-7.642,0-13.838-6.196-13.838-13.838s6.195-13.838,13.838-13.838h26.291
		c7.642,0,13.838,6.196,13.838,13.838S302.384,114.161,294.742,114.161z"/>
	<path style="fill:#2D527C;" d="M368.081,114.161H341.79c-7.642,0-13.838-6.196-13.838-13.838s6.195-13.838,13.838-13.838h26.291
		c7.643,0,13.838,6.196,13.838,13.838S375.723,114.161,368.081,114.161z"/>
	<path style="fill:#2D527C;" d="M441.42,114.161h-26.291c-7.642,0-13.838-6.196-13.838-13.838s6.195-13.838,13.838-13.838h26.291
		c7.642,0,13.838,6.196,13.838,13.838S449.063,114.161,441.42,114.161z"/>
</g>
<rect x="112.776" y="303.042" style="fill:#CEE8FA;" width="286.438" height="63.653"/>
<g>
	<path style="fill:#2D527C;" d="M399.218,380.538H112.78c-7.642,0-13.838-6.196-13.838-13.838v-63.653
		c0-7.641,6.195-13.838,13.838-13.838h286.438c7.643,0,13.838,6.196,13.838,13.838v63.653
		C413.056,374.343,406.861,380.538,399.218,380.538z M126.618,352.863h258.763v-35.978H126.618L126.618,352.863L126.618,352.863z"/>
	<path style="fill:#2D527C;" d="M357.531,257.384H154.467c-7.642,0-13.838-6.196-13.838-13.838s6.195-13.838,13.838-13.838h203.064
		c7.643,0,13.838,6.196,13.838,13.838S365.174,257.384,357.531,257.384z"/>
</g>
<g>
</g>
<g>
</g>
<g>
</g>
<g>
</g>
<g>
</g>
<g>
</g>
<g>
</g>
<g>
</g>
<g>
</g>
<g>
</g>
<g>
</g>
<g>
</g>
<g>
</g>
<g>
</g>
<g>
</g>
</svg>
