<svg xmlns="http://www.w3.org/2000/svg" width="576.5" height="493.5" viewBox="0 0 576.5 493.5">
  <g id="Group_11" data-name="Group 11" transform="translate(0)">
    <path id="Path_288" data-name="Path 288" d="M481.172,691.6c9.255-7.82,14.876-20.173,13.4-32.2s-10.605-23.082-22.449-25.636-25.345,4.516-28.943,16.085c-1.98-22.306-4.261-45.547-16.121-64.542-10.738-17.2-29.337-29.507-49.494-31.709s-41.38,6.114-53.951,22.024-15.649,39.039-6.845,57.3c6.486,13.456,18.435,23.47,30.956,31.616a199.787,199.787,0,0,0,136.641,29.893" transform="translate(-311.75 -203.25)" fill="#dde9ff"/>
    <path id="Path_289" data-name="Path 289" d="M343.55,560.174A329.656,329.656,0,0,1,440.412,691.15c.924,2.264-2.752,3.25-3.666,1.011a326.267,326.267,0,0,0-95.884-129.3c-1.9-1.546.806-4.221,2.688-2.688Z" transform="translate(-311.75 -203.25)" fill="#fff"/>
    <path id="Path_290" data-name="Path 290" d="M487.565,691.6c-9.255-7.82-14.876-20.173-13.4-32.2s10.605-23.082,22.449-25.636,25.345,4.516,28.943,16.085c1.98-22.306,4.261-45.547,16.12-64.542,10.738-17.2,29.337-29.507,49.494-31.709s41.38,6.114,53.951,22.024,15.649,39.039,6.845,57.3c-6.486,13.456-18.435,23.47-30.956,31.616a199.786,199.786,0,0,1-136.641,29.893" transform="translate(-311.75 -203.25)" fill="#dde9ff"/>
    <path id="Path_291" data-name="Path 291" d="M625.187,560.174A329.655,329.655,0,0,0,528.325,691.15c-.924,2.264,2.752,3.25,3.666,1.011a325.987,325.987,0,0,1,95.885-129.3c1.9-1.546-.806-4.221-2.688-2.688Z" transform="translate(-311.75 -203.25)" fill="#fff"/>
    <circle id="Ellipse_37" data-name="Ellipse 37" cx="31" cy="31" r="31" transform="translate(172.277 160)" fill="#dde9ff"/>
    <path id="Path_292" data-name="Path 292" d="M419.446,287.388H633.027v11.685H446.711a83.418,83.418,0,0,0-83.419,83.419V515.25h-23.37a3.9,3.9,0,0,1-3.9-3.895V370.806a83.418,83.418,0,0,1,83.419-83.418Z" transform="translate(-311.75 -203.25)" fill="#dde9ff"/>
    <path id="Path_293" data-name="Path 293" d="M460.527,692.25V514.75h52v177.5a4.505,4.505,0,0,1-4.5,4.5h-43a4.505,4.505,0,0,1-4.5-4.5Z" transform="translate(-311.75 -203.25)" fill="#244362"/>
    <path id="Path_294" data-name="Path 294" d="M325.027,511.25V366.916a86.764,86.764,0,0,1,86.665-86.666H632.027v236h-302a5.006,5.006,0,0,1-5-5Zm305-229H411.692a84.761,84.761,0,0,0-84.665,84.665V511.25a3,3,0,0,0,3,3h300Z" transform="translate(-311.75 -203.25)" fill="#244362"/>
    <path id="Path_295" data-name="Path 295" d="M515.027,410.25a18.02,18.02,0,0,1-18-18v-129a3,3,0,0,0-3-3h-70a5.006,5.006,0,0,1-5-5v-47a5.006,5.006,0,0,1,5-5h104a5.006,5.006,0,0,1,5,5v184a18.02,18.02,0,0,1-18,18Z" transform="translate(-311.75 -203.25)" fill="#3869ba"/>
    <path id="Path_296" data-name="Path 296" d="M640.027,278.25h0a56.881,56.881,0,0,1,57,56.761v164.31h112a16.965,16.965,0,0,1,17,16.929h-243V335.011a56.881,56.881,0,0,1,57-56.761Z" transform="translate(-311.75 -203.25)" fill="#244362"/>
    <path id="Path_297" data-name="Path 297" d="M626.349,371.818l11.8,48.756,230.881-55.892-11.8-48.756a3.638,3.638,0,0,0-2.358-2.6,3.594,3.594,0,0,0-1.334-.2l-133.46-69.1a3.682,3.682,0,0,0-4.656,1.119L651.1,334.841l-24.248,33.823a.514.514,0,0,0-.089.418A3.642,3.642,0,0,0,626.349,371.818Z" transform="translate(-311.75 -203.25)" fill="#fff"/>
    <path id="Path_298" data-name="Path 298" d="M626.766,369.082a.489.489,0,0,0,.2.316.559.559,0,0,0,.433.086.536.536,0,0,0,.3-.207l.083-.115,1.263-1.766,22.929-31.964,64.3-89.673a2.62,2.62,0,0,1,3.322-.8l132.425,68.567,1.188.617a1.3,1.3,0,0,0,.147.052,1.61,1.61,0,0,1,.271-.026.513.513,0,0,0,.29-.245.524.524,0,0,0-.219-.709l-.164-.087-133.459-69.1a3.682,3.682,0,0,0-4.656,1.119L651.1,334.841l-24.248,33.823a.514.514,0,0,0-.089.418Z" transform="translate(-311.75 -203.25)" fill="#3f3d56"/>
    <path id="Path_299" data-name="Path 299" d="M696.107,374.054l5.139.57,38.143,4.225,25.286,2.8,1.494.166L797.72,357.17l1.209-.944,7.452-5.82L832.9,329.7l.159-1.454,9.43-85.114a4.454,4.454,0,0,0-3.929-4.912L712.7,224.278a4.456,4.456,0,0,0-4.912,3.929l-6.65,60.037-3.689,33.286-3.3,29.779-1.53,13.829-.446,4.006A4.457,4.457,0,0,0,696.107,374.054Z" transform="translate(-311.75 -203.25)" fill="#dde9ff"/>
    <path id="Path_300" data-name="Path 300" d="M730.692,299.448l54.517,6.038,19.333,2.141a6.54,6.54,0,1,0,1.44-13l-24.047-2.663-49.8-5.522a6.543,6.543,0,1,0-1.444,13.006Z" transform="translate(-311.75 -203.25)" fill="#fff"/>
    <path id="Path_301" data-name="Path 301" d="M727.588,323.564c.141.025.281.05.425.064l63.285,7.011,10.566,1.173a6.542,6.542,0,0,0,1.439-13.005l-15.278-1.69-50.13-5.555-8.436-.935a6.539,6.539,0,0,0-1.87,12.937Z" transform="translate(-311.75 -203.25)" fill="#fff"/>
    <path id="Path_302" data-name="Path 302" d="M720.426,344.948a6.539,6.539,0,0,0,4.88,3.125l25.939,2.873,46.2,5.118.01,0,1.477.165,7.452-5.82a6.47,6.47,0,0,0,0-1.33,6.555,6.555,0,0,0-5.787-5.824l-6.417-.713-25.457-2.817-18.317-2.031-23.66-2.622a6.54,6.54,0,0,0-6.319,9.88Z" transform="translate(-311.75 -203.25)" fill="#fff"/>
    <path id="Path_303" data-name="Path 303" d="M756.859,269.97l13.564,1.5,5.991.665,9.05,1a6.542,6.542,0,0,0,1.439-13.005l-28.6-3.165a6.541,6.541,0,0,0-1.445,13Z" transform="translate(-311.75 -203.25)" fill="#fff"/>
    <path id="Path_304" data-name="Path 304" d="M645.944,306.182,662.481,374.5l27.6,5.248,25.532,4.861,27.394,5.212,8.753,1.666a3.673,3.673,0,0,0,2.94-.712l7.022-5.485,4.446-3.472,31.552-24.645L777.659,274.3a4.4,4.4,0,0,0-1.244-2.159,4.449,4.449,0,0,0-4.125-1.117L649.22,300.813a4.45,4.45,0,0,0-3.276,5.369Z" transform="translate(-311.75 -203.25)" fill="#3869ba"/>
    <path id="Path_305" data-name="Path 305" d="M683.864,360.528a6.546,6.546,0,0,0,7.9,4.818l72.214-17.482a6.55,6.55,0,0,0,4.818-7.9,2.1,2.1,0,0,0-.07-.247,6.539,6.539,0,0,0-7.825-4.571l-72.214,17.482A6.546,6.546,0,0,0,683.864,360.528Z" transform="translate(-311.75 -203.25)" fill="#fff"/>
    <path id="Path_306" data-name="Path 306" d="M690.082,379.744l25.532,4.861L769.7,371.512a6.541,6.541,0,1,0-3.078-12.714L694.407,376.28a6.494,6.494,0,0,0-3.747,2.512A6.583,6.583,0,0,0,690.082,379.744Z" transform="translate(-311.75 -203.25)" fill="#fff"/>
    <path id="Path_307" data-name="Path 307" d="M743.008,389.817l8.753,1.666a3.673,3.673,0,0,0,2.94-.712l7.022-5.484Z" transform="translate(-311.75 -203.25)" fill="#fff"/>
    <path id="Path_308" data-name="Path 308" d="M698.415,323.9a6.546,6.546,0,0,0,7.9,4.818l27.97-6.771a6.55,6.55,0,0,0,4.818-7.9,6.465,6.465,0,0,0-1.2-2.486,6.546,6.546,0,0,0-6.691-2.332L703.233,316a6.541,6.541,0,0,0-4.818,7.9Z" transform="translate(-311.75 -203.25)" fill="#fff"/>
    <path id="Path_309" data-name="Path 309" d="M715.612,384.6l27.4,5.214,8.75,1.666a3.689,3.689,0,0,0,2.938-.711l7.027-5.486-2.466.6-5.206,4.061a2.636,2.636,0,0,1-2.1.508l-6.479-1.232-27.4-5.214Zm81.838-28.539.267,1.1,1.215-.945ZM715.612,384.6l27.4,5.214,8.75,1.666a3.689,3.689,0,0,0,2.938-.711l7.027-5.486-2.466.6-5.206,4.061a2.636,2.636,0,0,1-2.1.508l-6.479-1.232-27.4-5.214Zm0,0,27.4,5.214,8.75,1.666a3.689,3.689,0,0,0,2.938-.711l7.027-5.486-2.466.6-5.206,4.061a2.636,2.636,0,0,1-2.1.508l-6.479-1.232-27.4-5.214Zm-89.263-12.787,30.916,127.71a3.666,3.666,0,0,0,4.422,2.7l223.761-54.168a3.666,3.666,0,0,0,2.7-4.422L857.23,315.926a3.638,3.638,0,0,0-2.358-2.6,3.594,3.594,0,0,0-1.334-.2,3.459,3.459,0,0,0-1.514.4,3.182,3.182,0,0,0-.607.377l-18.364,14.34-26.67,20.833-8.935,6.979,0,.008-.008,0-32.766,25.578-5.417,4.239-5.206,4.061a2.636,2.636,0,0,1-2.1.508l-6.479-1.232-27.4-5.214-27.422-5.215-60.061-11.43a3.59,3.59,0,0,0-1.547.033,3.67,3.67,0,0,0-1.788,1.036,4.115,4.115,0,0,0-.493.651,3.642,3.642,0,0,0-.417,2.736ZM715.612,384.6l27.4,5.214,8.75,1.666a3.689,3.689,0,0,0,2.938-.711l7.027-5.486-2.466.6-5.206,4.061a2.636,2.636,0,0,1-2.1.508l-6.479-1.232-27.4-5.214Zm0,0,27.4,5.214,8.75,1.666a3.689,3.689,0,0,0,2.938-.711l7.027-5.486-2.466.6-5.206,4.061a2.636,2.636,0,0,1-2.1.508l-6.479-1.232-27.4-5.214Zm0,0,27.4,5.214,8.75,1.666a3.689,3.689,0,0,0,2.938-.711l7.027-5.486-2.466.6-5.206,4.061a2.636,2.636,0,0,1-2.1.508l-6.479-1.232-27.4-5.214Z" transform="translate(-311.75 -203.25)" fill="#fff"/>
    <path id="Path_310" data-name="Path 310" d="M715.612,384.6l27.4,5.214,8.75,1.666a3.689,3.689,0,0,0,2.938-.711l7.027-5.486-2.466.6-5.206,4.061a2.636,2.636,0,0,1-2.1.508l-6.479-1.232-27.4-5.214Zm81.838-28.539.267,1.1,1.215-.945ZM715.612,384.6l27.4,5.214,8.75,1.666a3.689,3.689,0,0,0,2.938-.711l7.027-5.486-2.466.6-5.206,4.061a2.636,2.636,0,0,1-2.1.508l-6.479-1.232-27.4-5.214Zm0,0,27.4,5.214,8.75,1.666a3.689,3.689,0,0,0,2.938-.711l7.027-5.486-2.466.6-5.206,4.061a2.636,2.636,0,0,1-2.1.508l-6.479-1.232-27.4-5.214Zm-87.827-15.443.136.1c.023-.037.062-.071.092-.11a2.643,2.643,0,0,1,2.385-.768l59.686,11.354,25.528,4.865,27.4,5.214,8.75,1.666a3.689,3.689,0,0,0,2.938-.711l7.027-5.486-2.466.6-5.206,4.061a2.636,2.636,0,0,1-2.1.508l-6.479-1.232-27.4-5.214-27.422-5.215-60.061-11.43a3.59,3.59,0,0,0-1.547.033Zm-1.436,2.657,30.916,127.71a3.667,3.667,0,0,0,4.422,2.7l223.761-54.168a3.666,3.666,0,0,0,2.7-4.422l-30.916-127.71a3.639,3.639,0,0,0-2.358-2.6,3.594,3.594,0,0,0-1.334-.2,3.459,3.459,0,0,0-1.514.4,3.18,3.18,0,0,0-.607.377l-18.364,14.34-26.67,20.833-8.935,6.979,0,.008-.008,0-32.766,25.578-5.417,4.239-5.206,4.061a2.636,2.636,0,0,1-2.1.508l-6.479-1.232-27.4-5.214-27.423-5.215-60.061-11.43a3.59,3.59,0,0,0-1.547.033,3.67,3.67,0,0,0-1.788,1.036,4.115,4.115,0,0,0-.493.651,3.642,3.642,0,0,0-.417,2.736Zm1.02-.247a2.6,2.6,0,0,1,.462-2.191.341.341,0,0,1,.091-.117c.023-.037.062-.071.092-.11a2.642,2.642,0,0,1,2.385-.768l59.686,11.354,25.528,4.865,27.4,5.214,8.75,1.666a3.689,3.689,0,0,0,2.938-.711l7.027-5.486,4.444-3.472,31.547-24.648,1.215-.945,7.447-5.817L832.9,329.7l19.171-14.972a2.6,2.6,0,0,1,.987-.477,2,2,0,0,1,.305-.05,1.606,1.606,0,0,1,.271-.026,2.679,2.679,0,0,1,.9.147,2.625,2.625,0,0,1,1.686,1.853l30.916,127.71a2.62,2.62,0,0,1-1.931,3.165L661.442,501.214a2.618,2.618,0,0,1-3.157-1.933ZM715.612,384.6l27.4,5.214,8.75,1.666a3.689,3.689,0,0,0,2.938-.711l7.027-5.486-2.466.6-5.206,4.061a2.635,2.635,0,0,1-2.1.508l-6.479-1.232-27.4-5.214Zm0,0,27.4,5.214,8.75,1.666a3.689,3.689,0,0,0,2.938-.711l7.027-5.486-2.466.6-5.206,4.061a2.635,2.635,0,0,1-2.1.508l-6.479-1.232-27.4-5.214Zm0,0,27.4,5.214,8.75,1.666a3.689,3.689,0,0,0,2.938-.711l7.027-5.486-2.466.6-5.206,4.061a2.635,2.635,0,0,1-2.1.508l-6.479-1.232-27.4-5.214Z" transform="translate(-311.75 -203.25)" fill="#3f3d56"/>
    <path id="Path_311" data-name="Path 311" d="M827.129,422.967a8.128,8.128,0,0,1,5.981-9.8l28.242-6.837a8.119,8.119,0,0,1,3.82,15.782l-28.242,6.837a8.128,8.128,0,0,1-9.8-5.981Z" transform="translate(-311.75 -203.25)" fill="#3869ba"/>
    <circle id="Ellipse_38" data-name="Ellipse 38" cx="7" cy="7" r="7" transform="translate(196.277 182)" fill="#fff"/>
  </g>
</svg>
