<svg xmlns="http://www.w3.org/2000/svg" width="468.83" height="275.991" viewBox="0 0 468.83 275.991">
  <g id="Group_13" data-name="Group 13" transform="translate(-31.402 -73.413)">
    <path id="Path_312" data-name="Path 312" d="M498.464,113.588H33.171a1.807,1.807,0,0,1,0-3.613H498.464a1.807,1.807,0,0,1,0,3.613Z" fill="#cacaca"/>
    <rect id="Rectangle_66" data-name="Rectangle 66" width="163.611" height="34.986" rx="17.493" transform="translate(193.774 174.473)" fill="#dde9ff"/>
    <path id="Path_313" data-name="Path 313" d="M128.175,244.445h294.81a17.493,17.493,0,0,1,17.493,17.493h0a17.493,17.493,0,0,1-17.493,17.493H128.175a17.493,17.493,0,0,1-17.493-17.493h0A17.493,17.493,0,0,1,128.175,244.445Z" fill="#dde9ff"/>
    <path id="Path_314" data-name="Path 314" d="M128.175,314.418h294.81a17.493,17.493,0,0,1,17.493,17.493h0A17.493,17.493,0,0,1,422.985,349.4H128.175a17.493,17.493,0,0,1-17.493-17.493h0A17.493,17.493,0,0,1,128.175,314.418Z" fill="#dde9ff"/>
    <path id="Path_324" data-name="Path 324" d="M167.877,273.59c-.2.007-.4.011-.6.017-.086.224-.179.446-.287.664Z" fill="#2f2e41"/>
    <path id="Path_325" data-name="Path 325" d="M174.732,249.3a4.422,4.422,0,0,0,.179.724A3.409,3.409,0,0,0,174.732,249.3Z" fill="#2f2e41"/>
    <circle id="Ellipse_41" data-name="Ellipse 41" cx="51.12" cy="51.12" r="51.12" transform="translate(226.196 332.441) rotate(-85.269)" fill="#3869ba"/>
    <path id="Path_327" data-name="Path 327" d="M294.787,264.411l-13.428,13.428L267.93,264.411a5.566,5.566,0,0,0-7.872,7.872l13.428,13.428-13.428,13.428a5.566,5.566,0,0,0,7.872,7.872l13.428-13.428,13.428,13.428a5.566,5.566,0,0,0,7.872-7.872L289.23,285.711l13.428-13.428a5.566,5.566,0,0,0-7.872-7.872Z" fill="#fff"/>
    <g id="Group_12" data-name="Group 12">
      <ellipse id="Ellipse_42" data-name="Ellipse 42" cx="8.457" cy="8.645" rx="8.457" ry="8.645" transform="translate(48.32 73.413)" fill="#3869ba"/>
      <ellipse id="Ellipse_43" data-name="Ellipse 43" cx="8.457" cy="8.645" rx="8.457" ry="8.645" transform="translate(77.534 73.413)" fill="#3869ba"/>
      <ellipse id="Ellipse_44" data-name="Ellipse 44" cx="8.457" cy="8.645" rx="8.457" ry="8.645" transform="translate(106.747 73.413)" fill="#3869ba"/>
      <path id="Path_331" data-name="Path 331" d="M148.516,88.891a1,1,0,0,1-.715-.3L142.1,82.757a1,1,0,0,1,0-1.4l5.706-5.833a1,1,0,0,1,1.43,1.4l-5.022,5.133,5.022,5.134a1,1,0,0,1-.715,1.7Z" fill="#3f3d56"/>
      <path id="Path_332" data-name="Path 332" d="M158.1,88.891a1,1,0,0,1-.715-1.7l5.021-5.134-5.021-5.133a1,1,0,0,1,1.43-1.4l5.706,5.833a1,1,0,0,1,0,1.4l-5.706,5.833a1,1,0,0,1-.715.3Z" fill="#3f3d56"/>
      <path id="Path_333" data-name="Path 333" d="M456.614,74.414H446a2.189,2.189,0,0,0-2.19,2.19v10.62a2.189,2.189,0,0,0,2.19,2.19h10.61a2.2,2.2,0,0,0,2.2-2.19V76.6A2.2,2.2,0,0,0,456.614,74.414Z" fill="#3869ba"/>
      <path id="Path_334" data-name="Path 334" d="M430.614,74.414H420a2.189,2.189,0,0,0-2.19,2.19v10.62a2.189,2.189,0,0,0,2.19,2.19h10.61a2.2,2.2,0,0,0,2.2-2.19V76.6A2.2,2.2,0,0,0,430.614,74.414Z" fill="#3869ba"/>
      <path id="Path_335" data-name="Path 335" d="M481.114,74.914H470.5a2.189,2.189,0,0,0-2.19,2.19v10.62a2.189,2.189,0,0,0,2.19,2.19h10.61a2.2,2.2,0,0,0,2.2-2.19V77.1A2.2,2.2,0,0,0,481.114,74.914Z" fill="#3869ba"/>
      <path id="Path_336" data-name="Path 336" d="M321.192,78.954h-84.81a2.67,2.67,0,1,0,0,5.34h84.81a2.67,2.67,0,0,0,0-5.34Z" fill="#3869ba"/>
    </g>
  </g>
</svg>
